<?xml version="1.0" encoding="UTF-8"?>
<!-- Generator: Adobe Illustrator 16.0.0, SVG Export Plug-In . SVG Version: 6.00 Build 0)  -->
<!DOCTYPE svg PUBLIC "-//W3C//DTD SVG 1.1//EN" "http://www.w3.org/Graphics/SVG/1.1/DTD/svg11.dtd">
<svg version="1.1" id="svg18516" xmlns:dc="http://purl.org/dc/elements/1.1/" xmlns:cc="http://creativecommons.org/ns#" xmlns:rdf="http://www.w3.org/1999/02/22-rdf-syntax-ns#" xmlns:svg="http://www.w3.org/2000/svg" xmlns:sodipodi="http://sodipodi.sourceforge.net/DTD/sodipodi-0.dtd" xmlns:inkscape="http://www.inkscape.org/namespaces/inkscape" inkscape:version="0.91 r13725" sodipodi:docname="Logo PSG.svg" xmlns="http://www.w3.org/2000/svg" xmlns:xlink="http://www.w3.org/1999/xlink" x="0px" y="0px" width="510px" height="509.964px" viewBox="0 0 510 509.964" enable-background="new 0 0 510 509.964" xml:space="preserve">
<path d="M146.514,8h36.961c12.05,7.087,25.574,11.378,39.238,14.089c13.799,2.687,27.946,3.184,41.958,2.338  c11.199-0.744,22.394-2.397,33.159-5.649c8.151-2.469,16.166-5.753,23.096-10.779h37.339c6.213,6.644,13.648,12.06,21.515,16.592  c16.437,9.456,35.324,14.345,54.234,14.847c13.1,0.324,26.235-1.309,38.923-4.555c4.711,6.111,9.331,12.292,14.008,18.422  c1.175,1.696,2.682,3.19,3.614,5.035c-20.906,27.671-36.798,59.391-44.949,93.178c-2.227,9.64-2.672,19.757-0.777,29.493  c1.72,8.74,5.721,17.18,12.151,23.442c7.875,7.933,18.714,12.201,29.556,14.167c-4.45,5.504-7.852,12.118-8.494,19.249  c-0.565,5.779,1.508,11.655,5.295,16.022c4.034,4.619,9.339,8.041,14.998,10.33v0.213c-3.407,1.966-6.229,4.773-9.359,7.137  c-3.639,2.913-7.291,5.816-10.905,8.764c3.17,13.66,4.513,27.719,4.185,41.736c-0.377,19.095-4.329,38.439-13.562,55.293  c-4.267,7.817-9.721,14.973-16.07,21.211c-12.74,11.992-27.743,21.341-43.427,28.979c-25.959,12.553-54.509,19.798-83.345,20.787  c-1.266,0.07-2.629-0.141-3.783,0.496c-23.076,11.835-46.128,23.724-69.232,35.488c-22.94-11.266-45.678-22.997-68.614-34.271  c-15.451-0.478-30.917-2.343-45.92-6.169c-21.162-5.344-41.503-13.987-59.965-25.632c-6.344-3.942-12.364-8.373-18.114-13.128  c-13.693-9.585-23.607-23.9-29.12-39.569c-4.011-11.167-6.039-22.957-6.856-34.765c-0.908-16.896,0.256-33.928,3.88-50.466  c-4.87-3.896-9.745-7.779-14.616-11.674c-1.864-1.419-3.575-3.053-5.585-4.271v-0.155c4.841-2.933,9.369-6.445,13.263-10.561  c4.295-4.667,7.803-10.616,7.658-17.153c-0.082-7.068-4.266-13.345-9.407-17.886c7.015-1.677,13.924-4.087,20.114-7.842  c8.305-4.932,15.132-12.484,18.693-21.51c4.948-12.403,4.585-26.424,1.004-39.136c-2.831-11.553-6.561-22.883-11.088-33.884  c-8.6-20.722-19.723-40.517-33.855-57.983c5.673-7.513,11.331-15.046,16.998-22.564c0.416-0.894,1.459-0.536,2.208-0.424  c11.083,2.595,22.457,4.125,33.851,4.025c21.756,0.121,43.634-5.751,62.047-17.438C135.594,17.9,141.499,13.397,146.514,8z"/>
<path fill="#FFFFFF" d="M183.475,8h137.451c-6.93,5.025-14.944,8.31-23.096,10.779c-10.766,3.252-21.96,4.905-33.159,5.649  c-14.012,0.846-28.159,0.348-41.958-2.338C209.049,19.378,195.525,15.087,183.475,8z"/>
<path fill="#F3F3F3" d="M122.042,31.279c9.146-4.798,17.838-10.664,25.09-18.065c11.267-0.03,22.535-0.005,33.807-0.011  c11.76,6.286,24.574,10.452,37.595,13.215c10.876,2.237,21.989,3.324,33.092,3.135c0.004,8.794,0.039,17.587-0.02,26.381  c-1.082,0.019-2.164-0.014-3.242-0.038c0.155,10.087,0.479,20.172,0.542,30.26c0.903-0.066,1.816-0.144,2.73-0.193  c-0.02,35.739,0.043,71.483-0.035,107.223c-5.44-0.294-10.905,0.445-16.089,2.126c-3.281-8.083-6.717-16.098-10.064-24.154  c-1.402-0.004-2.797-0.009-4.194-0.019c-11.977,29.366-23.79,58.801-35.72,88.187c-12.011-0.049-24.022-0.005-36.034-0.021  c-2.74-0.028-5.493,0.16-8.214-0.241c2.222-3.714,4.561-7.383,6.354-11.33c0.652-1.594,1.372-3.604,0.261-5.16  c-3.855-5.895-7.388-11.992-10.992-18.046c-2.657-4.421-4.875-9.335-5.141-14.553c-0.222-3.228,0.933-6.885,3.943-8.499  c4.305-2.411,9.276-3.185,13.813-5.048c6.677-2.451,12.557-7.162,15.988-13.438c4.357-8.146,8.001-16.703,10.46-25.618  c0.851-2.706,1.333-5.745,3.459-7.803c3.208-3.232,7.06-5.774,11.065-7.915c1.517-0.686,3.145-1.656,4.87-1.387  c1.985,1.016,3.319,2.923,4.527,4.735c1.179,1.986,2.391,4.18,2.333,6.552c-0.764,3.88-2.581,7.696-5.672,10.257  c-2.387,1.973-4.905,3.9-7.857,4.943c-2.338,0.87-4.604,1.904-6.866,2.953c1.411,4.565,3.242,8.992,4.807,13.505  c2.817-0.948,5.823-2.625,6.804-5.625c0.416-2.039,0.454-4.232,1.633-6.034c3.846-6.243,9.828-10.775,15.988-14.568  c1.764-0.846,2.053-2.996,1.232-4.624c-2.595-5.397-6.054-10.707-6.532-16.819c1.101,0.354,2.188,0.755,3.237,1.257  c5.334,2.566,10.634,5.199,15.925,7.861c2.116,1.159,4.373,2.478,5.547,4.677c0.855,2.218,0.449,4.662,0.333,6.978  c-0.237,0.637-0.488,1.274-0.729,1.913c0.87,0.004,1.744,0,2.623,0.034c3.977,0.507,7.924,1.236,11.891,1.811  c-0.049-4.072-0.324-8.566-2.976-11.885c-1.305-1.672-3.557-1.856-5.296-2.851c-1.333-0.754-2.647-1.547-4.035-2.193  c-8.421-3.769-16.456-8.654-23.085-15.114c-2.252-2.227-4.615-4.865-7.987-5.131c-5.194-0.42-10.229,1.305-15.312,2.087  c-3.695,0.401-7.421,0.188-11.126,0.059c-2.817-0.241-5.653-0.232-8.455-0.581c-1.88-1.3-3.262-3.218-5.2-4.46  c-3.092-2.45-6.943-3.55-10.276-5.589c-3.363-2.001-6.909-3.929-9.504-6.929c-1.261-1.638-2.658-3.165-4.059-4.682  c1.546-0.121,3.015-0.588,4.44-1.174c0.72-0.411,1.299,0.407,1.86,0.74c3.319,2.778,6.62,5.575,9.953,8.334  c1.75,1.464,2.89,3.464,4.238,5.267c1.561-0.654,3.043-1.489,4.3-2.629c-0.89-0.377-2.155-0.435-2.445-1.542  c-0.928-2.372-3.43-3.456-4.851-5.46c0.986,0.064,2.218-0.309,3.025,0.469c1.144,0.952,2.231,1.977,3.367,2.943  c1.217,0.995,1.662,2.57,2.295,3.946c1.522-2.58,3.46-4.903,4.948-7.503c0.545-4.17-1.914-7.822-3.957-11.229  c-3.551-6.126-7.688-11.915-10.804-18.288c-1.439-2.84-2.952-5.648-4.198-8.58c12.224-9.384,24.642-18.521,36.73-28.077  c-15.452,6.556-30.956,12.987-46.422,19.509c-1.725-2.815-3.44-5.719-5.866-8.001c-0.783-0.763-2.242-1.455-3.072-0.381  c-2.034,2.382-2.566,5.58-3.547,8.47c-0.144,0.618-0.744,0.931-1.184,1.319c-4.565,3.251-8.417,7.445-11.484,12.117  c-4.325,5.474-7.842,11.93-8.402,18.994c-0.188,4.826-0.251,9.701,0.531,14.485c1.27,8.604,4.392,16.771,7.039,25.019  c1.784,5.682,4.069,11.44,3.542,17.519c-0.709,10.678-5.889,20.573-12.542,28.763c-5.426,6.604-12.162,12.301-20.042,15.742  c-3.125,1.366-6.232,2.772-9.378,4.091c-1.29,0.58-2.734,0.454-4.087,0.778c-4.416,1-8.397,3.697-11.04,7.364  c-2.382,3.188-3.745,6.991-4.721,10.818c-1.053,4.155-1.904,8.412-1.836,12.721c0.942-0.275,1.879-0.565,2.812-0.859  c-0.111,3.961-0.203,7.943,0.324,11.881c0.57,4.812,3.286,9.011,6.232,12.721c0.116-0.309,0.348-0.927,0.464-1.236  c1.633,1.966,3.333,3.995,5.851,4.836c0.034-0.439,0.111-1.323,0.149-1.764c1.725,1.739,3.755,3.17,6.064,4.02  c-1.106,0.236-2.237,0.373-3.367,0.378c-13.693-0.049-27.391-0.005-41.088-0.021c-2.841-0.023-5.696,0.136-8.523-0.217  c4.638-4.204,8.441-9.595,9.721-15.81c1.662-7.537-0.624-15.476-4.865-21.77c11.992-3.557,23.327-10.49,30.478-20.94  c6.899-9.891,9.678-22.149,9.61-34.073c-0.063-5.276-0.686-10.553-2-15.669c-4.774-20.38-12.775-39.895-22.607-58.332  c-6.435-11.93-13.538-23.536-21.718-34.354c4.354-5.924,8.818-11.764,13.195-17.673c12.688,2.971,25.777,4.445,38.808,3.797  C90.157,43.463,106.972,39.111,122.042,31.279z"/>
<path fill="#808080" d="M312.247,18.104c3.205-1.358,6.185-3.166,9.229-4.827c11.001-0.198,22.017,0.019,33.023-0.106  c11.809,11.359,26.482,19.485,41.948,24.723c17.779,5.923,36.851,7.717,55.463,5.702c5.826-0.508,11.571-1.673,17.325-2.687  c4.488,5.957,9.171,11.764,13.591,17.775c-9.783,12.572-17.89,26.39-24.92,40.663c-8.476,17.332-14.93,35.678-18.801,54.587  c-1.826,10.042-1.946,20.477,0.339,30.455c2.024,8.75,6.266,17.089,12.735,23.39c7.064,6.961,16.331,11.348,25.907,13.643  c-0.237,0.759-0.493,1.513-0.855,2.229c-3.493,6.831-5.227,14.866-3.431,22.447c1.213,5.204,4.253,9.813,8.084,13.475  c-18.138-0.174-36.28,0.078-54.419-0.13c2.527-1.023,4.928-2.41,6.867-4.362c0.12,0.414,0.371,1.236,0.491,1.646  c2.291-0.994,4.001-2.811,5.493-4.754c0.209,0.237,0.629,0.715,0.842,0.958c2.444-3.397,4.934-6.968,5.769-11.146  c0.821-4.373,0.562-8.847,0.541-13.268c0.919,0.285,1.841,0.575,2.77,0.865c0.125-4.933-0.967-9.794-2.272-14.52  c-1.405-4.98-3.961-9.846-8.146-13.03c-2.639-2.005-5.798-3.339-9.102-3.652c-1.875-0.175-3.537-1.087-5.228-1.822  c-4.394-1.971-8.944-3.682-12.974-6.358c-7.393-4.871-13.563-11.49-18.254-18.973c-4.044-6.49-7.012-13.81-7.624-21.482  c-0.339-3.904,0.3-7.837,1.512-11.543c2.218-7.503,4.973-14.843,7.107-22.371c1.715-6.096,2.647-12.412,2.716-18.742  c-0.01-4.246-0.45-8.561-2.015-12.542c-1.615-4.488-4.431-8.383-7.263-12.175c-3.15-4.678-7.185-8.741-11.837-11.935  c-1.059-3.106-1.619-6.571-3.809-9.141c-0.782-0.942-2.106-0.333-2.83,0.353c-2.566,2.242-4.218,5.286-6.049,8.108  c-10.32-4.358-20.662-8.664-30.986-13.017c-5.044-2.024-9.978-4.319-15.073-6.213c6.71,5.416,13.707,10.455,20.523,15.736  c5.296,3.967,10.505,8.044,15.829,11.964c-1.111,3.062-2.794,5.87-4.233,8.783c-3.831,8.016-9.556,14.988-12.996,23.206  c-0.798,2.141-2.024,4.445-1.396,6.771c1.366,2.406,3.14,4.551,4.628,6.884c0.898-2.942,3.296-4.918,5.585-6.784  c0.841-0.724,2.035-0.488,3.049-0.627c-0.864,1.343-2.106,2.353-3.275,3.407c-1.392,1.164-1.556,3.608-3.739,3.691  c1.102,1.3,2.604,2.129,4.28,2.419c1.392-2.067,2.812-4.168,4.818-5.696c3.511-2.778,6.772-5.889,10.387-8.537  c1.788,0.415,3.479,1.227,5.335,1.406c-2.832,2.086-4.445,5.391-7.354,7.392c-3.758,2.701-7.798,5.034-12.035,6.904  c-3.237,1.507-6.136,3.695-8.639,6.237c-0.436,0.353-0.797,0.884-1.368,1.004c-4.991,0.571-10.021,0.793-15.046,0.797  c-6.705,0.208-13.087-2.976-19.814-2.348c-4.334,0.494-6.875,4.421-9.947,7.036c-4.223,3.816-9.039,6.904-13.969,9.731  c-3.43,1.985-7.185,3.333-10.586,5.376c-1.994,1.266-4.735,1.407-6.126,3.533c-2.335,3.309-2.633,7.551-2.672,11.474  c4.59-0.686,9.171-1.434,13.755-2.15c-0.081-2.493-0.333-5,0-7.483c0.494-2.252,2.503-3.716,4.35-4.875  c3.015-1.764,6.228-3.166,9.329-4.769c3.782-1.773,7.421-3.904,11.393-5.243c-0.454,5.943-3.711,11.146-6.333,16.345  c-0.507,1.106-0.948,2.431-0.469,3.624c0.767,1.189,2.082,1.847,3.231,2.614c3.716,2.267,7.209,4.938,10.166,8.146  c1.807,1.973,3.633,4.016,4.696,6.508c0.787,1.807,0.56,3.89,1.377,5.692c1.289,2.488,3.908,3.831,6.43,4.768  c1.722-4.464,3.272-8.991,4.935-13.475c-2.354-1.15-4.76-2.184-7.209-3.102c-2.981-1.087-5.508-3.073-7.909-5.098  c-2.619-2.189-4.166-5.387-5.049-8.619c-0.885-2.89,0.656-5.754,2.13-8.157c1.246-1.802,2.591-3.812,4.73-4.604  c1.859,0.078,3.557,0.961,5.174,1.802c3.648,2.011,7.138,4.358,10.127,7.272c2.938,2.721,3.194,6.972,4.475,10.542  c2.021,6.74,4.73,13.262,7.885,19.548c2.421,5.402,6.069,10.374,11.095,13.616c5.067,3.484,11.146,4.856,16.882,6.822  c2.392,0.865,4.956,1.961,6.349,4.224c1.517,2.497,1.434,5.57,1.058,8.367c-0.792,4.595-2.89,8.837-5.271,12.794  c-3.493,5.832-6.9,11.721-10.639,17.404c-1.136,1.507-0.42,3.469,0.223,5.024c1.845,4.166,4.381,7.963,6.643,11.901  c-30.937-0.006-61.875-0.03-92.815,0.015c1.963-10.756,7.06-21.453,16.112-27.971c0.896,2.676,1.683,5.383,2.354,8.116  c1.934,0.035,3.866,0.039,5.804,0.03c-0.294-4-0.755-7.992-1.15-11.988c7.268-2.638,15.476-2.695,22.771-0.121  c6.513,2.32,11.887,7.19,15.452,13.051c2.555,4.194,4.383,8.785,5.773,13.486c0.247,0.511,0.328,1.525,1.164,1.338  c1.218,0.071,2.436,0.022,3.658,0.009c-0.474-12.374-0.973-24.748-1.455-37.116c-1.319-0.011-2.629-0.011-3.942-0.005  c-0.695,1.57-1.421,3.319-3.024,4.17c-1.72,1.131-3.895,1.039-5.804,0.522c-5.295-1.417-10.503-3.256-15.948-4.025  c-6.445-1.074-13.021-0.73-19.457,0.155c-0.875-8.668-1.716-17.336-2.541-26.01c-1.687-0.047-3.377-0.053-5.063-0.028  c-0.648,2.16-1.145,4.609-2.953,6.132c-1.912,1.3-4.445,1.101-6.556,0.439c-7.794-2.469-15.395-6.092-23.68-6.537  c0.078-35.74,0.015-71.484,0.035-107.223c1.193-0.03,2.386,0.029,3.579,0.078c-0.058-10.132-0.333-20.259-0.545-30.391  c-1.025,0.106-2.039,0.227-3.064,0.285c0.059-8.794,0.024-17.587,0.02-26.381C272.28,29.631,293.273,26.572,312.247,18.104z"/>
<path d="M139.759,59.533c15.466-6.522,30.971-12.953,46.422-19.509c-12.088,9.556-24.506,18.693-36.73,28.077  c1.247,2.932,2.759,5.74,4.198,8.58c3.117,6.373,7.253,12.161,10.804,18.288c2.043,3.407,4.502,7.059,3.957,11.229  c-1.488,2.6-3.426,4.924-4.948,7.503c-0.633-1.376-1.078-2.951-2.295-3.946c-1.136-0.966-2.223-1.991-3.367-2.943  c-0.808-0.778-2.04-0.405-3.025-0.469c1.421,2.005,3.923,3.088,4.851,5.46c0.291,1.106,1.556,1.165,2.445,1.542  c-1.257,1.14-2.74,1.975-4.3,2.629c-1.348-1.803-2.488-3.803-4.238-5.267c-3.333-2.76-6.634-5.557-9.953-8.334  c-0.561-0.333-1.14-1.151-1.86-0.74c-1.425,0.586-2.895,1.054-4.44,1.174c1.401,1.517,2.797,3.044,4.059,4.682  c2.595,3,6.141,4.928,9.504,6.929c3.333,2.039,7.184,3.14,10.276,5.589c1.938,1.242,3.319,3.16,5.2,4.46  c2.802,0.349,5.638,0.339,8.455,0.581c-1.561-0.059-3.117,0.058-4.658,0.217c-1.387-0.034-2.768-0.111-4.15-0.208  c-2.914-3.222-6.397-6.001-10.407-7.735c-3.672-1.59-7.542-2.702-11.466-3.475c-2.392-3.285-3.943-7.155-6.701-10.166  c-0.797-1.077-2.203-1.039-3.228-0.319c-0.222-1.483,0.619-2.966,2.291-2.808c2.953,0.29,5.904,0.75,8.885,0.45  c4.112,4.783,9.021,8.924,12.441,14.272c1.203-0.333,2.406-0.806,3.122-1.897c-0.319-0.102-0.957-0.305-1.276-0.407  c-0.739-2.715-3.325-4.106-5.073-6.098c0.039-0.232,0.116-0.696,0.154-0.927c0.831-0.111,1.663-0.217,2.503-0.315  c2.169,2.267,5.271,3.793,6.358,6.925c1.503-2.106,2.88-4.306,4.474-6.35c0.068-2.604-0.531-5.212-1.908-7.436  c-5.886-10.146-12.297-19.964-18.544-29.884c8.267-6.188,16.442-12.494,24.685-18.712c2.082-1.6,4.212-3.135,6.18-4.88  c-12.022,6.335-23.826,13.094-35.774,19.573c-2.889-3.947-5.726-7.942-8.957-11.619c-0.546-0.644-1.281-1.068-1.991-1.488  c-1.135,2-2.131,4.078-2.86,6.262c-0.377,0.947-0.613,2.073-1.56,2.628c-8.209,5.614-14.78,14.103-16.82,23.959  c-1.618,8.142-0.4,16.592,1.997,24.453c3.425,11.035,8.783,21.525,10.465,33.063c0.88,6.639,1.749,13.592-0.333,20.095  c-1.474,4.769-4.716,8.706-8.175,12.19c-3.425,3.349-7.088,6.445-10.74,9.542c-7.219,5.725-15.64,9.712-24.255,12.852  c-3.063,1.151-6.233,2.049-9.141,3.561c-2.972,1.556-5.426,3.957-7.349,6.678c-1.898,2.697-3.653,5.542-4.73,8.672  c-1.266,3.657-1.903,7.5-2.203,11.349c0.319-0.149,0.952-0.449,1.266-0.599c-0.299,4.132-0.111,8.331,0.628,12.403  c1.135,3.852,3.267,7.315,4.711,11.05c0.29-0.057,0.865-0.164,1.155-0.217c1.59,1.406,3.199,2.787,4.821,4.161  c0.305-0.388,0.609-0.774,0.918-1.15c3.923,2.086,7.885,4.111,11.852,6.115c0.043-2,0.425-4.025,1.561-5.706  c2.295-3.546,4.72-7.016,6.812-10.687c0.594-1.035,0.952-2.638-0.256-3.368c-5.416-3.987-10.924-7.852-16.364-11.805  c0.58-0.111,1.159-0.217,1.739-0.324c-1.083-1.385-2.527-2.637-2.865-4.449c-0.658-2.721-0.792-5.536-0.952-8.319  c0.507-0.121,1.019-0.237,1.532-0.353c0.015-3.199-0.55-6.993,1.667-9.616c2.644-1.329,5.818-0.759,8.601-0.164  c-0.038,4.711,0.855,9.431,2.696,13.775c1.971,4.707,5.194,8.721,7.59,13.194c1.58,2.915,2.542,6.446,1.459,9.698  c-1.614,4.715-5.189,8.363-7.508,12.707c-1.425,2.503-1.353,5.582-0.681,8.306c1.43,4.503,5.208,7.731,7.006,12.055  c2.043,4.643,4.691,9.068,5.995,14.008c1.136,3.955-0.575,7.942-1.676,11.711c4.701,1.488,9.403,2.972,14.108,4.449  c-0.991-4.078-3.261-7.687-5.6-11.117c-2.479-3.701-3.305-8.28-5.962-11.876c-3.677-4.498-5.499-10.2-6.513-15.843  c-0.657-1.99,1.256-3.668,3.034-4.045c2.464-0.637,4.871,0.479,7.281,0.793c2.653-0.41,4.488-2.613,6.252-4.44  c3.677,1.575,7.653,3.691,9.263,7.59c0.546,1.016,0.826,2.335,1.898,2.943c1.107-0.396,1.044-1.956,0.261-2.647  c-3.807-4.74-7.73-9.388-11.349-14.278c0.082-0.411,0.242-1.242,0.319-1.652c-1.71-0.396-3.426-0.792-5.165-1.063  c-1.508,1.329-3.117,2.556-4.557,3.967c-2.778,2.841-4.977,6.224-7.914,8.915c0.647-2.025,1.894-3.764,3.039-5.523  c1.981-2.938,4.117-5.817,6.833-8.127c3.836-3.285,7.161-7.13,10.074-11.248c2.189-3.14,4.107-6.552,5.025-10.302  c1.474-6.053,2.479-12.233,4.291-18.205c0.739-2.261,1.502-4.595,2.972-6.503c0.942-1.275,2.527-1.739,3.952-2.248  c8.276-2.695,16.799-4.854,24.612-8.798c3.426-1.685,6.393-4.208,8.881-7.087c3.358-4.016,4.711-9.185,7.04-13.784  c2.827-5.673,4.793-11.713,7.088-17.607c1.261-3.386,3.981-5.918,6.711-8.151c3.464-2.681,7.126-5.333,11.402-6.531  c3.098,3.271,6.103,6.865,7.552,11.199c0.812,2.257-0.082,4.609-0.803,6.759c-0.84,2.436-2.256,4.664-4.141,6.431  c-3.7,3.475-8.204,5.987-12.915,7.828c1.067,3.145,2.319,6.218,3.416,9.349c2.333-0.733,3.812-2.85,5.025-4.836  c1.928-3.444,3.87-6.919,6.373-9.987c2.841-3.416,7.3-4.865,10.345-8.041c1.266-1.242,1.082-3.237,0.531-4.764  c-1.111-2.647-2.715-5.069-3.628-7.797c-1.696-4.412-2.71-9.277-5.677-13.055c-5.054-1.092-10.263-0.092-15.379-0.107  c-4.112,0.537-8.084-0.835-12.089-1.507c-2.484-0.56-5.083-0.686-7.44-1.725c3.802,0.126,7.502,1.184,11.311,1.28  c7.706,0.706,15.591-2.141,23.153,0.349c2.667,0.763,4.45,3.231,4.875,5.909c7.552,4.116,15.486,7.498,23.091,11.513  c1.169,0.569,1.86,1.739,2.242,2.938c0.845,2.517,0.729,5.242,0.411,7.846c-0.116-0.086-0.338-0.256-0.454-0.337  c0.116-2.315,0.522-4.76-0.333-6.978c-1.174-2.199-3.431-3.518-5.547-4.677c-5.291-2.663-10.591-5.295-15.925-7.861  c-1.048-0.502-2.136-0.903-3.237-1.257c0.478,6.112,3.937,11.422,6.532,16.819c0.821,1.628,0.532,3.778-1.232,4.624  c-6.16,3.793-12.142,8.325-15.988,14.568c-1.179,1.802-1.217,3.995-1.633,6.034c-0.981,3-3.986,4.677-6.804,5.625  c-1.565-4.513-3.396-8.939-4.807-13.505c2.261-1.048,4.527-2.083,6.866-2.953c2.952-1.042,5.47-2.97,7.857-4.943  c3.091-2.561,4.908-6.377,5.672-10.257c0.058-2.372-1.155-4.566-2.333-6.552c-1.208-1.812-2.542-3.72-4.527-4.735  c-1.725-0.27-3.353,0.701-4.87,1.387c-4.005,2.141-7.857,4.683-11.065,7.915c-2.126,2.058-2.609,5.097-3.459,7.803  c-2.459,8.915-6.103,17.472-10.46,25.618c-3.431,6.275-9.311,10.986-15.988,13.438c-4.538,1.864-9.509,2.638-13.813,5.048  c-3.01,1.613-4.165,5.271-3.943,8.499c0.266,5.218,2.483,10.132,5.141,14.553c3.604,6.054,7.137,12.152,10.992,18.046  c1.111,1.556,0.391,3.565-0.261,5.16c-1.792,3.947-4.131,7.616-6.354,11.33c-1.86,3.247-3.808,6.503-4.933,10.093  c-1.106,4.064,0.556,8.186,2.73,11.567c1.947,3.296,4.914,5.783,7.108,8.891c2.294,3.13,4.807,6.111,7.657,8.755  c2.131,1.98,3.464,4.644,4.17,7.436c-5.054-0.904-10.108-1.816-15.157-2.764c0.652-3.188,0.014-6.552-1.832-9.237  c-1.608-2.508-3.672-4.683-5.792-6.756c-2.116-2.275-5.374-2.836-7.663-4.884c-1.807-1.392-3.396-3.72-2.503-6.077  c1.734-5.602,4.547-10.911,5.257-16.806c0.411-3.488-0.135-7.169-2.165-10.103c-3.252-4.846-7.924-8.591-12.853-11.63  c-3.077,3.508-6.556,6.649-9.566,10.224c1.802,0.42,3.614,0.816,5.431,1.174c0.058,0.884-0.208,1.903,0.435,2.644  c1.821,2.672,3.851,5.188,5.88,7.705c2.131,2.91,5.02,5.355,6.305,8.809c-0.981,0.357-2.135,0.735-3.029-0.044  c-1.507-1.295-1.827-3.473-3.29-4.812c-1.899-1.715-4.503-2.31-6.982-2.536c-2.299,1.613-5.155,4.082-8.097,2.57  c-2.749-1.175-5.73,0.01-8.34,0.999c0.74,4.194,1.841,8.364,3.861,12.138c0.962,1.886,2.334,3.512,3.464,5.291  c1.966,3.193,2.942,6.88,4.793,10.132c2.706,4.246,5.986,8.485,6.508,13.668c-5.436-1.608-10.847-3.295-16.268-4.941  c0.681-2.44,1.444-4.866,2-7.34c0.619-2.769-0.416-5.528-1.469-8.05c-3.136-7.093-8.064-13.16-12.209-19.659  c-1.17-1.514-1.87-3.654-3.808-4.354c-1.787-0.744-3.585-1.455-5.363-2.219c-2.309-0.85-4.339-2.28-6.064-4.02  c-0.039,0.44-0.116,1.324-0.149,1.764c-2.518-0.841-4.218-2.87-5.851-4.836c-0.116,0.309-0.348,0.927-0.464,1.236  c-2.947-3.71-5.663-7.909-6.232-12.721c-0.527-3.938-0.435-7.919-0.324-11.881c-0.933,0.294-1.87,0.584-2.812,0.859  c-0.068-4.31,0.783-8.566,1.836-12.721c0.976-3.827,2.339-7.629,4.721-10.818c2.643-3.667,6.624-6.364,11.04-7.364  c1.353-0.324,2.797-0.198,4.087-0.778c3.146-1.319,6.253-2.725,9.378-4.091c7.88-3.441,14.616-9.137,20.042-15.742  c6.653-8.189,11.833-18.084,12.542-28.763c0.527-6.079-1.758-11.837-3.542-17.519c-2.647-8.248-5.769-16.414-7.039-25.019  c-0.783-4.784-0.72-9.659-0.531-14.485c0.561-7.064,4.078-13.52,8.402-18.994c3.067-4.671,6.918-8.866,11.484-12.117  c0.44-0.388,1.04-0.701,1.184-1.319c0.981-2.89,1.513-6.088,3.547-8.47c0.831-1.074,2.29-0.382,3.072,0.381  C136.319,53.814,138.034,56.718,139.759,59.533z"/>
<path d="M318.114,40.324c5.096,1.894,10.029,4.189,15.073,6.213c10.324,4.353,20.666,8.659,30.986,13.017  c1.831-2.822,3.482-5.866,6.049-8.108c0.724-0.686,2.048-1.295,2.83-0.353c2.189,2.57,2.75,6.035,3.809,9.141  c4.652,3.194,8.687,7.257,11.837,11.935c2.832,3.792,5.647,7.687,7.263,12.175c1.564,3.981,2.005,8.297,2.015,12.542  c-0.068,6.33-1.001,12.646-2.716,18.742c-2.135,7.528-4.89,14.868-7.107,22.371c-1.212,3.706-1.851,7.639-1.512,11.543  c0.612,7.672,3.58,14.992,7.624,21.482c4.69,7.483,10.861,14.103,18.254,18.973c4.029,2.676,8.58,4.387,12.974,6.358  c1.69,0.734,3.353,1.647,5.228,1.822c3.304,0.313,6.463,1.647,9.102,3.652c4.185,3.184,6.74,8.05,8.146,13.03  c1.306,4.726,2.397,9.587,2.272,14.52c-0.929-0.29-1.851-0.58-2.77-0.865c0.021,4.421,0.28,8.895-0.541,13.268  c-0.835,4.178-3.324,7.749-5.769,11.146c-0.213-0.243-0.633-0.72-0.842-0.958c-1.492,1.943-3.202,3.76-5.493,4.754  c-0.12-0.41-0.371-1.232-0.491-1.646c-1.939,1.952-4.34,3.339-6.867,4.362c-1.845,0.72-3.74,1.344-5.493,2.257  c-1.444,1.483-2.338,3.406-3.561,5.067c-3.933,6.083-8.542,11.81-11.433,18.511c-0.989,2.445-2.067,5.103-1.492,7.784  c0.574,2.551,1.405,5.034,2.005,7.58c-5.435,1.561-10.809,3.339-16.243,4.886c0.541-5.267,3.937-9.544,6.639-13.887  c1.918-3.484,2.962-7.421,5.193-10.745c3.827-4.77,6.005-10.746,6.653-16.791c-2.146-0.598-4.306-1.478-6.576-1.274  c-1.492,0.174-2.836,1.421-4.387,0.898c-2.005-0.546-3.695-1.807-5.354-3.006c-2.372,0.232-4.832,0.803-6.72,2.34  c-1.707,1.304-1.896,3.738-3.558,5.076c-0.778,0.401-1.681,0.422-2.521,0.565c-0.088-1.018-0.073-2.096,0.624-2.917  c1.589-2.122,3.309-4.137,4.985-6.185c2.339-2.739,4.449-5.663,6.562-8.572c-0.039-0.686-0.067-1.362-0.102-2.039  c1.879-0.362,3.754-0.772,5.619-1.217c-3.199-3.431-6.533-6.735-9.678-10.215c-5.025,3.156-9.866,6.953-13.079,12.022  c-2.141,3.305-2.44,7.469-1.69,11.257c0.908,5.31,3.482,10.117,5.014,15.244c0.614,1.624,0.083,3.44-1.062,4.691  c-2.082,2.652-5.474,3.528-8.117,5.411c-2.852,2.638-5.643,5.484-7.518,8.914c-1.213,2.416-1.88,5.296-0.918,7.915  c-5.103,1.004-10.229,1.897-15.346,2.82c0.498-1.656,1.044-3.328,2.015-4.777c1.393-2.247,3.523-3.86,5.276-5.798  c2.909-3.073,5.093-6.745,8.04-9.779c3.45-3.957,6.817-8.717,6.754-14.186c-0.569-4.311-2.994-8.06-5.097-11.77  c-2.262-3.938-4.798-7.735-6.643-11.901c-0.643-1.555-1.358-3.517-0.223-5.024c3.738-5.683,7.146-11.572,10.639-17.404  c2.382-3.957,4.479-8.199,5.271-12.794c0.376-2.797,0.459-5.87-1.058-8.367c-1.393-2.263-3.957-3.359-6.349-4.224  c-5.735-1.966-11.814-3.338-16.882-6.822c-5.025-3.243-8.674-8.214-11.095-13.616c-3.154-6.286-5.864-12.808-7.885-19.548  c-1.28-3.571-1.537-7.822-4.475-10.542c-2.989-2.914-6.479-5.261-10.127-7.272c-1.617-0.84-3.314-1.724-5.174-1.802  c-2.14,0.792-3.484,2.802-4.73,4.604c-1.474,2.402-3.015,5.267-2.13,8.157c0.883,3.232,2.43,6.43,5.049,8.619  c2.401,2.024,4.928,4.01,7.909,5.098c2.449,0.917,4.855,1.952,7.209,3.102c-1.662,4.484-3.213,9.011-4.935,13.475  c-2.521-0.937-5.141-2.28-6.43-4.768c-0.817-1.803-0.59-3.885-1.377-5.692c-1.063-2.493-2.89-4.536-4.696-6.508  c-2.957-3.208-6.45-5.879-10.166-8.146c-1.149-0.767-2.465-1.425-3.231-2.614c-0.479-1.193-0.038-2.518,0.469-3.624  c2.622-5.199,5.879-10.402,6.333-16.345c-3.972,1.338-7.61,3.469-11.393,5.243c-3.102,1.604-6.314,3.005-9.329,4.769  c-1.847,1.159-3.855,2.623-4.35,4.875c-0.333,2.483-0.081,4.99,0,7.483c-4.584,0.716-9.165,1.464-13.755,2.15  c0.039-3.923,0.337-8.165,2.672-11.474c1.391-2.125,4.132-2.267,6.126-3.533c3.401-2.043,7.156-3.392,10.586-5.376  c4.93-2.827,9.746-5.915,13.969-9.731c3.072-2.615,5.613-6.542,9.947-7.036c6.728-0.627,13.109,2.557,19.814,2.348  c5.025-0.004,10.055-0.227,15.046-0.797c0.571-0.121,0.933-0.652,1.368-1.004c2.503-2.542,5.401-4.73,8.639-6.237  c4.237-1.871,8.277-4.204,12.035-6.904c2.909-2.001,4.522-5.306,7.354-7.392c-1.856-0.179-3.547-0.991-5.335-1.406  c-3.614,2.648-6.876,5.759-10.387,8.537c-2.007,1.528-3.427,3.629-4.818,5.696c-1.677-0.29-3.179-1.12-4.28-2.419  c2.184-0.083,2.348-2.527,3.739-3.691c1.169-1.054,2.411-2.063,3.275-3.407c-1.014,0.14-2.208-0.097-3.049,0.627  c-2.289,1.865-4.687,3.842-5.585,6.784c-1.488-2.333-3.262-4.478-4.628-6.884c-0.628-2.325,0.599-4.63,1.396-6.771  c3.44-8.218,9.165-15.19,12.996-23.206c1.439-2.914,3.122-5.721,4.233-8.783c-5.324-3.919-10.533-7.997-15.829-11.964  C331.821,50.779,324.824,45.74,318.114,40.324z"/>
<path fill="#CCCCCC" d="M325.337,45.28c1.57,0.59,3,1.484,4.474,2.286c10.476,5.789,20.975,11.534,31.444,17.331  c2.41-3.289,4.794-6.605,7.377-9.759c1.063-1.223,2.045-2.599,3.527-3.353c1.691,2.599,2.639,5.576,3.764,8.44  c7.659,4.982,13.925,12.437,16.694,21.216c2.105,6.577,1.874,13.649,0.652,20.37c-1.764,9.508-6.007,18.278-9.031,27.4  c-3.028,8.992-4.677,18.548-3.991,28.042c0.596,7.078,4.899,13.132,9.953,17.839c3.311,3.149,6.765,6.146,10.277,9.064  c7.832,6.169,17.056,10.262,26.415,13.534c3.759,1.304,7.691,2.623,10.629,5.44c6.45,6.107,9.91,14.843,10.398,23.632  c-0.3-0.034-0.899-0.102-1.204-0.136c0.107,5.523,0.387,11.441-2.333,16.456c-1.062,2.45-2.305,4.828-3.188,7.349l-0.314-0.624  l-0.531-0.115c-1.749,1.246-3.257,2.792-4.934,4.125c-0.386-0.298-0.7-0.662-0.942-1.082c-3.941,2.054-7.933,4.01-11.818,6.17  c-0.148-1.928-0.454-3.913-1.526-5.565c-2.305-3.643-4.821-7.157-6.947-10.905c-0.575-1.029-0.899-2.581,0.256-3.339  c5.397-3.991,10.952-7.775,16.312-11.819c-0.387-0.072-1.165-0.217-1.557-0.285c0.919-1.492,2.455-2.667,2.749-4.479  c0.6-2.749,0.914-5.566,0.886-8.383c-0.518-0.096-1.029-0.192-1.532-0.285c0.01-3.222,0.652-7.049-1.613-9.697  c-2.663-1.146-5.707-0.739-8.46-0.141c-0.16,5.118-1.121,10.268-3.286,14.931c-2.175,4.468-5.224,8.44-7.518,12.842  c-1.401,2.788-2.029,6.126-1.006,9.146c1.851,5.286,6.271,9.19,8.263,14.402c0.622,2.861,0.42,6.036-1.059,8.621  c-1.768,3.468-4.6,6.294-6.098,9.908c-1.986,4.301-4.261,8.495-5.745,13.008c-1.361,4.213,0.011,8.653,1.556,12.61  c-4.729,1.513-9.469,2.982-14.2,4.494c0.963-4.441,3.673-8.224,6.107-11.968c2.267-3.904,3.199-8.559,6.185-12.037  c3.103-4.049,4.557-9.067,5.609-13.986c0.122-1.049,0.531-2.285-0.235-3.184c-1.35-1.914-3.991-2.146-6.113-1.736  c-1.488,0.18-2.923,1.02-4.439,0.726c-2.348-0.729-3.996-2.647-5.653-4.349c-2.885,1.252-5.783,2.759-7.846,5.193  c-1.285,1.494-1.638,3.514-2.779,5.089c-1.141,0.618-1.372-0.899-1.449-1.691c3.978-4.726,7.918-9.499,11.615-14.451  c0.513-0.633,0.111-1.479,0.145-2.193c1.687-0.382,3.377-0.75,5.084-1.059c1.864,1.59,3.841,3.073,5.483,4.915  c2.286,2.613,4.431,5.348,6.774,7.918c0.004-0.482,0.019-0.999-0.286-1.4c-1.894-3.305-4.006-6.499-6.503-9.378  c-2.237-2.609-5.112-4.562-7.349-7.175c-4.77-5.334-9.397-11.291-10.899-18.446c-1.296-5.668-2.282-11.417-3.997-16.983  c-0.744-2.276-1.536-4.609-3.009-6.533c-0.952-1.271-2.548-1.696-3.967-2.203c-8.07-2.638-16.365-4.745-24.01-8.508  c-5.836-2.856-10.837-7.716-13.21-13.829c-1.912-4.783-4.377-9.32-6.228-14.122c-1.498-3.702-2.777-7.48-4.267-11.182  c-1.522-3.831-4.884-6.469-8.034-8.928c-3.077-2.184-6.262-4.464-9.991-5.344c-3.349,3.754-7.025,7.788-7.833,12.938  c0.436,4.185,2.082,8.466,5.238,11.37c3.726,3.517,8.267,6.064,13.03,7.884c-1.14,3.092-2.343,6.162-3.46,9.263  c-2.169-0.426-3.487-2.45-4.671-4.142c-2.335-4.014-4.474-8.237-7.703-11.638c-2.844-2.735-6.695-4.179-9.422-7.06  c-1.163-1.116-1.076-2.898-0.656-4.329c0.807-2.146,2.094-4.063,3.002-6.166c2.177-5.078,3.129-10.812,6.599-15.253  c6.439-0.763,12.9,0.305,19.351,0.116c4.715-0.827,9.397-1.88,14.123-2.681c0.545,0.015,0.845-0.247,0.889-0.782  c-6.18,1.159-12.494,2.005-18.785,1.329c-4.842-0.546-9.837-1.02-14.611,0.27c-2.979,0.695-5.179,3.29-5.594,6.292  c-7.33,3.71-14.782,7.161-22.116,10.856c-0.916,0.479-1.936,0.957-2.443,1.913c-1.667,2.803-1.396,6.205-1.232,9.325  c-3.048,0.392-6.087,0.895-9.156,1.078c-1.366-3.03,0.309-6.257,1.773-8.905c1.541-3.049,4.918-4.291,7.797-5.71  c9.051-4.045,17.062-9.949,25.41-15.207c2.001-1.174,3.938-2.604,6.233-3.145c4.189-0.569,8.345,0.595,12.509,0.895  c6.953,0.396,13.91-0.102,20.845-0.546c2.463-2.788,5.421-5.155,8.69-6.924c4.137-2.039,8.591-3.391,13.104-4.276  c2.437-3.479,4.151-7.551,7.315-10.46c0.72-0.903,1.88-0.648,2.658,0.024c-0.082-0.769-0.154-1.532-0.241-2.295  c-1.132-0.473-2.354-0.803-3.572-0.473c-2.404,0.526-4.875,0.434-7.313,0.337c-4.166,4.778-8.997,9.007-12.538,14.296  c-1.111-0.371-2.242-0.807-3.011-1.729c0.318-0.155,0.957-0.464,1.275-0.618c0.541-2.406,2.692-3.716,4.377-5.276  c0.609-0.411,0.547-1.135,0.585-1.777c-0.854-0.088-1.715-0.247-2.574-0.175c-1.514,1.035-2.702,2.465-4.161,3.571  c-1.087,0.75-1.453,2.078-2.193,3.102c-1.271-1.232-2.054-2.855-3.126-4.247c-0.492-0.801-1.328-1.551-1.202-2.574  c0.235-2.653,1.496-5.078,2.54-7.485c5.199-10.151,11.828-19.476,17.747-29.207C346.001,61.031,335.6,53.249,325.337,45.28z"/>
<path fill="#CCCCCC" d="M142.682,64.868c11.949-6.479,23.752-13.238,35.774-19.573c-1.967,1.745-4.098,3.281-6.18,4.88  c-8.243,6.218-16.418,12.523-24.685,18.712c6.247,9.919,12.658,19.738,18.544,29.884c1.376,2.224,1.976,4.832,1.908,7.436  c-1.594,2.044-2.971,4.243-4.474,6.35c-1.087-3.131-4.189-4.658-6.358-6.925c-0.84,0.098-1.672,0.204-2.503,0.315  c-0.039,0.231-0.116,0.695-0.154,0.927c1.749,1.991,4.334,3.382,5.073,6.098c0.319,0.102,0.957,0.305,1.276,0.407  c-0.715,1.091-1.919,1.564-3.122,1.897c-3.421-5.348-8.33-9.489-12.441-14.272c-2.981,0.3-5.933-0.16-8.885-0.45  c-1.672-0.159-2.512,1.325-2.291,2.808c1.025-0.72,2.431-0.758,3.228,0.319c2.758,3.011,4.31,6.881,6.701,10.166  c3.923,0.773,7.794,1.885,11.466,3.475c4.01,1.734,7.493,4.513,10.407,7.735c1.382,0.096,2.763,0.173,4.15,0.208  c4.044,0.584,8.142,0.546,12.219,0.657c2.275,0.062,4.542-0.198,6.784-0.55c3.054-0.358,6.103-0.981,9.195-0.765  c1.995,0.059,3.725,1.18,5.407,2.141c9.122,5.551,17.688,12.124,27.521,16.428c2.459,1.247,5.256,2.295,6.909,4.634  c1.826,2.923,3.647,6.378,2.526,9.915c-2.976-0.266-5.967-0.561-8.899-1.151c-0.387,0.305-0.763,0.62-1.135,0.942  c0.671,0.266,1.357,0.518,2.058,0.75c-0.879-0.034-1.753-0.03-2.623-0.034c0.241-0.638,0.492-1.275,0.729-1.913  c0.116,0.081,0.338,0.251,0.454,0.337c0.318-2.604,0.435-5.329-0.411-7.846c-0.382-1.199-1.072-2.369-2.242-2.938  c-7.605-4.015-15.539-7.397-23.091-11.513c-0.425-2.678-2.208-5.146-4.875-5.909c-7.562-2.489-15.447,0.357-23.153-0.349  c-3.808-0.096-7.508-1.154-11.311-1.28c2.357,1.039,4.957,1.165,7.44,1.725c4.005,0.672,7.977,2.044,12.089,1.507  c5.116,0.015,10.325-0.985,15.379,0.107c2.966,3.778,3.981,8.644,5.677,13.055c0.913,2.729,2.518,5.15,3.628,7.797  c0.551,1.526,0.735,3.522-0.531,4.764c-3.045,3.175-7.504,4.625-10.345,8.041c-2.503,3.068-4.445,6.542-6.373,9.987  c-1.212,1.986-2.691,4.103-5.025,4.836c-1.097-3.13-2.349-6.204-3.416-9.349c4.711-1.841,9.214-4.353,12.915-7.828  c1.884-1.768,3.3-3.995,4.141-6.431c0.721-2.15,1.614-4.502,0.803-6.759c-1.45-4.334-4.455-7.928-7.552-11.199  c-4.276,1.198-7.938,3.85-11.402,6.531c-2.729,2.233-5.45,4.765-6.711,8.151c-2.295,5.895-4.262,11.934-7.088,17.607  c-2.329,4.6-3.682,9.769-7.04,13.784c-2.488,2.879-5.455,5.402-8.881,7.087c-7.812,3.943-16.335,6.103-24.612,8.798  c-1.425,0.508-3.01,0.972-3.952,2.248c-1.469,1.909-2.232,4.242-2.972,6.503c-1.812,5.971-2.816,12.152-4.291,18.205  c-0.918,3.75-2.836,7.162-5.025,10.302c-2.913,4.117-6.238,7.963-10.074,11.248c-2.715,2.31-4.851,5.189-6.833,8.127  c-1.145,1.76-2.391,3.498-3.039,5.523c2.938-2.691,5.136-6.074,7.914-8.915c1.44-1.411,3.049-2.638,4.557-3.967  c1.739,0.271,3.455,0.667,5.165,1.063c-0.078,0.411-0.237,1.242-0.319,1.652c3.619,4.89,7.542,9.538,11.349,14.278  c0.783,0.691,0.846,2.252-0.261,2.647c-1.072-0.608-1.352-1.928-1.898-2.943c-1.609-3.898-5.585-6.015-9.263-7.59  c-1.764,1.827-3.599,4.03-6.252,4.44c-2.411-0.314-4.817-1.43-7.281-0.793c-1.778,0.377-3.691,2.055-3.034,4.045  c1.015,5.643,2.836,11.345,6.513,15.843c2.657,3.596,3.483,8.175,5.962,11.876c2.338,3.431,4.609,7.039,5.6,11.117  c-4.706-1.478-9.407-2.961-14.108-4.449c1.102-3.769,2.812-7.756,1.676-11.711c-1.304-4.939-3.952-9.365-5.995-14.008  c-1.798-4.323-5.576-7.552-7.006-12.055c-0.671-2.725-0.744-5.803,0.681-8.306c2.319-4.343,5.895-7.992,7.508-12.707  c1.083-3.252,0.121-6.784-1.459-9.698c-2.396-4.474-5.619-8.488-7.59-13.194c-1.841-4.344-2.734-9.064-2.696-13.775  c-2.783-0.595-5.957-1.165-8.601,0.164c-2.217,2.623-1.652,6.417-1.667,9.616c-0.513,0.115-1.024,0.232-1.532,0.353  c0.16,2.783,0.294,5.599,0.952,8.319c0.338,1.812,1.783,3.064,2.865,4.449c-0.581,0.107-1.16,0.213-1.739,0.324  c5.44,3.953,10.948,7.818,16.364,11.805c1.208,0.729,0.85,2.333,0.256,3.368c-2.092,3.671-4.517,7.14-6.812,10.687  c-1.136,1.681-1.518,3.706-1.561,5.706c-3.967-2.004-7.929-4.029-11.852-6.115c-0.309,0.375-0.613,0.762-0.918,1.15  c-1.623-1.374-3.231-2.755-4.821-4.161c-0.29,0.053-0.865,0.16-1.155,0.217c-1.444-3.735-3.576-7.198-4.711-11.05  c-0.74-4.072-0.928-8.271-0.628-12.403c-0.314,0.15-0.947,0.45-1.266,0.599c0.3-3.85,0.938-7.692,2.203-11.349  c1.078-3.13,2.832-5.976,4.73-8.672c1.923-2.721,4.377-5.122,7.349-6.678c2.908-1.512,6.078-2.41,9.141-3.561  c8.615-3.14,17.036-7.127,24.255-12.852c3.652-3.098,7.315-6.194,10.74-9.542c3.459-3.484,6.702-7.421,8.175-12.19  c2.082-6.503,1.213-13.456,0.333-20.095c-1.682-11.538-7.04-22.028-10.465-33.063c-2.397-7.861-3.614-16.311-1.997-24.453  c2.04-9.856,8.61-18.346,16.82-23.959c0.947-0.556,1.183-1.681,1.56-2.628c0.729-2.184,1.725-4.262,2.86-6.262  c0.71,0.42,1.445,0.845,1.991,1.488C136.956,56.925,139.793,60.92,142.682,64.868z"/>
<path d="M248.364,55.896c1.078,0.024,2.16,0.057,3.242,0.038c1.025-0.058,2.039-0.179,3.064-0.285  c0.212,10.132,0.488,20.259,0.545,30.391c-1.193-0.049-2.386-0.107-3.579-0.078c-0.914,0.049-1.827,0.126-2.73,0.193  C248.842,76.068,248.519,65.983,248.364,55.896z"/>
<path d="M259.688,85.867c0.697-10.017,1.885-19.994,2.749-29.995c5.325,0.387,10.62,1.068,15.932,1.6  c-0.146,1.227-0.252,2.454-0.314,3.686c-3.18-0.571-6.335-1.368-9.581-1.44c-0.372,3.121-0.604,6.262-0.914,9.392  c3.122,0.376,6.258,0.706,9.408,0.629c-0.132,1.251-0.214,2.502-0.258,3.763c-3.066-0.744-6.217-1.135-9.362-1.304  c-0.542,3.72-0.851,7.484-1.083,11.233c3.194,0.179,6.388,0.349,9.586,0.281c-0.164,1.261-0.309,2.527-0.387,3.797  C270.203,86.992,264.946,86.402,259.688,85.867z"/>
<path d="M232.217,57.055c1.198-0.111,2.377-0.367,3.537-0.691c2.991,9.697,5.909,19.418,9.258,29  c-2.305,0.164-4.552,0.705-6.765,1.344c-1.633-6.648-3.648-13.196-5.629-19.743c-1.923,7.281-3.667,14.611-5.464,21.926  c-0.546,0.038-1.092,0.077-1.638,0.115c-4.034-5.855-8.339-11.523-12.465-17.312c0.062,6.668,0.84,13.335,1.84,19.931  c-1.318,0.087-2.619,0.314-3.855,0.778c-0.236-10.206-0.816-20.395-1.439-30.579c1.145-0.136,2.29-0.353,3.358-0.818  c4.479,6.146,8.861,12.371,13.5,18.4C228.453,71.979,230.555,64.568,232.217,57.055z"/>
<path d="M287.669,58.993c1.299,0.386,2.604,0.778,3.918,1.136c4.099,8.369,8.108,16.775,11.96,25.26  c2.076-6.503,3.738-13.132,5.672-19.68c1.024,0.373,2.058,0.706,3.106,1.02c-2.498,9.755-5.406,19.409-8.107,29.111  c-1.146-0.439-2.527-0.56-3.479-1.338c-4.088-8.568-7.64-17.423-12.225-25.748c-1.971,6.71-3.866,13.451-5.677,20.206  c-1.117-0.305-2.228-0.624-3.334-0.962C282.248,78.339,285.012,68.68,287.669,58.993z"/>
<path d="M183.147,71.371c0.995-0.285,1.928-0.749,2.792-1.329c7.716,7.577,15.321,15.272,22.931,22.96  c-2.348,0.735-4.484,1.952-6.658,3.073c-1.885-2.261-3.784-4.519-5.866-6.601c-0.518-0.599-1.286-0.019-1.852,0.169  c-2.517,1.236-5.054,2.425-7.58,3.643c0.348,3.188,0.449,6.403,0.976,9.572c-1.256,0.531-2.493,1.11-3.715,1.709  C183.939,93.5,183.398,82.436,183.147,71.371z"/>
<path d="M322.428,73.696c3.377-1.029,7.034,0.304,9.682,2.454c1.137,1.059,2.495,2.174,2.823,3.765  c-1.025,1.14-1.98,2.502-3.46,3.062c-0.039-1.687-0.115-3.55-1.344-4.851c-1.347-1.372-3.459-2.295-5.362-1.638  c-1.865,0.956-3.059,3.401-2.116,5.397c1.367,3.275,4.121,5.773,5.325,9.146c1.897,4.638-1.001,10.552-5.872,11.808  c-5.378,1.276-11.204-1.638-13.959-6.314c1.33-1.455,2.532-3.015,3.769-4.551c0.488,1.347,0.093,2.831,0.575,4.179  c0.808,2.556,3.479,4.372,6.141,4.232c2.876-0.392,4.524-3.846,3.354-6.417c-1.431-3.237-4.33-5.644-5.397-9.069  C315.365,80.45,317.998,75.164,322.428,73.696z"/>
<path d="M138.908,75.59c0.87-0.696,1.546-2.063,2.856-1.779c2.309,0.034,4.416,1.648,5.247,3.774  c0.851,2.092,1.261,4.358,1.31,6.614l-0.817-0.226c-1.381-2.063-2.218-4.466-3.754-6.427  C142.576,76.097,140.663,75.725,138.908,75.59z"/>
<path d="M357.196,77.048c1.034-2.16,3.499-3.469,5.871-3.208c0.729,0.468,1.279,1.159,1.897,1.764  c-1.733,0.145-3.643,0.541-4.792,1.975c-1.498,2.011-2.411,4.383-3.765,6.484l-0.836,0.077  C355.78,81.725,356.108,79.252,357.196,77.048z"/>
<path fill="#F3F3F3" d="M186.466,79.217c2.513,2.538,4.982,5.122,7.47,7.688c-2.305,1.179-4.638,2.314-7.021,3.324  C186.843,86.553,186.529,82.89,186.466,79.217z"/>
<path d="M185.9,124.988c5.083-0.782,10.118-2.508,15.312-2.087c3.372,0.266,5.735,2.904,7.987,5.131  c6.629,6.46,14.664,11.346,23.085,15.114c1.387,0.646,2.701,1.439,4.035,2.193c1.739,0.995,3.991,1.179,5.296,2.851  c2.652,3.318,2.927,7.812,2.976,11.885c-3.967-0.575-7.914-1.304-11.891-1.811c-0.701-0.232-1.387-0.484-2.058-0.75  c0.372-0.322,0.748-0.637,1.135-0.942c2.933,0.59,5.923,0.885,8.899,1.151c1.121-3.537-0.7-6.992-2.526-9.915  c-1.653-2.338-4.45-3.387-6.909-4.634c-9.833-4.304-18.399-10.876-27.521-16.428c-1.682-0.961-3.412-2.082-5.407-2.141  c-3.092-0.217-6.141,0.407-9.195,0.765C188.042,125.272,186.973,125.108,185.9,124.988z"/>
<path fill="#393938" d="M174.774,125.046c3.706,0.13,7.431,0.343,11.126-0.059c1.073,0.121,2.141,0.285,3.218,0.382  c-2.242,0.353-4.508,0.613-6.784,0.55c-4.078-0.111-8.175-0.073-12.219-0.657C171.657,125.104,173.213,124.988,174.774,125.046z"/>
<path fill="#030404" d="M185.534,259.327c11.93-29.386,23.743-58.821,35.72-88.187c1.397,0.009,2.792,0.015,4.194,0.019  c3.348,8.056,6.784,16.071,10.064,24.154c5.184-1.681,10.648-2.42,16.089-2.126c8.286,0.445,15.886,4.068,23.68,6.537  c2.11,0.662,4.644,0.861,6.556-0.439c1.809-1.522,2.305-3.972,2.953-6.132c1.687-0.024,3.377-0.019,5.063,0.028  c0.825,8.674,1.666,17.342,2.541,26.01c6.436-0.885,13.012-1.229,19.457-0.155c5.445,0.769,10.653,2.608,15.948,4.025  c1.909,0.517,4.084,0.609,5.804-0.522c1.604-0.851,2.329-2.6,3.024-4.17c1.313-0.005,2.623-0.005,3.942,0.005  c0.482,12.368,0.981,24.742,1.455,37.116c-1.223,0.014-2.44,0.062-3.658-0.009c-0.836,0.187-0.917-0.827-1.164-1.338  c-1.391-4.701-3.219-9.292-5.773-13.486c-3.565-5.86-8.939-10.731-15.452-13.051c-7.296-2.574-15.504-2.518-22.771,0.121  c0.396,3.997,0.856,7.988,1.15,11.988c-1.938,0.009-3.87,0.005-5.804-0.03c-0.671-2.733-1.458-5.44-2.354-8.116  c-9.053,6.518-14.149,17.215-16.112,27.971c-0.038,0.3-0.117,0.903-0.155,1.202c7.32,5.024,14.66,10.253,20.517,17.003  c9.967,11.494,10.948,29.096,4.17,42.417c8.595,2.768,18.117,2.261,26.534-0.908c6.919-2.576,12.862-7.19,18.062-12.345  c0.487-0.367,0.878-1.03,1.526-1.097c1.184,1.072,2.455,2.184,3.218,3.604c-5.083,6.861-11.997,12.306-19.661,16.026  c-11.044,5.439-23.998,5.973-35.836,3.135c-5.314,5.553-12.154,9.621-19.602,11.544c-5.532,1.458-11.301,1.875-17.002,1.536  c-5.199-0.391-10.334-1.546-15.253-3.267c-3.735-1.294-7.431-2.714-11.233-3.808c-1.793-0.502-4.016-0.472-5.388,0.947  c-1.42,1.658-1.806,3.885-2.309,5.943c-1.75,0.01-3.518,0.149-5.252-0.14c-2.232-15.476-4.15-31.005-6.252-46.5  c1.884-0.015,3.764-0.009,5.648,0.024c2.783,7.832,6.296,15.49,11.335,22.144c3.966,5.078,8.851,9.586,14.736,12.34  c4.368,2.107,9.175,3.17,14.002,3.459c8.402,0.647,17.253-3.17,21.796-10.406c-10.505-6.688-18.109-17.501-21.424-29.45  c-0.976-4.034-2.459-7.946-3.117-12.059c-0.425-2.232-0.99-4.44-1.483-6.658c-5.658-3.716-11.398-7.315-16.959-11.177  c-1.575-0.955-2.846-2.82-4.866-2.7c-10.402,0.028-20.81-0.009-31.212,0.024c-2.266,5.953-4.488,11.925-6.711,17.897  c-1.237,3.563-2.802,7.11-3.044,10.924c-0.256,2.617,0.841,5.575,3.373,6.701c2.884,1.27,6.103,1.339,9.18,1.792  c-0.009,1.46-0.023,2.924-0.048,4.388c-12.49-0.009-24.979,0.058-37.465-0.035c0.01-1.439,0.015-2.874,0.02-4.313  c4.706-0.541,9.46-2.739,11.741-7.106C177.223,280.633,181.17,269.864,185.534,259.327z"/>
<path fill="#007AC1" d="M221.935,172.144c1.175,0.088,2.962-0.439,3.324,1.14c8.219,19.786,16.52,39.537,24.796,59.294  c2.822,6.948,5.914,13.79,8.586,20.795c-6.933-4.518-14.185-8.73-20.042-14.66c-4.576-4.068-7.576-9.601-9.702-15.273  c-2.735-6.827-5.44-13.667-8.233-20.476c-0.725-1.739-1.291-3.556-2.238-5.199c-7.218,18.248-14.528,36.474-21.592,54.78  c7.489,0.107,14.982-0.059,22.477,0.086c1.832,2.538,4.18,4.62,6.489,6.703c-10.624,0.087-21.249,0.009-31.869,0.038  c-1.923,4.952-3.725,9.949-5.628,14.906c-1.436,3.981-3.05,7.913-4.049,12.03c-0.7,3.12-0.687,6.938,1.816,9.286  c2.764,2.508,6.76,2.402,10.229,2.996c-0.005,0.825-0.01,1.657-0.01,2.493c-11.789-0.054-23.578,0.081-35.362-0.068  c0.004-0.793,0.009-1.585,0.015-2.367c4.483-0.759,8.948-2.956,11.296-7.021c4.411-7.557,7.571-15.761,10.948-23.811  C196.125,235.937,208.957,204.008,221.935,172.144z"/>
<path fill="#CCCCCC" d="M236,196.278c7.426-2.517,15.616-2.885,23.2-0.825c5.668,1.419,11.017,3.84,16.618,5.483  c2.218,0.714,4.815,0.415,6.74-0.933c1.743-1.464,2.348-3.788,3.028-5.866c1.097-0.004,2.199-0.004,3.305-0.004  c1.502,14.847,2.929,29.709,4.378,44.562c-1.289,0.005-2.585,0.005-3.876,0.019c-2.164-8.146-5.058-16.317-10.344-23.003  c-3.102-4.049-7.33-7.064-11.762-9.504c-6.469-3.624-14.194-5.421-21.528-3.821c-2.228,0.43-4.224,1.517-6.325,2.305  C238.353,201.86,237.096,199.1,236,196.278z"/>
<path fill="#F3F3F3" d="M218.539,200.318c0.575,1.608,1.333,3.145,1.85,4.773c0.396,0.637-0.247,1.199-0.566,1.687  c-4.802,5.904-7.421,13.422-7.953,20.975c-0.889,8.32,1.507,16.969,6.591,23.626c-2.677,0.347-5.378,0.159-8.064,0.198  c-4.029-0.049-8.059,0.096-12.083-0.068c3.928-10.32,8.112-20.549,12.117-30.841C213.17,213.899,215.722,207.059,218.539,200.318z"/>
<path fill="#808080" d="M248.456,202.921c6.015-0.705,12.118,0.953,17.456,3.687c4.28,2.276,8.406,5.03,11.562,8.76  c1.808,2.111,3.266,4.479,4.707,6.846c-6.936,3.068-13.322,7.494-18.261,13.287c-2.793,3.145-5.169,6.648-7.218,10.32  c-1.875-4.306-3.517-8.711-5.556-12.944l0.053-0.164c0.647-1.368,0.425-2.91,0.449-4.374c-0.043-8.47,0.015-16.944-0.028-25.419  c-0.985-0.008-1.961-0.023-2.938,0H248.456z"/>
<path fill="#F3F3F3" d="M240.18,205.628c2.604-1.464,5.518-2.451,8.503-2.707c0.976-0.023,1.952-0.008,2.938,0  c0.043,8.475-0.015,16.949,0.028,25.419c-0.023,1.464,0.199,3.005-0.449,4.374c-3.702-8.91-7.479-17.791-11.146-26.72  L240.18,205.628z"/>
<path fill="#F3F3F3" d="M73.938,206.488c1.778-1.788,4.537-1.082,6.788-1.106c-0.401,4.381-0.643,9.058,1.242,13.16  c3.184,6.249,5.803,12.776,8.088,19.396c-4.116-2.532-8.199-5.186-11.755-8.481c-0.58-0.575-1.392-0.749-2.141-0.965  c0.024-0.266,0.082-0.802,0.106-1.074c-1.135-2.039-2.29-4.087-3.083-6.285c-0.401-1.677-0.498-3.412-0.744-5.112  c0.261,0,0.783-0.005,1.044-0.011C73.604,212.842,73.179,209.595,73.938,206.488z"/>
<path fill="#808080" d="M423.206,205.391c2.217,0.009,4.866-0.614,6.705,0.98c0.933,3.079,0.392,6.422,0.552,9.606  c0.251,0.024,0.754,0.067,1.01,0.086c-0.179,1.545-0.28,3.111-0.599,4.639c-0.633,2.787-2.74,4.985-3.306,7.792  c-0.672,0.295-1.405,0.503-1.946,1.015c-3.558,3.295-7.645,5.942-11.76,8.47c1.719-5.031,3.744-9.958,5.885-14.824  c0.971-2.31,2.41-4.426,3.053-6.87C423.767,212.74,423.727,209.009,423.206,205.391z"/>
<path fill="#CCCCCC" d="M124.496,213.822c0.942-3.039,3.184-5.402,5.378-7.609c0.01,6.474,1.314,13.083,4.648,18.703  c2.764,4.33,5.919,8.47,7.91,13.245c0.985,2.831,2.034,5.923,1.145,8.923c-1.957,7.664-6.203,14.485-8.557,22.009  c-1.358,4.754,1.493,9.314,4.175,13.016c3.116,3.961,6.498,7.722,9.257,11.958c0.904,1.668,2.745,2.402,3.977,3.765  c1.821,1.729,2.942,4.01,3.894,6.3c-2.711-0.454-5.445-0.903-8.079-1.67c-2.392-5.05-4.687-10.399-8.871-14.26  c-3.203-2.846-7.005-5.367-8.89-9.358c-0.914-1.739-0.686-3.769-0.348-5.619c1.145-5.508,3.053-10.833,4.01-16.379  c0.247-1.662,0.512-3.407-0.02-5.041c-0.922-2.632-2.807-4.768-4.73-6.725c-3.672-3.541-7.851-6.503-12.146-9.224  c-0.299-0.854,0.613-1.406,0.981-2.058C122.438,227.974,122.583,220.504,124.496,213.822z"/>
<path fill="#CCCCCC" d="M374.04,206.467c1.564,1.083,2.748,2.606,3.835,4.142c2.137,3.064,2.368,6.91,3.16,10.447  c1.093,5.16,2.387,10.609,6.116,14.562c-5.319,3.324-10.552,6.982-14.668,11.76c-1.744,2.107-3.377,4.706-2.942,7.566  c0.759,6.735,3.493,13.061,4.475,19.746c0.584,3.132-1.267,5.992-3.345,8.143c-2.135,2.218-4.652,4.024-6.898,6.12  c-3.701,3.866-5.798,8.896-8.171,13.602c-2.609,0.691-5.301,1.184-7.977,1.575c1.267-2.972,2.889-5.952,5.647-7.788  c1.909-1.155,2.774-3.304,4.137-4.977c2.589-3.688,5.755-6.929,8.34-10.62c2.274-3.343,4.332-7.431,3.193-11.572  c-2.358-7.716-6.838-14.658-8.664-22.558c-0.676-2.426,0.151-4.909,0.822-7.243c1.928-5.614,5.812-10.228,8.812-15.272  C372.875,218.74,374.029,212.546,374.04,206.467z"/>
<path fill="#CCCCCC" d="M220.766,207.256c0.107-0.044,0.319-0.131,0.425-0.169c2.223,5.435,4.393,10.896,6.566,16.354  c1.599,4.388,3.701,8.625,6.547,12.34c4.035,4.377,8.514,8.359,13.417,11.746c7.644,5.059,15.403,9.943,23.043,15.022  c7.164,4.942,14.319,10.17,19.847,16.978c5.127,6.363,7.45,14.621,7.335,22.724c-0.136,5.947-1.295,11.992-4.198,17.239  c-0.571,0.247-1.149-0.188-1.677-0.344c-5.233-2.246-9.708-6.01-13.249-10.431c-0.768-0.842-0.545-2.059-0.724-3.088  c-0.586-6.387-3.74-12.456-8.471-16.756c-5.121-4.658-10.919-8.494-16.659-12.339c-7.156-4.788-14.461-9.345-21.554-14.215  c-6.493-4.572-12.47-10.273-15.785-17.607c-3.498-7.338-3.565-15.863-1.719-23.655C215.137,216.03,217.432,211.218,220.766,207.256z  "/>
<path fill="#007AC1" d="M292.599,220.287c10.028-1.851,20.438-0.812,30.085,2.386c3.377,0.725,6.929,2.785,10.374,1.277  c2.092-0.755,3.45-2.605,4.306-4.571c0.733,0,1.474,0,2.216,0.004c0.532,11.645,0.842,23.298,1.451,34.943  c-0.886-0.034-2.402,0.71-2.827-0.411c-2.488-8.325-6.35-16.703-13.243-22.284c-8.648-7.271-21.234-8.625-31.719-4.986  C292.896,224.538,292.693,222.418,292.599,220.287z"/>
<path fill="#007AC1" d="M257.563,246.421c5.445-10.219,14.225-18.742,24.971-23.226c1.332,2.34,2.396,4.837,3.207,7.407  c-9.527,6.876-14.818,18.143-16.81,29.479c-2.812-1.851-5.734-3.552-8.446-5.542c-1.043-1.673-1.563-3.604-2.419-5.374  C257.78,248.291,257.026,247.344,257.563,246.421z"/>
<path fill="#F3F3F3" d="M105.745,247.774c3.01-3.575,6.489-6.716,9.566-10.224c4.929,3.039,9.601,6.784,12.853,11.63  c2.029,2.934,2.576,6.615,2.165,10.103c-4.281,0.044-8.562,0.023-12.838,0.014c-2.029-2.518-4.059-5.033-5.88-7.705  c-0.643-0.74-0.377-1.759-0.435-2.644C109.359,248.59,107.547,248.194,105.745,247.774z"/>
<path fill="#808080" d="M375.552,249.581c3.213-5.069,8.054-8.866,13.079-12.022c3.145,3.48,6.479,6.784,9.678,10.215  c-1.865,0.445-3.74,0.855-5.619,1.217c0.034,0.677,0.062,1.353,0.102,2.039c-2.112,2.909-4.223,5.833-6.562,8.572  c-4.136-0.169-8.271-0.059-12.408-0.077c0.01,0.328,0.029,0.985,0.04,1.313C373.111,257.05,373.411,252.886,375.552,249.581z"/>
<path fill="#808080" d="M15.774,264.375c2.3-1.725,4.711-3.31,6.813-5.286c2.827,0.353,5.682,0.193,8.523,0.217  c13.697,0.016,27.396-0.028,41.088,0.021c1.13-0.005,2.261-0.142,3.367-0.378c1.778,0.764,3.576,1.475,5.363,2.219  c1.938,0.699,2.638,2.84,3.808,4.354c4.145,6.499,9.073,12.566,12.209,19.659c1.053,2.521,2.088,5.281,1.469,8.05  c-0.556,2.474-1.319,4.899-2,7.34c5.421,1.646,10.832,3.333,16.268,4.941c-0.522-5.183-3.802-9.422-6.508-13.668  c-1.851-3.252-2.827-6.938-4.793-10.132c-1.13-1.779-2.502-3.405-3.464-5.291c-2.02-3.773-3.121-7.943-3.861-12.138  c2.61-0.989,5.591-2.174,8.34-0.999c2.942,1.512,5.798-0.957,8.097-2.57c2.479,0.227,5.083,0.821,6.982,2.536  c1.463,1.339,1.783,3.517,3.29,4.812c0.894,0.779,2.048,0.401,3.029,0.044c-1.285-3.453-4.174-5.898-6.305-8.809  c4.276,0.01,8.557,0.03,12.838-0.014c-0.71,5.895-3.522,11.204-5.257,16.806c-0.894,2.357,0.696,4.686,2.503,6.077  c2.29,2.048,5.547,2.608,7.663,4.884c2.121,2.073,4.184,4.248,5.792,6.756c1.846,2.686,2.483,6.049,1.832,9.237  c5.049,0.947,10.103,1.859,15.157,2.764c-0.706-2.792-2.039-5.455-4.17-7.436c-2.851-2.644-5.363-5.625-7.657-8.755  c-2.194-3.107-5.161-5.595-7.108-8.891c-2.174-3.382-3.836-7.503-2.73-11.567c1.125-3.59,3.073-6.846,4.933-10.093  c2.721,0.401,5.474,0.213,8.214,0.241c12.012,0.016,24.023-0.028,36.034,0.021c-4.363,10.537-8.311,21.307-13.861,31.295  c-2.281,4.367-7.035,6.565-11.741,7.106c-0.005,1.439-0.01,2.874-0.02,4.313c12.486,0.093,24.975,0.026,37.465,0.035  c0.024-1.464,0.039-2.928,0.048-4.388c-3.077-0.453-6.295-0.522-9.18-1.792c-2.532-1.126-3.628-4.084-3.373-6.701  c0.242-3.813,1.807-7.36,3.044-10.924c2.223-5.973,4.445-11.944,6.711-17.897c10.403-0.033,20.81,0.004,31.212-0.024  c2.02-0.12,3.291,1.745,4.866,2.7c5.561,3.861,11.301,7.461,16.959,11.177c0.493,2.218,1.058,4.426,1.483,6.658  c0.658,4.112,2.141,8.024,3.117,12.059c-0.218,1.151-0.435,2.311-0.425,3.489c0.072,12.122-0.029,24.244,0.053,36.367  c-4.827-0.289-9.634-1.352-14.002-3.459c-5.885-2.754-10.77-7.262-14.736-12.34c-5.04-6.653-8.552-14.312-11.335-22.144  c-1.884-0.033-3.764-0.039-5.648-0.024c2.102,15.495,4.02,31.024,6.252,46.5c1.735,0.289,3.503,0.149,5.252,0.14  c0.502-2.059,0.889-4.285,2.309-5.943c1.373-1.419,3.595-1.449,5.388-0.947c3.803,1.094,7.498,2.514,11.233,3.808  c4.918,1.721,10.054,2.876,15.253,3.267c0.015,8.166-0.009,16.331,0.015,24.501c-3.923,0.011-7.852,0.019-11.774,0.049  c0.034,1.328,0.039,2.657,0.024,3.996c2.72-0.426,5.469-0.647,8.223-0.678c0.039,9.587,0.043,19.172,0.106,28.759  c1.135-0.055,2.271-0.105,3.411-0.117c0.005,6.735-0.005,13.476,0.005,20.213c-4.769,0.83-9.6,1.502-14.451,1.415  c-7.377-0.314-14.625-1.846-21.825-3.383c-2.58-0.557-5.227-0.508-7.846-0.662c-0.155-0.87-0.319-1.725-0.483-2.584  c-2.904-0.826-5.919-1.513-8.963-1.228c-4.314,0.241-8.242,2.448-12.581,2.583c-5.175,0.383-9.823-2.564-14.954-2.632  c-5.667-0.421-10.779,3.169-16.447,2.589c-2.468-0.843-4.513-2.738-5.981-4.855c-2.242-3.66-3.735-7.73-4.977-11.821  c-0.773-0.418-1.542-0.816-2.314-1.218c-0.168,3.831,1.416,7.407,2.503,11c-0.628-0.093-1.256-0.182-1.885-0.269  c-0.116-0.154-0.348-0.469-0.458-0.624c-0.363,1.646-0.618,3.319-0.706,5.011c3.098,3.37,7.644,4.574,11.49,6.821  c4.735,2.85,10.146,4.257,15.49,5.45c-4.15,2.055-8.03,4.891-12.654,5.799c-2.3,0.502-4.667,0.304-7,0.355  c0.352,0.314,0.643,0.784,1.154,0.884c2.74,0.895,5.663,1.172,8.533,0.943c4.029-0.339,7.726-2.342,11.798-2.445  c5.35-0.501,10.142,2.688,15.452,2.557c2.701,0.131,5.325-0.58,7.918-1.212c-0.019,2.021-0.023,4.048-0.014,6.073  c2.715-0.463,5.416-1,8.156-1.29c1.299,2.096,2.57,4.213,3.662,6.431c0.672,1.294,1.242,2.779,2.562,3.571  c3.396,2.226,6.702,4.59,10.011,6.946c-0.213-6.896-4.924-12.29-8.731-17.602c5.465-0.133,10.702,1.566,16.032,2.464  c6.223,1.137,12.582,1.996,18.911,1.354c2.88-0.203,5.735-0.667,8.576-1.149c0.039,9.459,0.01,18.925,0.019,28.39  c0.082,3.654-0.213,7.326,0.213,10.97l0.024,0.217c-18.655-8.863-37.16-18.052-55.757-27.042c-3.609-1.673-7.103-3.62-10.779-5.122  c-15.438-0.455-30.845-2.564-45.765-6.615c-18.786-5.073-36.841-12.778-53.603-22.645c-7.581-4.479-14.91-9.403-21.786-14.912  c-5.194-3.568-10.011-7.725-14.055-12.572c-9.813-11.488-15.514-25.97-18.365-40.676c-2.285-11.602-2.884-23.473-2.512-35.267  c0.493-11.394,1.724-22.776,4.223-33.913C27.757,273.729,21.756,269.067,15.774,264.375z"/>
<path fill="#F3F3F3" d="M270.087,259.54c30.94-0.045,61.879-0.021,92.815-0.015c2.103,3.71,4.527,7.459,5.097,11.77  c0.063,5.469-3.304,10.229-6.754,14.186c-2.947,3.034-5.131,6.706-8.04,9.779c-1.753,1.938-3.884,3.551-5.276,5.798  c-0.971,1.449-1.517,3.121-2.015,4.777c5.116-0.923,10.243-1.816,15.346-2.82c-0.962-2.619-0.295-5.499,0.918-7.915  c1.875-3.43,4.666-6.276,7.518-8.914c2.644-1.883,6.035-2.759,8.117-5.411c1.146-1.251,1.677-3.067,1.062-4.691  c-1.531-5.127-4.105-9.935-5.014-15.244c-0.011-0.328-0.03-0.985-0.04-1.313c4.137,0.019,8.272-0.092,12.408,0.077  c-1.677,2.048-3.396,4.062-4.985,6.185c-0.697,0.821-0.712,1.899-0.624,2.917c0.841-0.144,1.743-0.164,2.521-0.565  c1.662-1.338,1.851-3.772,3.558-5.076c1.888-1.537,4.348-2.107,6.72-2.34c1.658,1.199,3.349,2.46,5.354,3.006  c1.551,0.522,2.895-0.725,4.387-0.898c2.271-0.203,4.431,0.677,6.576,1.274c-0.648,6.045-2.826,12.021-6.653,16.791  c-2.231,3.324-3.275,7.261-5.193,10.745c-2.702,4.343-6.098,8.62-6.639,13.887c5.435-1.547,10.809-3.325,16.243-4.886  c-0.6-2.546-1.431-5.029-2.005-7.58c-0.575-2.682,0.503-5.339,1.492-7.784c2.891-6.701,7.5-12.428,11.433-18.511  c1.223-1.661,2.116-3.584,3.561-5.067c1.753-0.913,3.648-1.537,5.493-2.257c18.139,0.208,36.281-0.044,54.419,0.13  c2.189,2.295,4.991,3.846,7.774,5.315c-6.107,4.476-12.162,9.021-18.25,13.524c3.243,13.635,4.62,27.688,4.407,41.696  c-0.473,20.921-5.155,42.257-16.606,60.023c-4.958,7.662-11.084,14.581-18.161,20.351c-15.027,12.242-32.306,21.501-50.27,28.647  c-11.812,4.634-24.032,8.237-36.488,10.661c-11.223,2.248-22.649,3.316-34.076,3.769c-22.758,11.046-45.423,22.319-68.141,33.452  c-0.426-3.644-0.131-7.315-0.213-10.97c-0.009-9.465,0.02-18.931-0.019-28.39c7.509-1.396,15.113-2.912,22.791-2.28  c4.474,0.339,8.903,1.101,13.296,2.001c2.368,0.626,4.697,1.516,7.19,1.485c-3.379,4.675-7.084,9.712-7.259,15.72  c3.712-2.526,7.36-5.151,11.076-7.67c1.594-2.83,3.028-5.764,4.701-8.56c2.817-0.531,5.657-0.905,8.465-1.505  c-0.011-1.046-0.017-2.101-0.006-3.14c2.895,0.87,5.913,1.478,8.953,1.233c4.634-0.154,8.808-2.798,13.495-2.597  c3.551-0.177,6.876,1.198,10.271,1.998c3.609,0.816,7.431,0.563,10.963-0.513c0.565-0.105,0.869-0.629,1.252-1  c-2.335-0.03-4.696,0.148-6.991-0.358c-4.648-0.846-8.461-3.812-12.736-5.604c0.164-0.26,0.493-0.788,0.652-1.049  c4.748-0.846,9.471-2.242,13.76-4.474c3.224-2.071,6.905-3.267,10.146-5.301c1.189-0.705,2.098-1.768,2.846-2.914  c-0.353-1.448-0.646-2.898-0.927-4.352c-0.745,0.304-1.489,0.604-2.237,0.889c0.894-3.674,2.667-7.233,2.348-11.105  c-0.807,0.358-1.608,0.732-2.402,1.117c-1.139,4.17-2.768,8.234-5.02,11.936c-1.551,2.694-4.396,4.213-7.059,5.604  c-3.223,0.049-6.296-0.971-9.349-1.835c-4.368-1.34-9.063-0.74-13.32,0.716c-3.247,1.13-6.756,1.526-10.157,0.976  c-2.796-0.441-5.426-1.6-8.227-2.017c-3.306-0.583-6.752-0.25-9.91,0.87c-0.58,0.203-1.149,0.431-1.711,0.661  c0.006,0.977,0,1.958,0.006,2.944c-2.761,0.182-5.461-0.33-8.05-1.241c-6.678-1.396-13.486-2.543-20.332-2.237  c-5.562,0.23-11.025,1.375-16.496,2.329c-0.01-6.737,0-13.478-0.005-20.213c1.107,0,2.213,0.062,3.32,0.117  c-0.03-9.601-0.083-19.207-0.121-28.808c2.625,0.079,5.252,0.185,7.847,0.615c-0.058-1.328-0.062-2.654,0.011-3.978  c-3.682,0.03-7.364,0.024-11.046,0.044c-0.024-8.17,0-16.335-0.015-24.501c5.702,0.339,11.47-0.078,17.002-1.536  c7.447-1.923,14.287-5.991,19.602-11.544c11.838,2.838,24.792,2.305,35.836-3.135c7.664-3.721,14.578-9.165,19.661-16.026  c-0.763-1.42-2.034-2.531-3.218-3.604c-0.648,0.066-1.039,0.729-1.526,1.097c-5.199,5.154-11.143,9.769-18.062,12.345  c-8.417,3.169-17.939,3.676-26.534,0.908c6.778-13.321,5.797-30.923-4.17-42.417c-5.856-6.75-13.196-11.979-20.517-17.003  C269.97,260.443,270.049,259.839,270.087,259.54z"/>
<path fill="#393938" d="M48.703,270.97c0.144-0.005,0.425-0.019,0.57-0.028c1.299,4.048,2.005,8.311,3.918,12.146  c1.71,3.455,3.808,6.721,6.059,9.847c1.917,2.301,3.74,5.011,6.706,6.026c2.991,1.11,6.19,1.005,9.301,0.652  c0.459,4.328-1.024,8.537-2.977,12.329c4.397,1.973,6.692,6.465,8.615,10.616c-2.412-0.726-4.696-2.169-7.287-2.068  c-1.696,0.222-3.773,0.715-4.459,2.498c-0.816,1.609-0.294,3.479,0.459,5.011c4.127,7.985,10.094,14.805,14.746,22.467  c1.092,1.334-1.193,2.512-2.28,1.803c-1.135-0.827-1.914-2.214-3.377-2.504c-2.464-0.614-4.957-1.174-7.499-1.353  c-1.309-0.097-2.977,0.237-3.469,1.643c-0.952,2.054-0.145,4.325,0.01,6.464c-2.421-1.67-4.248-4.038-6.34-6.077  c-1.937,1.47-3.468,3.633-5.991,4.136c-0.265-1.726-0.468-3.465-0.729-5.189c-4.764-1.237-9.103-3.663-13.243-6.262  c-1.217-0.835-2.633-1.569-3.3-2.962c1.353,0.363,2.624,0.953,3.928,1.445c4.687,1.677,9.793,1.561,14.63,0.69  c0.096-1.769,0.121-3.536,0.164-5.301c0.657,0.455,2.155,0.45,2.131,1.432l-0.281,0.004c-0.329-0.121-0.99-0.358-1.319-0.479  c-0.078,1.639-0.174,3.282-0.3,4.918c-5.117,0.812-10.407,0.827-15.398-0.713c-0.957-1.324-1.063,1.114,0,0  c0.493,0.739,1.179,1.312,1.961,1.733c3.628,2.077,7.373,4.073,11.475,5.055c0.256,1.699,0.502,3.406,0.835,5.097  c2.059-1.121,3.663-2.837,5.33-4.441c1.816,1.896,3.686,3.74,5.522,5.615c0.009-1.884-0.251-3.889,0.541-5.658  c0.691-1.438,2.474-1.758,3.914-1.676c2.561,0.149,5.083,0.739,7.566,1.357c1.556,0.324,2.392,1.822,3.658,2.644  c0.589-0.03,1.174-0.093,1.759-0.184c-3.363-6.572-8.402-12.099-12.2-18.409c-1.357-2.382-3.112-4.639-3.71-7.364  c-0.527-2.274,0.743-5.097,3.203-5.536c2.812-1.062,5.697,0.203,8.325,1.194c-1.198-2.267-2.372-4.596-4.092-6.523  c-1.15-1.296-2.735-2.06-4.252-2.832c1.977-3.706,3.517-7.782,3.281-12.055c-4.189,0.315-9.05,0.368-12.306-2.729  c-3.977-3.924-6.939-8.74-9.548-13.645c-2.048-3.768-2.632-8.073-4.15-12.036c-1.159,3.624-1.319,7.455-1.715,11.22  c-0.681,6.985-0.145,14.089,1.599,20.892c0.531,2.033-0.009,4.31-1.353,5.915c-2.034,1.53-4.773,0.748-7.122,0.82  c1.909,2.579,4.402,4.697,7.137,6.354c2.015,0.946,4.3,1.087,6.363,1.928c0.188,4.754-1.536,9.712,0.333,14.293  c0.908-0.257,1.242-1.272,1.802-1.928c1.957-2.783,4.629-5.587,8.18-6.026c3.107,3.363,5.271,7.476,7.697,11.336  c2.348,3.899,4.76,7.783,7.624,11.329c-4.382-0.772-8.581-2.435-13.025-2.826c-0.324-1.903,0.039-3.807,0.42-5.663  c-2.155,0.296-3.918,1.561-5.208,3.257c-0.508-1.184-1.083-2.339-1.831-3.387l-0.111-0.179c1.111,0.28,1.492,1.488,2.116,2.313  c1.585-1.517,3.59-2.439,5.779-2.627c-0.338,1.83-0.981,3.667-0.754,5.552c0.855,0.869,2.218,0.42,3.295,0.733  c2.556,0.686,5.107,1.411,7.721,1.841c-4.527-6.369-8.122-13.34-12.673-19.693c-0.498-0.604-1.116-1.725-2.063-1.3  c-4.048,1.362-6.489,5.132-8.691,8.542c-3.174-4.536-0.846-10.252-1.199-15.312c-2.469-0.812-5.291-0.836-7.378-2.565  c-2.377-1.84-5.106-3.667-6.209-6.605c2.344,0.024,4.904,0.735,7.103-0.343c1.58-1.419,2.102-3.884,1.464-5.889  c-1.948-7.6-2.271-15.544-1.319-23.313C47.252,277.262,47.166,273.869,48.703,270.97z"/>
<path fill="#CCCCCC" d="M48.804,271.767c1.518,3.963,2.102,8.269,4.15,12.036c2.609,4.904,5.571,9.721,9.548,13.645  c3.256,3.098,8.117,3.045,12.306,2.729c0.236,4.272-1.304,8.349-3.281,12.055c1.517,0.772,3.102,1.536,4.252,2.832  c1.72,1.928,2.894,4.257,4.092,6.523c-2.628-0.991-5.513-2.257-8.325-1.194c-2.459,0.439-3.729,3.262-3.203,5.536  c0.598,2.726,2.353,4.982,3.71,7.364c3.798,6.311,8.837,11.837,12.2,18.409c-0.585,0.091-1.17,0.153-1.759,0.184  c-1.266-0.821-2.102-2.319-3.658-2.644c-2.483-0.618-5.005-1.208-7.566-1.357c-1.439-0.082-3.222,0.237-3.914,1.676  c-0.792,1.77-0.532,3.774-0.541,5.658c-1.836-1.875-3.706-3.72-5.522-5.615c-1.667,1.604-3.271,3.32-5.33,4.441  c-0.333-1.69-0.58-3.397-0.835-5.097c-4.103-0.981-7.847-2.978-11.475-5.055c-0.783-0.421-1.469-0.994-1.961-1.733  c4.991,1.54,10.281,1.525,15.398,0.713c0.125-1.636,0.222-3.279,0.3-4.918c0.329,0.12,0.99,0.357,1.319,0.479  c0.367,0.237,0.7,0.518,0.996,0.846c0.749,1.048,1.323,2.203,1.831,3.387c1.29-1.696,3.053-2.961,5.208-3.257  c-0.381,1.856-0.744,3.76-0.42,5.663c4.445,0.392,8.644,2.054,13.025,2.826c-2.864-3.546-5.276-7.43-7.624-11.329  c-2.425-3.86-4.589-7.973-7.697-11.336c-3.551,0.439-6.223,3.243-8.18,6.026c-0.561,0.655-0.894,1.671-1.802,1.928  c-1.87-4.581-0.145-9.539-0.333-14.293c-2.062-0.841-4.348-0.981-6.363-1.928c-2.735-1.656-5.228-3.774-7.137-6.354  c2.349-0.072,5.087,0.71,7.122-0.82c1.344-1.605,1.884-3.882,1.353-5.915c-1.744-6.803-2.28-13.906-1.599-20.892  C47.484,279.222,47.645,275.391,48.804,271.767z"/>
<path fill="#393938" d="M455.887,272.642c1.526,2.238,1.575,5.044,1.962,7.635c1.126,8.58,1.077,17.408-1.184,25.815  c-0.6,1.868,0.27,3.705,1.038,5.377c2.397,1.305,5.156,0.594,7.741,0.623c-1.513,2.836-4.074,4.885-6.663,6.688  c-2.044,1.506-4.696,1.506-7.03,2.286c-0.358,4.573,1.439,9.318-0.266,13.765c-0.294,0.502-0.45,1.521-1.236,1.101  c-1.773-3.116-4.068-6.15-7.389-7.726c-0.754-0.231-1.89-0.706-2.406,0.146c-5.058,6.57-8.57,14.185-13.63,20.762  c3.817-0.614,7.445-2.233,11.335-2.382c0.378-1.99-0.245-3.948-0.656-5.872c2.159,0.204,4.092,1.142,5.72,2.553  c1.117-1.91,2.711-3.459,4.697-4.446c0.227,1.816,0.284,3.653,0.396,5.489c4.117,0.574,8.374,0.889,12.44-0.179  c0.223,0.024,0.667,0.072,0.89,0.097l0.015,0.169c-4.513,1.261-9.209,0.908-13.789,0.348c-0.102-1.701-0.146-3.406-0.208-5.106  c-2.146,0.826-3.653,2.682-4.231,4.89c-1.276-1.748-3.098-2.996-5.272-3.276c0.411,1.841,0.629,3.726,0.521,5.615  c-4.415,0.521-8.652,1.928-12.972,2.898c5.512-7.127,9.388-15.341,14.853-22.501c4.777,0.125,7.744,4.59,10.111,8.189  c2.199-4.628,0.432-9.803,0.509-14.674c2.145-0.918,4.575-0.989,6.647-2.082c2.628-1.658,5.132-3.639,6.871-6.252  c-2.314-0.044-4.934,0.651-7.006-0.705c-1.459-1.668-2.054-4.137-1.378-6.271c2.131-8.016,2.16-16.438,1.17-24.628  c-0.252-2.459-0.619-4.918-1.3-7.295c-0.947,1.976-1.328,4.141-1.942,6.229c-1.575,5.546-4.721,10.479-8.015,15.142  c-1.967,2.334-3.784,5.104-6.746,6.242c-2.996,1.247-6.3,0.716-9.45,0.831c-0.111,4.262,1.342,8.373,3.343,12.078  c-4.174,1.547-6.489,5.538-8.291,9.346c2.787-1.16,5.981-1.961,8.934-0.913c1.647,0.487,2.493,2.256,2.667,3.852  c0.102,2.25-1.121,4.265-2.231,6.13c-4.111,7.136-9.397,13.499-13.736,20.492c0.426,0.396,0.855,0.791,1.294,1.192  c1.372-1.106,2.508-2.715,4.33-3.103c2.262-0.569,4.557-1.043,6.875-1.305c1.43-0.145,3.159,0.044,4.098,1.281  c1.193,1.812,0.711,4.097,0.695,6.126c1.875-1.928,3.793-3.817,5.702-5.711c1.589,1.687,3.217,3.416,5.363,4.401  c0.235-1.676,0.482-3.353,0.733-5.023c4.416-1.146,8.575-3.219,12.374-5.723c0.738-0.588,1.585-0.94,2.536-1.066  c-4.445,3.058-9.28,5.687-14.5,7.166c-0.294,1.677-0.513,3.372-0.677,5.067c-2.604-0.31-3.994-2.748-6.049-4.044  c-2.01,2.149-4.17,4.149-6.184,6.291c0.086-2.256,0.826-4.663-0.131-6.817c-0.695-1.517-2.595-1.672-4.044-1.494  c-2.595,0.349-5.198,0.807-7.691,1.609c-1.251,0.793-2.171,2.02-3.45,2.779c-0.646-0.479-1.261-0.981-1.851-1.508  c4.306-7.104,9.682-13.49,13.833-20.689c1.038-1.749,2.228-3.571,2.261-5.672c0.087-1.847-1.174-3.707-3.044-4.035  c-3.146-0.961-6.237,0.484-9.068,1.711c1.435-3.025,2.933-6.161,5.401-8.494c0.895-0.908,2.238-1.275,3.078-2.203  c-1.764-3.812-3.319-7.92-2.928-12.199c4,0.081,8.542,0.628,11.89-2.064c4.199-3.879,7.204-8.841,9.91-13.828  C453.693,281.663,454.351,276.991,455.887,272.642z"/>
<path fill="#CCCCCC" d="M454.244,279.919c0.614-2.088,0.995-4.253,1.942-6.229c0.681,2.377,1.048,4.836,1.3,7.295  c0.99,8.19,0.961,16.612-1.17,24.628c-0.676,2.135-0.081,4.604,1.378,6.271c2.072,1.356,4.691,0.661,7.006,0.705  c-1.739,2.613-4.243,4.594-6.871,6.252c-2.072,1.093-4.503,1.164-6.647,2.082c-0.077,4.871,1.69,10.046-0.509,14.674  c-2.367-3.6-5.334-8.064-10.111-8.189c-5.465,7.16-9.341,15.374-14.853,22.501c4.319-0.971,8.557-2.378,12.972-2.898  c0.107-1.89-0.11-3.774-0.521-5.615c2.175,0.28,3.996,1.528,5.272,3.276c0.578-2.208,2.086-4.063,4.231-4.89  c0.062,1.7,0.106,3.405,0.208,5.106c4.58,0.561,9.276,0.913,13.789-0.348l0.445,0.141l0.077,0.573  c-3.799,2.504-7.958,4.577-12.374,5.723c-0.251,1.671-0.498,3.348-0.733,5.023c-2.146-0.985-3.774-2.715-5.363-4.401  c-1.909,1.894-3.827,3.783-5.702,5.711c0.016-2.029,0.498-4.313-0.695-6.126c-0.938-1.237-2.668-1.426-4.098-1.281  c-2.318,0.262-4.613,0.735-6.875,1.305c-1.822,0.388-2.958,1.996-4.33,3.103c-0.438-0.401-0.868-0.797-1.294-1.192  c4.339-6.993,9.625-13.356,13.736-20.492c1.11-1.865,2.333-3.88,2.231-6.13c-0.174-1.596-1.02-3.364-2.667-3.852  c-2.952-1.048-6.146-0.247-8.934,0.913c1.802-3.808,4.117-7.799,8.291-9.346c-2.001-3.705-3.454-7.816-3.343-12.078  c3.15-0.115,6.454,0.416,9.45-0.831c2.962-1.139,4.779-3.908,6.746-6.242C449.523,290.398,452.669,285.465,454.244,279.919z"/>
<path fill="#007AC1" d="M249.031,275.212c6.61,4.223,13.181,8.571,19.139,13.684c1.217,0.855,1.23,2.438,1.638,3.744  c2.448,9.243,7.632,17.993,15.402,23.719c6.079,4.561,13.766,6.755,21.327,6.57c9.063,0.087,18.056-3.015,25.327-8.387  c3.184-2.203,5.904-4.968,8.832-7.485c0.705,0.773,1.387,1.566,2.054,2.378c-9.35,11.799-23.912,19.844-39.136,19.775  c-10.712,0.262-21.642-2.469-30.575-8.489c-6.919-4.619-12.388-11.22-16.156-18.597c-2.325-4.526-3.755-9.436-4.962-14.359  C250.504,283.692,249.906,279.417,249.031,275.212z"/>
<path fill="#F3F3F3" d="M270.45,291.118c3.758,4.099,6.479,9.484,6.521,15.124C273.942,301.632,271.648,296.51,270.45,291.118z"/>
<path fill="#F3F3F3" d="M251.838,296.433c-0.01-1.179,0.207-2.338,0.425-3.489c3.315,11.949,10.919,22.763,21.424,29.45  c-4.543,7.236-13.395,11.054-21.796,10.406C251.809,320.677,251.91,308.555,251.838,296.433z"/>
<path fill="#CCCCCC" d="M207.3,295.834c1.242-0.016,2.488-0.016,3.74-0.024c3.016,8.04,6.644,15.978,12.036,22.728  c5.179,6.406,12.064,11.679,20.104,13.862c5.977,1.585,12.432,2.12,18.418,0.279c5.189-1.677,9.923-5.024,12.892-9.639  c4.077,2.106,8.247,4.087,12.707,5.262c-6.373,6.846-15.404,10.876-24.617,12.007c-8.17,1.126-16.553,0.165-24.357-2.444  c-4.232-1.421-8.406-3.034-12.692-4.296c-2.097-0.545-4.652-0.425-6.243,1.232c-1.454,1.555-1.894,3.729-2.498,5.711  c-1.169-0.16-2.58,0.353-3.581-0.367C211.228,325.375,209.31,310.6,207.3,295.834z"/>
<path fill="#393938" d="M105.701,320.336c0.792-1.436,1.363-3.098,2.706-4.132c-1.367,6.208-2.237,13.094,0.841,18.969  c1.058,2.231,3.493,3.126,5.474,4.334c-2.527,1.657-5.407,2.628-8.011,4.141c1.595,2.662,1.112,5.841,0.687,8.755  c-1.909-1.479-2.494-4.306-4.764-5.301c-2.291-0.304-2.764,2.285-3.513,3.86c-0.753,0.038-1.42-0.333-2.092-0.608  c0.405-2.223,1.159-4.837-0.455-6.765c-1.449-1.792-3.957-1.643-6.035-1.594c1.121-2.633,4.126-3.696,6.73-4.204  c-0.396-2.44-1.179-4.792-1.502-7.242c1.435,0.792,2.783,1.734,4.116,2.691C102.083,329.061,103.531,324.535,105.701,320.336z"/>
<path fill="#393938" d="M396.588,318.209c3.75,5.048,5.542,11.247,8.152,16.915c1.646-0.41,2.864-1.667,4.31-2.479  c-0.275,2.475-1.146,4.832-1.437,7.312c2.644,0.251,5.489,1.502,6.736,3.976c-2.093-0.019-4.633-0.246-6.06,1.619  c-1.638,2.02-0.763,4.695-0.517,7.016c-0.716,0.116-1.425,0.228-2.136,0.328c-0.295-0.971-0.585-1.941-0.86-2.912  c-0.99-0.712-2.487-1.33-3.531-0.407c-1.318,1.512-2.329,3.266-3.57,4.837c-0.618-2.918-0.977-6.141,0.639-8.818  c-2.591-1.502-5.446-2.474-7.982-4.077c1.84-1.126,4.082-1.928,5.193-3.914c2.329-4.097,2.521-8.982,2.092-13.567  C397.453,322.065,396.786,320.176,396.588,318.209z"/>
<path fill="#CCCCCC" d="M100.203,334.047c2.474-5.136,4.257-10.596,7.126-15.539c-1.029,5.783-1.291,12.143,1.735,17.404  c0.875,1.585,2.536,2.392,4.005,3.318c0.019,0.14,0.067,0.42,0.091,0.562c-2.305,1.387-4.884,2.236-7.199,3.614  c1.527,2.284,1.503,5.097,1.053,7.715c-1.101-1.218-1.918-2.651-3-3.879c-1.237-1.174-3.199-0.599-4.204,0.594  c-0.43,0.859-0.614,1.812-0.899,2.729c-0.367-0.174-0.729-0.338-1.097-0.502c0.015-2.102,0.851-4.407-0.479-6.286  c-1.168-2.102-3.759-2.329-5.899-2.463c1.652-1.881,4.063-2.745,6.474-3.117c-0.396-2.218-0.98-4.388-1.435-6.585  C97.729,332.404,98.961,333.235,100.203,334.047z"/>
<path fill="#CCCCCC" d="M397.656,320.813c3.044,4.702,4.58,10.196,7.06,15.201c1.261-0.793,2.492-1.624,3.734-2.455  c-0.382,2.266-1.106,4.464-1.334,6.759c2.393,0.233,4.841,1.097,6.383,3.04c-2.039,0.092-4.469,0.237-5.697,2.141  c-1.511,1.942-0.835,4.468-0.512,6.676c-0.332,0.083-1.005,0.237-1.343,0.315c-0.246-0.869-0.493-1.734-0.71-2.6  c-1.062-1.068-2.687-1.551-4.083-0.864c-1.242,1.255-2.005,2.913-3.339,4.097c-0.391-2.647-0.362-5.412,1.063-7.764  c-2.426-1.354-5.016-2.382-7.465-3.677c1.551-1.315,3.619-2.117,4.6-4.016C398.815,332.521,398.444,326.418,397.656,320.813z"/>
<path d="M160.178,329.825c1.126-1.126,2.043-2.479,3.329-3.436c0.831,0.401,1.411,1.16,2.068,1.788  c3.362,3.436,6.832,6.764,10.16,10.237c-0.947,0.904-1.802,1.895-2.575,2.953c-2.242-2.717-4.407-5.548-7.103-7.833  c-2.054,2.396-4.31,4.619-6.306,7.061c0.14,0.965,1.242,1.496,1.821,2.235c1.667,1.833,3.668,3.301,5.421,5.034  c-0.923,0.857-1.773,1.788-2.551,2.774c-2.193-2.653-4.436-5.314-7.132-7.47c-3.353,3.725-6.682,7.47-10.113,11.117  c-1.435-1.754-3.015-3.392-4.797-4.792C148.263,342.879,154.273,336.401,160.178,329.825z"/>
<path d="M332.168,332.747c1.6-1.604,3.102-3.294,4.605-4.989c5.895,5.976,11.919,11.822,17.837,17.774  c0.596,0.624,1.238,1.203,1.939,1.715c2.246-2.647,4.425-5.357,6.448-8.18c0.744,1.103,1.707,2.045,2.804,2.808  c-3.91,4.247-7.735,8.566-11.581,12.872c-6.335-6.132-12.525-12.408-18.806-18.583C334.357,335.004,332.98,334.1,332.168,332.747z"/>
<path fill="#9F9F9F" d="M41.692,342.161C40.735,340.836,40.629,343.275,41.692,342.161z"/>
<path d="M320.664,342.416c0.688-0.194,0.942,0.608,1.306,1.014c5.092,7.21,10.146,14.457,15.325,21.608  c2.75-2.106,5.116-4.662,7.847-6.77c0.56,1.131,1.289,2.175,2.252,3.01c-4.547,3.551-9.002,7.258-13.713,10.59  c-5.903-8.619-12.199-16.977-17.974-25.674C317.538,345.179,319.113,343.802,320.664,342.416z"/>
<path fill="#393938" d="M463.521,344.068c0.396-1.381,2.199-1.411,3.329-1.851c-0.595,0.726-1.275,1.362-1.985,1.968  C464.53,344.155,463.859,344.098,463.521,344.068z"/>
<path fill="#696969" d="M462.25,343.889l0.261-0.236l0.406,0.202l-0.015,0.45l-0.416,0.188  C462.43,344.343,462.312,344.039,462.25,343.889z"/>
<path d="M178.741,346.135c5.59-1.381,11.422,0.846,15.804,4.306c3.904,2.952,6.479,7.716,6.349,12.664  c-0.271,5.913-3.165,11.991-8.387,15.056c-3.721,2.27-8.412,2.67-12.543,1.363c-4.248-1.339-8.122-3.978-10.799-7.554  c-2.44-3.354-3.507-7.743-2.609-11.817C167.787,353.818,172.208,347.658,178.741,346.135z"/>
<path fill="#808080" d="M183.586,350c3.783-1.139,8.107,0.783,10.011,4.194c1.599,2.885,1.358,6.426,0.382,9.479  c-1.387,4.083-3.894,7.833-7.32,10.479c-2.029,1.513-4.663,2.524-7.209,1.963c-3.793-0.753-6.953-4.196-7.083-8.111  c-0.343-4.184,1.551-8.138,3.826-11.515C178.04,353.755,180.383,351.108,183.586,350z"/>
<path d="M299.401,354.837c1.057-0.444,2.096-0.937,3.145-1.415c8.074,7.987,16.123,15.997,24.265,23.917  c-2.378,1.003-4.773,2.003-6.9,3.491c-2.189-2.57-4.478-5.048-6.798-7.493c-3.184,1.456-6.315,3.033-9.455,4.582  c0.255,3.351,0.415,6.74,1.102,10.039c-1.291,0.662-2.58,1.337-3.962,1.782C300.377,378.106,299.748,366.477,299.401,354.837z"/>
<path fill="#393938" d="M95.989,353.847c0.623,0.014,1.247,0.029,1.875,0.054c0.082,3.396,0.589,6.822,2.053,9.92  c3.135,6.783,8.754,11.869,13.847,17.162c4.459,4.541,8.804,9.202,13.181,13.827c2.537,2.714,5.556,4.93,8.77,6.773  c0.961,0.599,2.029,1.073,2.845,1.879c0.155,1.957-0.672,3.822-1.232,5.664c-4.101-2.194-7.982-4.813-12.267-6.668  c-4.402-1.952-8.997-3.601-13.779-4.28c-0.744-0.006-2.247-0.345-2.228,0.821c0.073,1.757,0.971,3.392,0.985,5.17  c-2.952-0.775-4.773-3.291-6.947-5.214c-0.831,1.044-1.604,2.199-2.769,2.907c-1.643,1.041-3.614,1.307-5.494,1.635  c0.715-2.654,1.744-5.246,1.778-8.031c-4.083-2.285-8.88-2.416-13.437-2.627c1.348-0.223,2.711-0.407,4.078-0.331  c3.377,0.456,7.213,0.604,9.89,2.939c-0.024,2.551-0.836,4.999-1.576,7.421c1.59-0.339,3.262-0.624,4.629-1.56  c1.175-0.765,1.904-1.995,2.663-3.131c2.271,1.667,3.923,4.121,6.566,5.275c-0.29-1.74-1.145-3.489-0.739-5.271  c0.778-0.859,2.068-0.556,3.087-0.504c9.137,1.531,17.472,5.899,25.25,10.756c0.518-1.546,0.89-3.135,1.145-4.74  c-4.126-2.429-8.31-4.91-11.581-8.47c-6.213-6.672-12.553-13.22-18.911-19.757c-4.716-4.93-9.093-10.794-10.04-17.732  c-0.29-1.191,0.193-2.825-1.044-3.569c-0.329,2.265-0.469,4.556-0.691,6.842c-3.807-0.629-5.855-4.223-8.953-6.104  c-0.02,0.614-0.329,1.396,0.348,1.804c4.981,4.661,9.605,9.812,13.186,15.645c-1.305,0.2-2.619,0.295-3.938,0.339  c0.083,1.076,0.165,2.163,0.256,3.251c7.021,2.378,13.838,5.837,19.124,11.121c3.136,3.059,5.711,6.641,7.919,10.409  c-0.468,0.545-0.937,1.084-1.401,1.638c-4.04-2.587-8.875-3.561-13.62-3.471c-1.696-1.934-2.165-4.506-2.034-7.001  c-0.972,1.117-1.933,2.237-2.865,3.393c-0.908-1.575-2.039-2.999-3.194-4.398l-0.106-0.225c1.45,0.439,2.368,2.386,3.402,3.608  c1.053-1.296,2.146-2.57,3.488-3.57c-0.232,2.532-0.469,5.528,1.508,7.483c4.608,0.306,9.319,1.006,13.34,3.465  c0.203-0.241,0.608-0.729,0.812-0.971c-3.625-6.345-8.678-11.968-14.998-15.712c-3.744-2.326-7.847-3.953-11.968-5.455  c-0.078-1.464-0.15-2.929-0.228-4.39c1.189,0.209,2.392,0.314,3.6,0.214c-1.29-2.497-3.131-4.647-4.89-6.813  c-2.71-3.271-5.667-6.333-8.856-9.135c0.435-0.629,0.87-1.251,1.305-1.865c2.841,1.897,4.836,5.072,8.238,6.087  C95.603,358.187,95.951,356.032,95.989,353.847z"/>
<path fill="#CCCCCC" d="M96.588,354.167c1.237,0.744,0.754,2.378,1.044,3.569c0.947,6.938,5.324,12.803,10.04,17.732  c6.358,6.537,12.698,13.085,18.911,19.757c3.271,3.56,7.455,6.041,11.581,8.47c-0.255,1.605-0.627,3.194-1.145,4.74  c-7.778-4.856-16.113-9.225-25.25-10.756c-1.02-0.052-2.309-0.355-3.087,0.504c-0.405,1.781,0.449,3.53,0.739,5.271  c-2.643-1.154-4.295-3.608-6.566-5.275c-0.758,1.136-1.488,2.366-2.663,3.131c-1.367,0.936-3.039,1.221-4.629,1.56  c0.74-2.422,1.552-4.87,1.576-7.421c-2.677-2.335-6.513-2.483-9.89-2.939c-1.565-0.182-3.136-0.36-4.667-0.742  c2.3-1.188,4.89-1.749,7.47-1.725c2.821,0.019,5.643-0.093,8.455,0.182c-0.474-1.985-1.059-3.938-1.667-5.884  c1,0.816,1.981,1.651,3.03,2.407c0.3,0.274,0.589,0.572,0.855,0.887c1.155,1.399,2.286,2.823,3.194,4.398  c0.933-1.155,1.894-2.275,2.865-3.393c-0.13,2.495,0.338,5.067,2.034,7.001c4.745-0.09,9.581,0.884,13.62,3.471  c0.464-0.554,0.933-1.093,1.401-1.638c-2.208-3.769-4.783-7.351-7.919-10.409c-5.286-5.284-12.103-8.743-19.124-11.121  c-0.091-1.088-0.173-2.175-0.256-3.251c1.319-0.044,2.633-0.139,3.938-0.339c-3.581-5.832-8.205-10.983-13.186-15.645  c-0.676-0.407-0.367-1.189-0.348-1.804c3.097,1.881,5.146,5.475,8.953,6.104C96.12,358.722,96.26,356.431,96.588,354.167z"/>
<path fill="#393938" d="M407.102,356.042c0.599-0.044,1.208-0.089,1.821-0.122c0.164,2.165,0.319,4.335,0.46,6.504  c3.479-0.836,5.518-4.106,8.344-6.055c0.46,0.565,0.924,1.137,1.378,1.716c-4.841,4.116-9.022,8.968-12.746,14.098  c-0.46,0.586-0.695,1.29-0.923,1.993c1.159,0.019,2.329-0.055,3.482-0.253c-0.135,1.41-0.105,2.842-0.318,4.246  c-4.943,1.914-9.92,3.921-14.248,7.036c-5.281,3.657-9.422,8.717-12.706,14.19c0.211,0.261,0.631,0.778,0.839,1.039  c4.117-2.251,8.784-3.359,13.471-3.286c1.808-2.14,1.808-4.986,1.532-7.619c1.343,1.03,2.357,2.396,3.537,3.604  c1.942-3.257,4.831-5.835,7.942-7.947c-0.545,2.242-1.595,4.352-1.841,6.667c2.357-0.499,4.773-0.249,7.166-0.316  c3.377,0.119,7.194,0.521,9.712,3.036c-5.287,0.475-10.948,0.136-15.729,2.839c0.077,2.752,0.817,5.444,1.908,7.966  c-1.94-0.198-3.951-0.521-5.607-1.613c-1.146-0.746-1.92-1.885-2.741-2.939c-2.217,1.877-3.952,4.702-7.058,5.151  c0.521-1.895,1.222-3.773,1.121-5.77c-2.451-0.434-4.852,0.377-7.205,0.933c-6.841,1.92-13.253,5.146-19.234,8.945  c-0.585,0.347-1.194,0.661-1.807,0.954c-0.596-1.752-1.204-3.536-1.301-5.396c1.696-1.624,4.029-2.435,5.89-3.88  c4.45-2.874,7.727-7.087,11.374-10.848c4.817-5.005,9.64-10.011,14.466-15.007c3.489-3.84,6.644-8.194,8.151-13.218  C406.914,360.539,406.971,358.274,407.102,356.042z"/>
<path fill="#393938" d="M131.516,356.273c3.943,3.039,6.639,7.461,8.431,12.048c0.715,1.692,0.972,3.547,1.773,5.212  c2.338-0.437,3.561-2.858,5.71-3.726c0.445,3.555-0.821,6.922-1.773,10.271c0.739,2.34,1.594,4.652,1.947,7.098  c-1.667-0.58-3.18-1.54-4.885-2.001c-0.84-0.249-1.874,0.198-1.976,1.136c-0.227,2.668,0.686,5.252,1.078,7.866  c-1.121-0.006-2.324,0.301-3.392-0.095c-0.469-3.094-0.576-6.659-2.561-9.156c-2.223,0.206-3.407,2.415-4.948,3.752  c-0.168-2.917,1.334-5.677,1.18-8.564c-2.431-2.581-5.301-5.23-5.972-8.866c2.266,0.933,4.276,3.034,6.89,2.72  c1.165-0.792,1.566-2.272,1.677-3.601c0.271-3.295-0.377-6.604-1.43-9.716C132.801,359.137,131.738,357.863,131.516,356.273z"/>
<path fill="#CCCCCC" d="M407.475,356.699c0.27-0.083,0.812-0.247,1.081-0.33c0.077,2.224,0.155,4.465,0.59,6.654  c3.397-0.72,5.437-3.726,8.106-5.644c0.345,0.077,1.025,0.226,1.368,0.299c-5.068,5.05-10.257,10.177-13.914,16.375  c0.801,0.924,2.518,0.295,3.657,0.522c-0.039,1.058-0.077,2.123-0.102,3.191c-4.6,1.925-9.325,3.693-13.441,6.572  c-5.745,3.831-10.258,9.243-13.756,15.148c0.498,0.521,1.005,1.046,1.512,1.575c3.987-2.576,8.799-3.558,13.5-3.411  c1.705-1.952,2.223-4.553,2.054-7.079c1.004,1.131,1.977,2.294,2.938,3.468c1.579-3.188,4.237-5.643,7.059-7.73  c-0.604,1.964-1.251,3.924-1.638,5.943c2.904-0.455,5.855-0.276,8.783-0.266c2.537,0.192,5.286,0.475,7.33,2.145  c-5.001,0.567-10.441,0.261-14.833,3.138c0.106,2.627,0.884,5.146,1.565,7.661c-1.739-0.412-3.608-0.724-5.015-1.903  c-0.972-0.748-1.571-1.841-2.208-2.854c-2.359,1.575-3.817,4.362-6.669,5.184c0.436-1.74,1.165-3.521,0.735-5.338  c-0.918-0.594-2.073-0.432-3.097-0.32c-6.774,1.166-13.177,3.915-19.177,7.198c-2.068,1.088-3.947,2.506-6.063,3.498  c-0.47-1.548-0.865-3.121-1.093-4.721c3.633-2.147,7.33-4.3,10.373-7.266c2.827-2.799,5.455-5.786,8.214-8.657  c4.648-4.848,9.403-9.601,13.959-14.538C403.777,370.086,407.619,363.728,407.475,356.699z"/>
<path fill="#393938" d="M67.376,364.379c0.329-2.116,0.502-4.255,0.758-6.377c1.778,0.687,3.614,1.396,5.03,2.721  c1.338,1.203,2.199,2.81,3.107,4.342c1.087-1.236,1.797-2.922,3.358-3.655c1.072-0.586,2.314-0.629,3.499-0.744  c-0.958,2.217-1.619,4.551-2.02,6.932c2.232,0.661,4.474,1.334,6.784,1.659c1.14,0.212,2.353,0.293,3.377,0.89  c0.657,0.854,0.435,2.022,0.41,3.028c-0.594,0.366-1.251-0.081-1.851-0.209c-2.71-0.922-5.406-2.236-8.344-2.106  c-0.198,1.258-0.502,2.552-0.223,3.831c0.256,1.914,1.571,3.402,2.585,4.973c-3.324-0.575-5.958-2.978-8.112-5.426  c-2.228,2.552-5.619,3.709-8.963,3.338c0.556-2.004,1.372-4.14,0.657-6.209c-0.299-0.737-1.111-1.003-1.744-1.358  c-2.691-1.25-5.368-2.589-8.248-3.346c-1.928-0.518-3.933-0.528-5.904-0.713C55.95,362.365,62.226,362.795,67.376,364.379z"/>
<path fill="#393938" d="M370.367,361.25c0.922-1.082,1.899-2.155,3.17-2.832c-2.082,3.812-3.416,8.084-3.469,12.447  c-0.01,1.762,0.212,3.763,1.579,5.034c2.706,0.713,4.855-1.716,7.243-2.562c-1.121,3.432-3.479,6.33-6.209,8.63  c0.174,2.928,1.164,5.731,1.353,8.662c-1.517-1.554-2.898-3.552-5.208-3.898c-1.504,2.923-2.184,6.185-2.319,9.454  c-1.116,0-2.228,0-3.334,0.008c0.401-2.773,1.431-5.553,0.961-8.386c-0.55-0.843-1.671-0.884-2.512-0.534  c-1.445,0.545-2.808,1.28-4.257,1.812c0.531-2.267,0.971-4.571,1.986-6.684c-0.695-3.468-2.431-6.897-1.827-10.555  c2.219,0.927,3.445,3.619,6.016,3.714C364.579,370.338,366.913,365.323,370.367,361.25z"/>
<path fill="#CCCCCC" d="M68.536,358.76c1.391,0.527,2.807,1.097,3.947,2.088c1.667,1.368,2.614,3.344,3.754,5.125  c0.985-1.052,1.677-2.332,2.643-3.39c0.875-0.914,2.189-1.083,3.338-1.411c-0.55,1.846-1.145,3.681-1.526,5.571  c-0.159,0.518,0.024,1.052,0.474,1.377c3.208,1.386,6.856,1.244,10.074,2.589c-0.063,0.687-0.121,1.372-0.179,2.063  c-3.204-0.995-6.31-2.497-9.731-2.557c-1.415,2.787-0.512,5.979,1.034,8.5c-2.637-1.123-4.86-3.026-6.498-5.363  c-2.078,2.416-5.112,4.043-8.369,3.758c0.71-2.201,1.198-4.701-0.005-6.832c-4.518-2.164-9.117-4.536-14.224-4.826  c4.31-2.557,9.648-2.164,14.137-0.314C68.271,363.124,68.386,360.916,68.536,358.76z"/>
<path fill="#A2A2A2" d="M133.338,358.83C133.053,358.659,133.053,358.659,133.338,358.83z"/>
<path fill="#CCCCCC" d="M133.338,358.83c4.329,3.961,6.421,9.755,7.812,15.321c2.488-0.049,3.918-2.329,5.865-3.52  c0.174,3.41-1.13,6.61-2.077,9.82c1.155,1.757,1.502,3.853,1.942,5.872c-1.377-0.583-2.687-1.366-4.155-1.681  c-1.087-0.217-2.513,0.401-2.499,1.667c-0.208,2.514,0.585,4.957,0.928,7.427c-0.744-0.006-1.488-0.011-2.232-0.011  c-0.227-3.303-1.053-6.54-2.498-9.522c-2.034,0.152-3.522,1.567-4.841,2.961c0.242-2.442,1.072-4.791,1.183-7.247  c-2.396-2.188-4.672-4.617-5.923-7.676c2.034,0.94,4.054,2.793,6.445,2.183c1.966-1.473,2.093-4.222,1.996-6.464  C135.227,364.81,134.072,361.848,133.338,358.83z"/>
<path fill="#393938" d="M431.835,362.782c1.393-1.35,3.217-2.079,5.016-2.722c0.192,2.17,0.227,4.367,0.875,6.469  c5.088-2.114,11.088-1.811,15.712,1.291c-2.435,0.363-4.958,0.252-7.281,1.174c-2.836,1.035-5.668,2.188-8.291,3.692  c-1.445,2.028-0.396,4.609,0.188,6.765c-1.629-0.06-3.349,0.149-4.881-0.523c-1.555-0.574-2.83-1.675-4.02-2.792  c-2.097,2.478-4.726,4.793-7.991,5.46c1.995-2.34,3.546-5.677,2.193-8.687c-3.518-0.339-6.673,1.632-9.953,2.557  c-0.183-1.122-0.126-2.242,0.13-3.34c3.334-1.175,7.243-0.966,10.283-2.73c-0.286-2.324-1.025-4.577-1.948-6.722  c1.565,0.174,3.262,0.398,4.479,1.511c0.851,0.849,1.416,1.936,2.073,2.947C429.685,365.775,430.424,364.007,431.835,362.782z"/>
<path d="M215.891,361.487c5.03-0.657,10.301,0.507,14.524,3.323c3.348,2.224,5.542,5.968,6.136,9.915  c0.778,5.116-0.382,10.664-3.726,14.703c-2.246,2.752-5.479,4.677-8.972,5.322c-4.078,0.882-8.359,0.049-12.147-1.564  c-4.58-1.977-8.233-6.189-9.001-11.189c-0.995-6.312,0.986-13.467,6.18-17.484C210.9,362.901,213.354,361.902,215.891,361.487z"/>
<path fill="#CCCCCC" d="M429.994,365.84c1.401-2.44,3.71-4.591,6.586-4.982c-0.04,2.098,0.12,4.224,0.902,6.194  c3.237-1.073,6.707-1.99,10.119-1.174c1.245,0.371,2.768,0.515,3.599,1.656c-4.793,0.388-9.205,2.508-13.428,4.645  c-1.83,1.806-0.908,4.701-0.353,6.876c-3.256,0.347-6.301-1.269-8.354-3.706c-1.624,2.274-3.744,4.425-6.508,5.189  c1.604-2.373,2.295-5.418,1.168-8.143c-3.603-0.382-6.71,1.711-10.142,2.332c0.18-0.859-0.086-2.419,1.165-2.554  c2.238-0.526,4.543-0.729,6.761-1.354c0.975-0.276,2.415-0.301,2.772-1.483c-0.247-2.111-0.99-4.121-1.638-6.127  c1.154,0.203,2.406,0.406,3.305,1.247c1.02,0.987,1.632,2.305,2.552,3.387C429.222,367.391,429.512,366.504,429.994,365.84z"/>
<path fill="#CCCCCC" d="M363.753,376.17c1.376-5.783,3.721-11.615,8.112-15.782c-1.241,3.92-2.638,7.987-2.161,12.157  c0.277,1.426,0.683,3.193,2.094,3.909c2.338,0.439,4.266-1.296,6.241-2.223c-1.159,2.947-3.207,5.528-5.749,7.407  c-0.02,2.57,0.749,5.037,1.164,7.557c-1.415-1.329-2.895-2.894-4.99-2.866c-1.397,2.934-2.193,6.111-2.427,9.352  c-0.767,0.002-1.531,0.013-2.289,0.021c0.309-2.468,1.174-4.895,0.942-7.407c-0.078-1.212-1.459-1.912-2.558-1.633  c-1.391,0.345-2.646,1.068-3.955,1.624c0.227-2.068,0.646-4.164,1.845-5.91c-1.115-3.123-2.271-6.339-2.145-9.706  C359.96,373.663,361.24,376.086,363.753,376.17z"/>
<path d="M266.966,365.52c4-0.783,7.952-1.803,11.948-2.605c2.426-0.346,5.209-0.472,7.214,1.196  c2.662,2.323,3.098,6.759,0.956,9.576c-1.131,1.694-3.014,2.584-4.7,3.604c2.189,0.024,4.551-0.117,6.493,1.092  c2.57,1.465,3.594,4.658,3.388,7.476c-0.136,3.14-2.348,5.84-5.046,7.285c-2.355,1.363-5.105,1.67-7.705,2.312  c-2.117,0.442-4.202,1.022-6.339,1.345C271.228,386.348,268.859,375.981,266.966,365.52z"/>
<path fill="#F3F3F3" d="M302.99,363.045c2.657,2.687,5.353,5.335,7.909,8.123c-2.449,1.192-4.851,2.494-7.369,3.546  C303.373,370.827,303.121,366.936,302.99,363.045z"/>
<path fill="#808080" d="M217.799,364.824c2.879-1.022,6.329-0.409,8.663,1.575c2.581,2.31,3.387,5.962,3.325,9.303  c-0.271,4.135-1.493,8.267-3.789,11.739c-1.71,2.397-4.291,4.628-7.401,4.555c-3.446,0.19-6.904-1.922-8.185-5.143  c-1.6-3.915-1.01-8.359,0.223-12.293C211.832,370.699,213.804,366.417,217.799,364.824z"/>
<path d="M240.097,366.207c3.923-0.03,7.851-0.038,11.774-0.049c3.682-0.02,7.365-0.014,11.046-0.044  c-0.073,1.323-0.068,2.649-0.011,3.978c-2.595-0.431-5.222-0.536-7.847-0.615c0.039,9.601,0.091,19.207,0.121,28.808  c-1.106-0.055-2.213-0.117-3.32-0.117c-1.14,0.012-2.275,0.062-3.411,0.117c-0.063-9.587-0.068-19.172-0.106-28.759  c-2.754,0.03-5.503,0.252-8.223,0.678C240.136,368.864,240.131,367.535,240.097,366.207z"/>
<path fill="#F3F3F3" d="M274.175,366.622c2-0.648,4.542-1.285,6.217,0.414c2.107,2.346,2.394,6.404,0.194,8.785  c-1.174,1.198-2.898,1.556-4.508,1.673C275.647,373.835,274.426,370.303,274.175,366.622z"/>
<path fill="#F3F3F3" d="M276.721,380.275c2.242-0.691,5.156-1.044,6.886,0.906c2.299,2.641,2.797,7.285,0.066,9.822  c-1.145,1.193-2.868,1.343-4.382,1.763C278.417,388.607,277.596,384.437,276.721,380.275z"/>
<path fill="#393938" d="M95.874,383.228c1.58,0.832,3.435,1.943,4.198,3.543l-0.203-0.024c-1.048-0.756-2.029-1.591-3.03-2.407  c0.609,1.946,1.194,3.898,1.667,5.884c-2.812-0.274-5.634-0.163-8.455-0.182c-2.581-0.024-5.17,0.536-7.47,1.725  c-0.043,0.252-0.135,0.753-0.184,1.006c-0.405-0.061-1.227-0.171-1.637-0.229c4.663-4.146,11.363-2.854,17.065-2.923  C97.299,387.452,96.501,385.365,95.874,383.228z"/>
<path d="M141.044,396.583c0.773,0.401,1.542,0.8,2.314,1.218c1.242,4.091,2.735,8.161,4.977,11.821  c1.469,2.117,3.513,4.013,5.981,4.855c5.667,0.58,10.78-3.01,16.447-2.589c5.131,0.067,9.779,3.015,14.954,2.632  c4.339-0.135,8.267-2.342,12.581-2.583c3.044-0.285,6.059,0.401,8.963,1.228c0.165,0.859,0.329,1.714,0.483,2.584  c2.619,0.154,5.267,0.105,7.846,0.662c7.199,1.537,14.447,3.068,21.825,3.383c4.851,0.087,9.683-0.585,14.451-1.415  c5.47-0.954,10.934-2.099,16.496-2.329c6.846-0.306,13.654,0.841,20.332,2.237c2.589,0.911,5.289,1.423,8.05,1.241  c-0.006-0.986,0-1.968-0.006-2.944c0.562-0.23,1.131-0.458,1.711-0.661c0.318,0.246,0.667,0.537,1.005,0.797l0.062,0.011  c3.927,0.339,7.842,0.768,11.766,1.174c0.188-0.357,0.386-0.71,0.594-1.057c0.105-0.03,0.323-0.079,0.43-0.108l0.005,0.019  c-0.483,5.368-0.088,10.78-0.228,16.165c3.406,1.108,7.045,1.795,10.616,1.144c3.835-0.623,7.425-2.432,11.368-2.464  c4.062-0.209,7.871,1.385,11.766,2.25c-0.252,0.122-0.759,0.363-1.016,0.485c-3.396-0.8-6.721-2.175-10.271-1.998  c-4.688-0.201-8.861,2.442-13.495,2.597c-3.04,0.244-6.059-0.363-8.953-1.233c-0.011,1.039-0.005,2.094,0.006,3.14  c-2.808,0.6-5.647,0.974-8.465,1.505c-1.673,2.796-3.107,5.729-4.701,8.56c-3.716,2.519-7.364,5.144-11.076,7.67  c0.175-6.008,3.88-11.045,7.259-15.72c-2.493,0.03-4.822-0.859-7.19-1.485c-4.393-0.9-8.822-1.662-13.296-2.001  c-7.678-0.632-15.282,0.884-22.791,2.28c-2.841,0.482-5.696,0.946-8.576,1.149c-6.329,0.643-12.688-0.217-18.911-1.354  c-5.33-0.897-10.566-2.597-16.032-2.464c3.807,5.312,8.518,10.706,8.731,17.602c-3.309-2.356-6.615-4.721-10.011-6.946  c-1.32-0.792-1.889-2.277-2.562-3.571c-1.092-2.218-2.362-4.335-3.662-6.431c-2.74,0.29-5.441,0.827-8.156,1.29  c-0.009-2.025-0.005-4.053,0.014-6.073c-2.594,0.632-5.218,1.343-7.918,1.212c-5.31,0.131-10.103-3.058-15.452-2.557  c-4.072,0.104-7.769,2.106-11.798,2.445c-2.87,0.229-5.793-0.049-8.533-0.943c-0.512-0.1-0.802-0.569-1.154-0.884  c2.333-0.052,4.701,0.146,7-0.355c4.624-0.908,8.504-3.744,12.654-5.799c-5.344-1.193-10.755-2.601-15.49-5.45  c-3.846-2.247-8.392-3.451-11.49-6.821c0.087-1.691,0.343-3.364,0.706-5.011c0.111,0.155,0.343,0.47,0.458,0.624  c0.628,0.087,1.257,0.176,1.885,0.269C142.459,403.991,140.875,400.415,141.044,396.583z"/>
<path fill="#CCCCCC" d="M141.314,397.055c0.633,0.418,1.619,0.554,1.894,1.364c2.044,5.832,4,12.572,9.707,15.88  c-1.314-0.144-2.595-0.429-3.88-0.708c0.029,0.905,0.971,1.125,1.599,1.502c2.372,1.112,4.928,1.879,7.552,2.053  c1.889,0.111,3.662,0.816,5.42,1.453c2.426,0.93,5.011,1.315,7.538,1.865c2.57,0.47,5.122,1.125,7.745,1.236  c1.445,0.142,3.029,0.331,4.068,1.47c-3.885,0.31-7.774-1.101-11.639-0.225c-1.319,0.206-2.599,0.971-3.961,0.643  c-4.876-1.001-9.77-2.321-14.167-4.713c-3.31-2.145-7.195-3.237-10.422-5.522c-0.71-0.58-1.498-1.158-1.899-2.001  c-0.034-1.236,0.222-2.454,0.416-3.66c0.908,0.067,1.817,0.13,2.726,0.174C142.827,404.351,141.373,400.81,141.314,397.055z"/>
<path fill="#393938" d="M361.49,399.674c0.794-0.385,1.596-0.759,2.402-1.117c0.319,3.872-1.454,7.432-2.348,11.105  c0.748-0.284,1.492-0.585,2.237-0.889c0.28,1.453,0.574,2.903,0.927,4.352c-0.748,1.146-1.656,2.209-2.846,2.914  c-3.241,2.034-6.923,3.229-10.146,5.301c-4.289,2.231-9.012,3.628-13.76,4.474c-0.707-0.027-1.411-0.079-2.111-0.136  c6.281-0.849,12.523-2.7,17.949-6.035c3.552-2.042,8.006-3.023,10.456-6.569c-0.275-1.125-0.503-2.262-0.697-3.392  c-0.884,0.092-1.764,0.184-2.642,0.284c1.034-3.521,2.449-6.986,2.696-10.688c-0.624,0.344-1.609,0.371-1.818,1.192  c-1.594,4.678-3.275,9.515-6.479,13.361c-0.874,1.196-2.768,1.619-3.333,2.855c0.179,0.062,0.536,0.187,0.71,0.252  c-1.078,0.23-2.184,0.287-3.276,0.273c2.662-1.391,5.508-2.909,7.059-5.604C358.723,407.909,360.352,403.844,361.49,399.674z"/>
<path fill="#CCCCCC" d="M361.79,400.471c0.209-0.821,1.194-0.849,1.818-1.192c-0.247,3.701-1.662,7.166-2.696,10.688  c0.878-0.101,1.758-0.192,2.642-0.284c0.194,1.13,0.422,2.267,0.697,3.392c-2.45,3.546-6.904,4.527-10.456,6.569  c-5.426,3.335-11.668,5.187-17.949,6.035c0.7,0.057,1.404,0.108,2.111,0.136c-0.159,0.261-0.488,0.789-0.652,1.049  c-4.794-2.656-10.311-0.74-15.438-0.846c1.896-1.358,4.046-2.315,6.32-2.816c0.499-0.638,1.087-1.199,1.808-1.575  c0.305,0.148,0.903,0.458,1.207,0.606c-0.979,0.204-1.961,0.461-2.812,1.001c4.905-0.482,9.774-1.532,14.467-3.053  c2.038-0.312,4.13-0.106,6.155-0.556c2.503-0.551,4.938-1.497,7.072-2.932c-1.13-0.504-2.279,0.058-3.396,0.247  c-0.174-0.065-0.531-0.189-0.71-0.252c0.565-1.236,2.459-1.659,3.333-2.855C358.515,409.986,360.196,405.149,361.79,400.471z"/>
<path fill="#FEC35A" d="M159.182,414.841c3.256-0.58,6.3-2.088,9.639-2.236c3.474-0.279,6.866,0.704,10.151,1.724  c2.667,0.865,5.508,0.971,8.282,0.735c3.469-0.31,6.644-1.938,10.093-2.343c3.146-0.377,6.431-0.043,9.359,1.206  c-4.624,1.459-9.378,2.465-14.046,3.77c0,4.097-0.015,8.198,0.01,12.301c-3.943,1.383-8.263,1.949-12.345,0.832  c-3.594-1-7.224-2.28-11.017-2.006c-5.764,0.197-11.237,3.871-17.084,2.106c2.445-0.444,4.938-0.816,7.199-1.909  c3.827-1.775,7.344-4.313,11.509-5.284c4.43-1.185,8.938,0.798,13.412-0.016c-1.102-1.868-3.266-2.492-5.073-3.43  c-2.513-1.077-4.788-2.764-7.528-3.237c-4.281-0.977-8.687-0.627-13.03-0.557c-1.677-0.211-3.648-0.119-4.992-1.279  C155.544,415.131,157.389,415.218,159.182,414.841z"/>
<path fill="#393938" d="M298.449,415.923c3.158-1.12,6.604-1.453,9.91-0.87c2.801,0.417,5.431,1.575,8.227,2.017  c3.401,0.551,6.91,0.154,10.157-0.976c4.257-1.456,8.952-2.056,13.32-0.716c-0.614,0.116-1.218,0.235-1.822,0.36  c-2.02-0.217-4.068-0.409-6.083-0.062c-3.465,0.426-6.657,2.025-10.137,2.378c-3.271,0.347-6.667-0.029-9.711-1.296l-0.005-0.019  c-0.106,0.029-0.324,0.078-0.43,0.108l-0.242-0.171c-3.903-1.096-8.3-1.668-12.117,0.054l-0.062-0.011  C299.116,416.46,298.768,416.169,298.449,415.923z"/>
<path fill="#342816" d="M340.063,415.378c3.053,0.864,6.126,1.884,9.349,1.835c1.093,0.014,2.198-0.043,3.276-0.273  c1.116-0.189,2.266-0.751,3.396-0.247c-2.135,1.435-4.569,2.381-7.072,2.932c-2.025,0.449-4.117,0.243-6.155,0.556  c-2.098-0.781-4.334-0.502-6.479-0.119c-2.18,0.268-4.345,0.724-6.383,1.564c-0.721,0.376-1.309,0.938-1.808,1.575  c-2.274,0.501-4.425,1.458-6.32,2.816c5.128,0.105,10.645-1.811,15.438,0.846c4.275,1.793,8.088,4.759,12.736,5.604  c2.295,0.507,4.656,0.328,6.991,0.358c-0.383,0.371-0.687,0.895-1.252,1c-3.532,1.076-7.354,1.329-10.963,0.513  c0.257-0.122,0.764-0.363,1.016-0.485c1.768,0.13,3.535,0.198,5.318,0.06c-2.41-1.012-5.019-1.508-7.31-2.804  c-4.127-2.188-8.344-4.802-13.156-4.864c-3.436,0.096-6.847,1.004-10.287,0.445c1.078-2.088,3.454-2.755,5.406-3.744  c2.122-0.949,4.064-2.321,6.33-2.934c4.237-1.145,8.668-0.99,13.021-0.89c2.354,0.105,4.648-0.499,6.876-1.198  c-4.735,0.513-9.311-0.865-13.79-2.186C338.846,415.614,339.449,415.495,340.063,415.378z"/>
<path fill="#FEC35A" d="M299.517,416.731c3.817-1.722,8.214-1.149,12.117-0.054l0.242,0.171c-0.208,0.347-0.406,0.699-0.594,1.057  C307.358,417.499,303.443,417.07,299.517,416.731z"/>
<path fill="#FEC35A" d="M322.021,418.054c3.479-0.353,6.672-1.952,10.137-2.378c2.015-0.347,4.063-0.154,6.083,0.062  c4.479,1.32,9.055,2.698,13.79,2.186c-2.228,0.699-4.522,1.304-6.876,1.198c-4.353-0.101-8.783-0.255-13.021,0.89  c-2.266,0.612-4.208,1.984-6.33,2.934c-1.952,0.989-4.328,1.656-5.406,3.744c3.44,0.559,6.852-0.35,10.287-0.445  c4.812,0.062,9.029,2.677,13.156,4.864c2.291,1.296,4.899,1.792,7.31,2.804c-1.783,0.139-3.551,0.07-5.318-0.06  c-3.895-0.865-7.703-2.459-11.766-2.25c-3.943,0.032-7.533,1.841-11.368,2.464c-3.571,0.651-7.21-0.035-10.616-1.144  c0.14-5.385-0.256-10.797,0.228-16.165C315.354,418.025,318.751,418.401,322.021,418.054z"/>
<path fill="#FEC35A" d="M193.313,418.393c7.87-1.716,16.176-2.812,24.114-0.881c7.987,1.691,16.109,3.349,24.317,2.871  c10.234-0.6,20.162-4.005,30.473-3.695c6.842,0.391,13.673,1.434,20.249,3.373c6.349,0.737,12.723-0.592,18.979-1.581  c-0.067,5.938,0.14,11.887-0.11,17.818c-6.205,1.044-12.544,2.329-18.848,1.586c-5.992-1.783-12.206-2.771-18.435-3.259  c-12.548-0.984-24.592,4.162-37.115,3.655c-4.783-0.146-9.514-0.992-14.21-1.857c-4.257-0.778-8.456-2.061-12.813-2.085  c-5.576-0.182-11.083,0.843-16.568,1.687C193.327,430.149,193.385,424.268,193.313,418.393z"/>
<path fill="#808080" d="M161.496,417.122c4.238-0.174,8.663-0.154,12.668,1.415c1.793,1.036,3.934,1.6,5.392,3.126l-0.667,0.038  c-2.624-0.111-5.175-0.767-7.745-1.236c-2.527-0.55-5.112-0.936-7.538-1.865c-0.13-0.119-0.396-0.36-0.526-0.482  C162.361,418.03,161.83,417.697,161.496,417.122z"/>
<path fill="#7F7F7F" d="M336.377,420.061c2.146-0.383,4.382-0.662,6.479,0.119c-4.692,1.521-9.562,2.57-14.467,3.053  c0.851-0.54,1.832-0.797,2.812-1.001c3.045-0.618,6.113-1.163,9.094-2.058C338.991,420.055,337.682,419.993,336.377,420.061z"/>
<path fill="#F3F3F3" d="M329.994,421.625c2.038-0.841,4.203-1.297,6.383-1.564c1.305-0.068,2.614-0.006,3.918,0.113  c-2.98,0.895-6.049,1.439-9.094,2.058C330.897,422.083,330.299,421.774,329.994,421.625z"/>
<path d="M260.801,422.72c1.29-0.786,2.652-1.437,3.981-2.147c0.043,3.197,0.004,6.396,0.024,9.599  c-0.652,0.005-1.306,0.021-1.948,0.04c0.019-2.551,0-5.097,0.015-7.643C262.327,422.775,260.854,424.002,260.801,422.72z"/>
<path d="M254.621,422.374c1.067-0.656,2.691-0.87,3.624,0.13c0.492,0.531,0.646,1.282,0.918,1.946l0.077-0.051  c-0.01,2.039,0.14,4.436-1.382,6.035c-0.904,1.02-2.392,1.361-3.677,0.984c-1.716-1.02-1.73-3.281-1.609-5.029  C252.597,424.833,253.239,423.195,254.621,422.374z"/>
<path fill="#FEC35A" d="M255.877,422.633c0.58-0.263,1.087,0.401,1.062,0.944c0.223,1.981,0.262,4.01-0.043,5.986  c-0.111,0.791-1.135,2.068-1.827,1.003c-0.811-1.546-0.376-3.425-0.444-5.105C254.747,424.494,254.625,422.829,255.877,422.633z"/>
<path d="M246.63,423.75c1.464-0.792,3.875-0.734,4.425,1.166c0.672,2.589,0.01,5.835-2.286,7.45  c-0.98,0.681-2.595,1.218-3.449,0.071c0.473,0.024,1.42,0.073,1.894,0.098c1.609-1.082,2.368-3.159,1.725-5.003  c0.261-1.076,0.797-2.854-0.42-3.497c-2.059-0.18-1.74,2.508-1.551,3.842c0.686,0.279,1.372,0.569,2.014,0.943  c-1.242,0.309-2.991,0.879-3.875-0.423C244.229,426.801,244.987,424.542,246.63,423.75z"/>
<path d="M237.314,426.91c0.571-1.695,2.789-1.781,4.078-2.771c0.01,3.208,0,6.421,0.005,9.628c-0.479,0.055-1.439,0.16-1.923,0.214  c-0.039-2.595-0.029-5.187-0.005-7.778C238.754,426.451,238.043,426.704,237.314,426.91z"/>
<path fill="#CCCCCC" d="M201.12,435.537c2.305-0.108,4.644-0.794,6.934-0.247c3.769,4.902,8.161,10.043,8.581,16.504  c-3.218-1.96-6.15-4.354-9.349-6.345c-1.31-0.68-1.807-2.125-2.44-3.351C203.744,439.832,202.396,437.701,201.12,435.537z"/>
<path fill="#CCCCCC" d="M295.304,439.015c2.608-0.437,5.28-0.247,7.895-0.721c-1.372,2.85-3.087,5.522-4.383,8.413  c-3.579,2.28-7.03,4.764-10.466,7.25C288.355,448.209,292.289,443.559,295.304,439.015z"/>
</svg>