<?xml version="1.0" encoding="UTF-8"?>
<!-- Generator: Adobe Illustrator 16.0.0, SVG Export Plug-In . SVG Version: 6.00 Build 0)  -->
<!DOCTYPE svg PUBLIC "-//W3C//DTD SVG 1.1//EN" "http://www.w3.org/Graphics/SVG/1.1/DTD/svg11.dtd">
<svg version="1.1" id="svg18516" xmlns:rdf="http://www.w3.org/1999/02/22-rdf-syntax-ns#" xmlns:cc="http://creativecommons.org/ns#" xmlns:dc="http://purl.org/dc/elements/1.1/" sodipodi:docname="Logo PSG.svg" inkscape:version="0.91 r13725" xmlns:inkscape="http://www.inkscape.org/namespaces/inkscape" xmlns:sodipodi="http://sodipodi.sourceforge.net/DTD/sodipodi-0.dtd" xmlns:svg="http://www.w3.org/2000/svg" xmlns="http://www.w3.org/2000/svg" xmlns:xlink="http://www.w3.org/1999/xlink" x="0px" y="0px" width="510px" height="509.964px" viewBox="0 0 510 509.964" enable-background="new 0 0 510 509.964" xml:space="preserve">
<g id="Layer1000">
	<g id="Layer1001">
		<path id="path2" fill="#E6BD7F" d="M98.217,111.17L84.939,81.198l10.572-4.279c49.734-20.165,106.467-30.592,160.171-30.654    c53.206-0.054,110.264,10.653,159.528,30.654l10.395,4.233l-12.737,29.93v162.652c0,12.983-2.197,24.375-8.483,35.966    c-9.691,17.822-27.43,34.558-42.596,47.756c-12.601,10.933-25.723,21.299-39.165,31.189    c-20.028,14.775-40.469,29.03-60.802,43.377l-6.4,4.517l-6.377-4.562c-24.717-17.608-49.819-34.604-73.847-53.191    c-22.507-17.409-45.233-35.951-62.14-59.056c-10.271-14.04-14.841-27.683-14.841-45.26V111.17z"/>
		<path id="path4" fill="#224771" d="M109.265,108.824l-9.596-21.677c46.221-18.734,101.809-29.773,156.045-29.827    c54.729-0.065,110.784,11.743,155.324,29.827l-9.202,21.677v164.91c0,6.492-0.274,17.991-7.174,30.668    c-6.339,11.698-18.281,25.724-40.115,44.694c-12.447,10.81-25.387,21.007-38.478,30.669    c-16.919,12.493-36.854,26.472-60.602,43.207c-24.976-17.775-49.107-34.052-73.502-52.945    c-20.823-16.077-43.625-34.481-59.997-56.836c-7.878-10.795-12.705-21.926-12.705-38.722V108.824z"/>
		<g id="Layer1002">
			<path id="path6" fill="#E2061E" d="M255.911,57.321v105.502h-74.737V64.03c24.444-4.344,49.632-6.687,74.54-6.709H255.911z"/>
			<path id="path8" fill="#E2061E" d="M350.383,352.664c9.202-9.156,18.112-18.695,23.472-28.602     c5.267-9.692,6.323-19.583,5.834-30.454c-1.011-22.798-11.406-52.07-23.794-78.214c-3.384-7.143-7.212-13.799-10.947-20.502     c-4.509-8.065-10.166-6.067-15.833-14.01V63.919c29.368,5.222,57.381,13.283,81.915,23.228l-9.202,21.677v164.91     c0,6.492-0.274,17.991-7.172,30.668c-6.348,11.698-18.282,25.724-40.116,44.694C353.17,350.291,351.783,351.484,350.383,352.664     L350.383,352.664z"/>
		</g>
		<g id="Layer1003">
			<path id="path11" fill="#FFFFFF" d="M166.318,179.975l-13.681,40.935l23.832-23.006l64.472,17.834l1.715,26.048l-41.172,7.518     l-0.015-2.583l-20.077-23.239l-6.787,13.248l36.234,49.635c5.014-7.12,19.721-16.123,35.909-18.39l-2.791-9.553h23.193     l-2.786,9.553c16.659,2.65,31.097,8.942,36.962,18.39l35.184-49.635l-6.767-13.248l-19.859,23.239l-0.015,2.583l-41.388-7.518     l1.716-26.048l64.476-17.834l23.81,23.006l-13.658-40.935c18.604-12.253,22.201-34.83,18.956-47.208     c-2.358-8.991-6.309-16.088-12.257-21.401c-4.785-4.271-10.894-7.322-17.846-9.573c-10.878-3.502-17.738-2.932-28.854-8.715     c-7.066-3.679-12.9-9.597-16.392-18.971c-9.661,11.617-4.226,24.636,2.573,31.373c6.576,6.488,15.119,11.074,20.884,16.211     c7.472,6.657,6.447,15.763,3.415,21.199c-9.661-7.568-38.722-19.843-59.378-23.568c-29.574,6.657-49.118,16.238-60.092,23.568     c-3.977-5.661-4.494-14.542,2.985-21.199c5.761-5.145,14.316-9.723,20.877-16.211c6.81-6.737,11.955-19.05,3.009-31.373     c-3.502,9.375-9.321,15.292-16.383,18.971c-11.132,5.783-17.975,5.213-28.858,8.715c-6.974,2.251-13.068,5.302-17.842,9.573     c-5.96,5.313-9.918,12.41-12.276,21.401C144.102,145.146,147.692,167.722,166.318,179.975L166.318,179.975z M193.029,170.953     c3.735,0,6.778,2.94,6.778,6.569c0,3.621-3.043,6.568-6.778,6.568c-3.748,0-6.783-2.94-6.783-6.568     C186.246,173.893,189.281,170.953,193.029,170.953z M318.159,170.953c3.744,0,6.776,2.94,6.776,6.569     c0,3.621-3.032,6.568-6.776,6.568c-3.758,0-6.783-2.94-6.783-6.568C311.376,173.893,314.417,170.953,318.159,170.953z      M255.575,186.597c3.751,0,6.79,2.948,6.79,6.572c0,3.629-3.039,6.568-6.79,6.568c-3.736,0-6.779-2.939-6.779-6.568     C248.796,189.545,251.839,186.597,255.575,186.597z"/>
			<path id="path13" fill="#FFFFFF" d="M195.597,220.489l38.029,6.672l-24.827,4.639L195.597,220.489z"/>
			<path id="path15" fill="#FFFFFF" d="M315.213,220.489l-38.019,6.672l24.819,4.639L315.213,220.489z"/>
			<path id="path17" fill="#FFFFFF" d="M223.938,305.627c1.4-15.939,19.889-21.19,31.269-21.146     c11.912,0.062,31.174,4.839,31.879,21.421l-10.947,16.337l-11.041-20.854v-4.533l-19.046-0.03v4.731l-10.936,20.701     L223.938,305.627z"/>
		</g>
	</g>
	<path id="path21" fill="#E6BD7F" d="M147.087,402.731c35.254,12.188,71.087,17.868,108.817,17.945   c37.352,0.076,72.904-6.094,107.876-17.945l-5.069-11.345c17.058-5.359,34.206-12.693,50.682-21.023l-0.216,46.791l36.886,29.597   c-10.833,5.329-21.496,10.214-32.199,14.807l4.876,11.942l-7.143,2.864c-49.194,19.828-104.844,30.27-157.878,30.117   c-53.551-0.169-104.45-10.658-154.28-30.209l-7.234-2.833l5.048-12.249c-10.748-4.609-21.447-9.51-32.314-14.867l36.758-29.244   l-0.21-46.685c16.471,8.329,33.616,15.678,50.681,21.037L147.087,402.731z"/>
	<g id="Layer1004">
		<path id="path23" fill="#224771" d="M129.012,404.14l-26.764,65.011c51.668,20.273,101.219,29.537,151.501,29.643    c51.863,0.185,106.771-10.12,154.993-29.551l-26.635-65.057c-42.933,16.735-84.06,24.223-126.211,24.13    C213.744,428.255,172.251,421.487,129.012,404.14z"/>
		<g id="Layer1005">
			<path id="path25" fill="#224771" d="M79.247,444.73c7.938,3.735,15.962,7.304,24.05,10.719l23.392-56.82l3.904,1.561     c2.633,1.058,5.259,2.083,7.897,3.063l3.234-7.242c-11.051-3.844-21.911-8.36-32.525-13.352l0.179,38.094L79.247,444.73z"/>
			<path id="path27" fill="#224771" d="M431.793,445.128l-30.302-24.314l0.185-38.187c-10.61,4.977-21.467,9.493-32.537,13.337     l3.276,7.333c2.725-0.994,5.421-2.005,8.154-3.077l3.896-1.517l23.381,57.112C415.892,452.417,423.877,448.833,431.793,445.128     L431.793,445.128z"/>
		</g>
	</g>
	<g id="Layer1006">
		<path id="path31" fill="#E6BD7F" d="M76.078,62.125c-0.727-1.757-0.165-3.33,1.358-3.973c1.631-0.682,3.189,0.111,3.683,1.301    c0.253,0.585,0.337,1.083,0.299,1.639c1.152,0.249,2.706,0.068,4.294-0.598c2.676-1.122,3.889-3.024,3.013-5.14    c-0.854-1.999-3.307-2.117-6.116-1.953c-5.222,0.264-9.031,0.165-10.937-4.383c-1.63-3.896,0.252-8.264,5.206-10.347    c4.562-1.921,9.079-1.068,10.308,1.888c0.739,1.734,0.081,3.192-1.348,3.778c-1.7,0.724-3.181-0.122-3.709-1.354    c-0.241-0.605-0.241-0.912-0.218-1.264c-0.846-0.134-2.021-0.03-3.561,0.612c-2.403,1.019-3.307,2.829-2.561,4.616    c0.838,2.01,3.27,2.048,6.106,1.914c5.041-0.283,8.976-0.148,10.89,4.391c1.952,4.647-0.552,8.804-5.566,10.905    C82.374,66.178,77.325,65.103,76.078,62.125L76.078,62.125z"/>
		<path id="path33" fill="#E6BD7F" d="M103.469,52.728l3.081-1.099l-6.113-17.324l-4.604,1.63l1.381,3.919l-4.038,1.436    l-2.679-7.637l21.558-7.599l2.687,7.614l-4.046,1.419l-1.386-3.92l-4.601,1.639l6.12,17.324l3.089-1.106l1.354,3.816    l-10.465,3.702L103.469,52.728z"/>
		<path id="path35" fill="#E6BD7F" d="M121.173,46.484l2.17-0.647l1.144-19.27l-2.752,0.812l-1.129-3.824l14.197-4.161l1.129,3.809    l-2.76,0.808l11.392,15.598l2.171-0.624l1.129,3.847l-9.65,2.829l-1.122-3.816l2.909-0.846l-2.626-3.702l-9.401,2.745    l-0.195,4.547l3.051-0.903l1.122,3.82l-9.654,2.837L121.173,46.484z M135.133,34.051L135.133,34.051l-6.404-8.85l-0.62,10.913    L135.133,34.051z"/>
		<path id="path37" fill="#E6BD7F" d="M250.859,25.427l2.282,0.026l6.783-18.25l-2.909-0.031l0.053-4.023l14.906,0.165l-0.031,4.016    l-2.909-0.031l6.4,18.389l2.289,0.023l-0.046,4.046l-10.151-0.111l0.047-4.004l3.069,0.031l-1.463-4.345l-9.868-0.099    l-1.516,4.318l3.207,0.031l-0.067,4.008l-10.133-0.111L250.859,25.427z M267.977,17.542L267.977,17.542L264.41,7.123l-3.812,10.35    L267.977,17.542z"/>
		<path id="path39" fill="#E6BD7F" d="M150.544,37.986l2.909-0.658l-3.974-17.67l-2.909,0.651l-0.884-3.919l9.65-2.171    c9.209-2.071,15.755,1.505,17.497,9.217c1.749,7.786-2.228,14.136-12.23,16.387l-9.179,2.06L150.544,37.986z M160.343,35.777    L160.343,35.777c6.587-1.473,9.183-5.818,7.966-11.281c-1.263-5.565-5.887-7.747-12.245-6.319l-2.202,0.509l3.966,17.647    L160.343,35.777z"/>
		<path id="path41" fill="#E6BD7F" d="M180.133,31.865l2.962-0.447l-2.706-17.983l-2.94,0.448l-0.62-3.985L196.194,7l1.122,7.415    l-4.256,0.65l-0.528-3.479l-7.683,1.16l1.029,6.928l7.847-1.175l0.57,3.785l-7.84,1.175l1.091,7.346l7.721-1.167l-0.509-3.465    l4.249-0.643l1.114,7.399l-19.396,2.917L180.133,31.865z"/>
		<path id="path43" fill="#E6BD7F" d="M215.463,27.004l3.142-0.165l-0.091-18.389l-3.295,0.171l-0.211-4.061l7.242-0.36    l8.869,14.297l7.384-15.139L245.692,3l0.202,4.077l-3.292,0.149l1.788,18.312l3.143-0.165l0.195,4.054L236.88,29.99l-0.211-4.065    l3.174-0.165l-1.206-13.612l-6.89,13.658l-0.605,0.039l-8.233-12.889l0.164,13.658l3.192-0.165l0.211,4.069l-10.803,0.54    L215.463,27.004z"/>
		<path id="path45" fill="#E6BD7F" d="M281.742,26.047l2.985,0.246l1.532-18.125l-2.979-0.253l0.329-4.02l10.934,0.938l-0.338,4.008    L290.76,8.55l-1.538,18.163l7.181,0.604l0.322-3.69l4.34,0.368l-0.657,7.675l-19.017-1.608L281.742,26.047z"/>
		<path id="path47" fill="#E6BD7F" d="M305.468,28.133l2.971,0.41l2.487-18.018l-2.971-0.413l0.552-3.985l10.663,1.474l-0.559,3.992    l-3.215-0.448l-0.949,6.868l12.004,1.676l0.94-6.882l-3.245-0.437l0.552-4l10.679,1.482l-0.565,3.992l-2.971-0.402l-2.474,18.014    l2.964,0.417l-0.552,3.98l-10.665-1.473l0.545-3.997l3.245,0.448l0.995-7.224l-12.003-1.669l-0.989,7.227l3.239,0.448    l-0.567,3.992l-10.641-1.474L305.468,28.133z"/>
		<path id="path49" fill="#E6BD7F" d="M337.352,32.956l2.895,0.624l3.82-17.737l-2.909-0.613l0.842-3.928l19.116,4.107l-1.576,7.307    l-4.212-0.911l0.751-3.418l-7.61-1.631l-1.462,6.86l7.748,1.658l-0.819,3.735l-7.717-1.676l-1.562,7.254l7.642,1.638l0.719-3.434    l4.21,0.915l-1.561,7.315l-19.146-4.123L337.352,32.956z"/>
		<path id="path51" fill="#E6BD7F" d="M361.659,38.308l2.879,0.85l5.152-17.509l-2.894-0.854l1.147-3.874l9.792,2.878    c5.788,1.699,9.225,5.431,7.693,10.584c-0.956,3.262-3.689,5.156-6.768,5.455l1.837,8.02l2.878,0.857l-1.14,3.878l-5.841-1.723    l-2.221-11.094c-0.55-0.119-1.079-0.237-1.561-0.382c-0.812-0.237-1.54-0.448-2.076-0.643l-1.677,5.68l3.155,0.926l-1.149,3.881    l-10.364-3.051L361.659,38.308z M380.898,29.216L380.898,29.216c0.78-2.66-1.041-4.57-4.532-5.6l-2.327-0.689l-2.389,8.099    c0.451,0.18,1.041,0.398,2.426,0.809C377.346,32.785,380.116,31.851,380.898,29.216z"/>
		<path id="path53" fill="#E6BD7F" d="M387.183,45.78l2.833,1.018l6.187-17.221l-2.834-1.011l1.401-3.828l9.907,3.575    c6.094,2.19,8.068,6.06,6.706,9.792c-1.02,2.886-3.461,4.099-6.225,4.046c2.779,2.005,3.973,4.482,2.863,7.578    c-1.477,4.108-5.834,5.746-11.874,3.591l-10.336-3.725L387.183,45.78z M400.939,38.867L400.939,38.867    c2.986,1.072,5.122,0.306,5.911-1.849c0.735-2.121-0.552-3.912-3.568-4.996l-2.809-1.002l-2.443,6.794L400.939,38.867z     M397.587,49.596L397.587,49.596c2.948,1.076,5.344,0.575,6.209-1.818c0.819-2.304-0.514-4.233-3.744-5.385l-3.276-1.176    l-2.557,7.174L397.587,49.596z"/>
		<path id="path55" fill="#E6BD7F" d="M411.827,54.48l2.764,1.145l7.005-16.789l-2.772-1.152l1.555-3.717l18.091,7.518l-2.863,6.944    l-3.997-1.669l1.348-3.238l-7.181-2.979l-2.703,6.478l7.327,3.073l-1.463,3.533l-7.356-3.066l-2.848,6.852l7.242,3.013    l1.332-3.246l3.988,1.661l-2.87,6.932l-18.129-7.553L411.827,54.48z"/>
	</g>
	<g id="Layer1007">
		<path id="path58" fill="#FFFFFF" d="M214.089,474.066l3.123,0.185l10.424-24.407l-3.928-0.229l0.329-5.466l20.322,1.21    l-0.336,5.45l-3.927-0.213l7.487,25.477l3.105,0.185l-0.33,5.511l-13.808-0.811l0.314-5.437l4.153,0.216l-1.684-6.019    l-13.428-0.811l-2.354,5.772l4.368,0.276l-0.337,5.449l-13.795-0.826L214.089,474.066z M237.963,464.512L237.963,464.512    l-4.196-14.453l-5.856,13.825L237.963,464.512z"/>
		<path id="path60" fill="#FFFFFF" d="M175.85,455.356c1.937-10.672,11.617-16.903,21.983-15.021    c8.245,1.471,12.965,6.768,12.199,11.024c-0.456,2.604-2.446,4.089-4.659,3.66c-2.438-0.431-3.824-2.236-3.41-4.563    c0.134-0.689,0.417-1.347,0.696-1.761c-0.861-0.996-2.771-2.159-6.017-2.771c-6.901-1.209-13.133,3.108-14.465,10.52    c-1.287,7.104,2.648,13.658,10.151,15.021c4.157,0.719,7.889-0.49,11.04-2.879l3.292,4.96c-4.145,3.186-9.68,4.578-15.35,3.567    C180.374,475.138,173.859,466.426,175.85,455.356L175.85,455.356z"/>
		<path id="path62" fill="#FFFFFF" d="M257.658,476.118l4.087-0.153l-1.026-24.941l-4.087,0.168l-0.215-5.496l26.811-1.134    l0.459,10.29l-5.917,0.215l-0.207-4.794l-10.641,0.459l0.397,9.633l10.87-0.475l0.215,5.251l-10.887,0.46l0.437,10.166    l10.718-0.459l-0.19-4.792l5.895-0.262l0.444,10.29l-26.903,1.103L257.658,476.118z"/>
		<path id="path64" fill="#FFFFFF" d="M300.567,453.84l2.733,19.155l4.424-0.629l0.782,5.482l-14.5,2.065l-0.767-5.479l4.073-0.583    l-3.507-24.758l-4.064,0.566l-0.804-5.467l9.294-1.316l20.792,19.936l-2.395-16.935l-4.496,0.612l-0.749-5.466l14.339-2.037    l0.773,5.482l-3.904,0.565l4.271,30.287l-3.291,0.566L300.567,453.84z"/>
	</g>
	<g id="Layer1008">
		<g id="Layer1009">
			<path id="path67" fill="#E6BD7F" d="M371.022,445.695L371.022,445.695c-0.69-0.138-1.455-0.185-2.145-0.153     c0.696-0.352,1.333-0.826,1.86-1.394c1.295-1.302,1.953-3.077,1.439-4.762c-0.972-3.093-4.755-4.425-8.995-3.093     c-3.368,1.041-4.992,2.894-5.513,4.517c-0.29,0.781-0.282,1.501-0.106,2.067c0.481,1.547,1.853,2.189,3.077,1.822     c1.21-0.398,1.938-1.653,1.562-2.803c-0.138-0.475-0.489-0.888-0.872-1.147c0.444-0.597,1.285-1.118,2.635-1.517     c1.988-0.643,3.933-0.306,4.484,1.455c0.354,1.148-0.046,2.22-1.026,3.169c-0.795,0.735-1.96,1.379-3.398,1.838l-1.125,0.352     l0.865,2.757l1.011-0.322c1.501-0.459,2.709-0.627,3.667-0.536c1.775,0.169,2.733,1.057,3.101,2.281     c0.628,1.96-0.675,3.768-2.948,4.471c-1.409,0.444-2.824,0.536-3.865,0.17c0.145-0.46,0.206-0.98,0.062-1.439     c-0.367-1.164-1.67-1.822-2.895-1.424c-1.331,0.413-1.929,1.791-1.524,3.122c0.237,0.736,0.728,1.349,1.355,1.823     c1.67,1.24,4.563,1.622,7.732,0.643c4.44-1.378,7.06-4.731,5.933-8.329C374.72,447.088,372.921,446.062,371.022,445.695     L371.022,445.695z"/>
			<path id="path69" fill="#E6BD7F" d="M348.575,440.489L348.575,440.489l-2.228,0.552l-5.282,3.275l1.54,2.803l3.384-2.098     l3.505,14.056l-3.865,0.949l0.85,3.414l11.191-2.786l-0.857-3.414l-3.797,0.949L348.575,440.489z"/>
		</g>
		<path id="path72" fill="#E6BD7F" d="M158.299,441.607L158.299,441.607c-4.115-1.195-7.878,0.688-8.866,4.148    c-0.949,3.323,1.16,6.691,4.977,7.779c1.982,0.536,4.045,0.077,5.174-0.858c-1.396,4.425-4.627,5.895-6.618,5.328    c-0.674-0.168-1.206-0.475-1.566-0.75c0.115-0.199,0.234-0.413,0.31-0.659c0.291-1.01-0.302-2.188-1.573-2.556    c-1.034-0.292-2.251,0.367-2.587,1.576c-0.203,0.705-0.088,1.424,0.268,2.083c0.666,1.255,2.155,2.312,4.107,2.878    c4.391,1.257,9.187-1.454,11.146-8.313c0.861-3.047,0.651-5.588-0.405-7.457C161.771,443.23,160.304,442.173,158.299,441.607    L158.299,441.607z M155.451,450.993L155.451,450.993c-2.216-0.628-3.242-2.527-2.74-4.303c0.547-1.929,2.618-3.108,4.834-2.465    c1.099,0.306,1.929,0.995,2.431,1.791c0.509,0.812,0.674,1.792,0.417,2.694C159.842,450.625,157.671,451.621,155.451,450.993z"/>
		<path id="path74" fill="#E6BD7F" d="M144.783,437.962L144.783,437.962l-1.944-0.628l-5.527-0.016l-0.138,2.848h3.51l-3.973,12.188    l-3.365-1.088l-0.972,2.955l9.723,3.187l0.972-2.971l-3.311-1.088L144.783,437.962z"/>
	</g>
</g>
</svg>