<?xml version="1.0" encoding="UTF-8" standalone="no"?>
<!-- Created with Inkscape (http://www.inkscape.org/) -->
<svg xmlns:svg="http://www.w3.org/2000/svg" xmlns="http://www.w3.org/2000/svg" version="1.0" width="777.93304" height="777.93304" id="svg18762" xml:space="preserve"><defs id="defs18765"><clipPath id="clipPath18777"><path d="M 0,841 L 595,841 L 595,0 L 0,0 L 0,841 z" id="path18779"/></clipPath><clipPath id="clipPath18783"><path d="M 0.36,841.68 L 595.8,841.68 L 595.8,0 L 0.36,0 L 0.36,841.68 z" id="path18785"/></clipPath><clipPath id="clipPath18873"><path d="M 399.685,682.251 L 467.716,682.251 L 467.716,612.251 L 399.685,612.251 L 399.685,682.251 z" id="path18875"/></clipPath><clipPath id="clipPath18879"><path d="M 0,841 L 595,841 L 595,0 L 0,0 L 0,841 z" id="path18881"/></clipPath><clipPath id="clipPath18885"><path d="M 0.36,841.68 L 595.8,841.68 L 595.8,0 L 0.36,0 L 0.36,841.68 z" id="path18887"/></clipPath><clipPath id="clipPath18977"><path d="M 484.724,682.251 L 552.756,682.251 L 552.756,612.251 L 484.724,612.251 L 484.724,682.251 z" id="path18979"/></clipPath><clipPath id="clipPath18983"><path d="M 0,841 L 595,841 L 595,0 L 0,0 L 0,841 z" id="path18985"/></clipPath><clipPath id="clipPath18989"><path d="M 0.36,841.68 L 595.8,841.68 L 595.8,0 L 0.36,0 L 0.36,841.68 z" id="path18991"/></clipPath><radialGradient cx="0" cy="0" r="1" fx="0" fy="0" id="radialGradient19029" gradientUnits="userSpaceOnUse" gradientTransform="matrix(15.4865,-15.4865,-15.4865,-15.4865,511.748,669.5154)" spreadMethod="pad"><stop id="stop19031" style="stop-color:#ffffff;stop-opacity:1" offset="0"/><stop id="stop19033" style="stop-color:#696a6c;stop-opacity:1" offset="1"/></radialGradient><clipPath id="clipPath19041"><path d="M 484.724,682.251 L 552.756,682.251 L 552.756,612.251 L 484.724,612.251 L 484.724,682.251 z" id="path19043"/></clipPath><clipPath id="clipPath19047"><path d="M 0,841 L 595,841 L 595,0 L 0,0 L 0,841 z" id="path19049"/></clipPath><clipPath id="clipPath19053"><path d="M 0.36,841.68 L 595.8,841.68 L 595.8,0 L 0.36,0 L 0.36,841.68 z" id="path19055"/></clipPath><clipPath id="clipPath19079"><path d="M 147.567,682.251 L 215.598,682.251 L 215.598,612.251 L 147.567,612.251 L 147.567,682.251 z" id="path19081"/></clipPath><clipPath id="clipPath19085"><path d="M 0,841 L 595,841 L 595,0 L 0,0 L 0,841 z" id="path19087"/></clipPath><clipPath id="clipPath19091"><path d="M 0.36,841.68 L 595.8,841.68 L 595.8,0 L 0.36,0 L 0.36,841.68 z" id="path19093"/></clipPath><clipPath id="clipPath19155"><path d="M 229.606,682.251 L 297.638,682.251 L 297.638,612.251 L 229.606,612.251 L 229.606,682.251 z" id="path19157"/></clipPath><clipPath id="clipPath19161"><path d="M 0,841 L 595,841 L 595,0 L 0,0 L 0,841 z" id="path19163"/></clipPath><clipPath id="clipPath19167"><path d="M 0.36,841.68 L 595.8,841.68 L 595.8,0 L 0.36,0 L 0.36,841.68 z" id="path19169"/></clipPath><clipPath id="clipPath19291"><path d="M 314.646,682.251 L 382.677,682.251 L 382.677,612.251 L 314.646,612.251 L 314.646,682.251 z" id="path19293"/></clipPath><clipPath id="clipPath19297"><path d="M 0,841 L 595,841 L 595,0 L 0,0 L 0,841 z" id="path19299"/></clipPath><clipPath id="clipPath19303"><path d="M 0.36,841.68 L 595.8,841.68 L 595.8,0 L 0.36,0 L 0.36,841.68 z" id="path19305"/></clipPath><clipPath id="clipPath19403"><path d="M 399.685,574.543 L 467.716,574.543 L 467.716,504.544 L 399.685,504.544 L 399.685,574.543 z" id="path19405"/></clipPath><clipPath id="clipPath19409"><path d="M 0,841 L 595,841 L 595,0 L 0,0 L 0,841 z" id="path19411"/></clipPath><clipPath id="clipPath19415"><path d="M 0.36,841.68 L 595.8,841.68 L 595.8,0 L 0.36,0 L 0.36,841.68 z" id="path19417"/></clipPath><clipPath id="clipPath19425"><path d="M 455.345,545.226 C 455.621,547.816 457.943,549.692 460.532,549.416 C 463.12,549.141 464.995,546.819 464.719,544.229 C 464.444,541.639 462.122,539.763 459.534,540.038 C 456.945,540.314 455.07,542.636 455.345,545.226" id="path19427"/></clipPath><clipPath id="clipPath19947"><path d="M 399.685,574.543 L 467.716,574.543 L 467.716,504.544 L 399.685,504.544 L 399.685,574.543 z" id="path19949"/></clipPath><clipPath id="clipPath19953"><path d="M 0,841 L 595,841 L 595,0 L 0,0 L 0,841 z" id="path19955"/></clipPath><clipPath id="clipPath19959"><path d="M 0.36,841.68 L 595.8,841.68 L 595.8,0 L 0.36,0 L 0.36,841.68 z" id="path19961"/></clipPath><clipPath id="clipPath20007"><path d="M 484.724,574.543 L 552.756,574.543 L 552.756,504.544 L 484.724,504.544 L 484.724,574.543 z" id="path20009"/></clipPath><clipPath id="clipPath20013"><path d="M 0,841 L 595,841 L 595,0 L 0,0 L 0,841 z" id="path20015"/></clipPath><clipPath id="clipPath20019"><path d="M 0.36,841.68 L 595.8,841.68 L 595.8,0 L 0.36,0 L 0.36,841.68 z" id="path20021"/></clipPath><clipPath id="clipPath20091"><path d="M 149.105,574.543 L 215.598,574.543 L 215.598,504.544 L 149.105,504.544 L 149.105,574.543 z" id="path20093"/></clipPath><clipPath id="clipPath20097"><path d="M 0,841 L 595,841 L 595,0 L 0,0 L 0,841 z" id="path20099"/></clipPath><clipPath id="clipPath20103"><path d="M 0.36,841.68 L 595.8,841.68 L 595.8,0 L 0.36,0 L 0.36,841.68 z" id="path20105"/></clipPath><clipPath id="clipPath20771"><path d="M 229.606,574.543 L 297.638,574.543 L 297.638,504.544 L 229.606,504.544 L 229.606,574.543 z" id="path20773"/></clipPath><clipPath id="clipPath20777"><path d="M 0,841 L 595,841 L 595,0 L 0,0 L 0,841 z" id="path20779"/></clipPath><clipPath id="clipPath20783"><path d="M 0.36,841.68 L 595.8,841.68 L 595.8,0 L 0.36,0 L 0.36,841.68 z" id="path20785"/></clipPath><clipPath id="clipPath20921"><path d="M 269.913,547.204 C 266.697,547.204 264.09,544.596 264.09,541.38 C 264.09,538.165 266.697,535.557 269.913,535.557 C 273.129,535.557 275.736,538.165 275.736,541.38 C 275.736,544.596 273.129,547.204 269.913,547.204" id="path20923"/></clipPath><clipPath id="clipPath21137"><path d="M 229.606,574.543 L 297.638,574.543 L 297.638,504.544 L 229.606,504.544 L 229.606,574.543 z" id="path21139"/></clipPath><clipPath id="clipPath21143"><path d="M 0,841 L 595,841 L 595,0 L 0,0 L 0,841 z" id="path21145"/></clipPath><clipPath id="clipPath21149"><path d="M 0.36,841.68 L 595.8,841.68 L 595.8,0 L 0.36,0 L 0.36,841.68 z" id="path21151"/></clipPath><clipPath id="clipPath21175"><path d="M 314.646,574.543 L 382.677,574.543 L 382.677,504.544 L 314.646,504.544 L 314.646,574.543 z" id="path21177"/></clipPath><clipPath id="clipPath21181"><path d="M 0,841 L 595,841 L 595,0 L 0,0 L 0,841 z" id="path21183"/></clipPath><clipPath id="clipPath21187"><path d="M 0.36,841.68 L 595.8,841.68 L 595.8,0 L 0.36,0 L 0.36,841.68 z" id="path21189"/></clipPath><clipPath id="clipPath21287"><path d="M 337.923,562.831 L 339.952,562.831 L 339.952,562.729 L 340.256,562.731 L 340.561,562.729 L 340.561,562.628 L 340.763,562.632 L 340.967,562.628 L 340.967,562.526 L 341.271,562.526 L 341.271,562.425 L 341.423,562.427 L 341.576,562.425 L 341.576,562.323 L 341.725,562.33 L 341.88,562.323 L 341.88,562.222 L 342.083,562.222 L 342.083,562.12 L 342.286,562.12 L 342.286,562.019 L 342.489,562.019 L 342.489,561.917 L 342.692,561.917 L 342.692,561.816 L 342.895,561.816 L 342.895,561.714 L 343.061,561.667 L 343.199,561.613 L 343.199,561.511 L 343.402,561.511 L 343.504,561.309 L 343.707,561.309 L 343.707,561.207 L 343.857,561.107 L 344.011,561.004 L 344.011,560.903 L 344.214,560.903 L 344.214,560.801 L 344.379,560.688 L 344.656,560.409 L 344.823,560.294 L 344.823,560.193 L 344.924,560.193 L 345.025,559.99 L 345.127,559.99 L 345.127,559.786 L 345.33,559.786 L 345.33,559.584 L 345.44,559.535 L 345.533,559.482 L 345.533,559.279 L 345.736,559.178 L 345.784,558.974 L 345.837,558.772 L 345.938,558.72 L 346.04,558.671 L 346.04,558.468 L 346.15,558.421 L 346.243,558.366 L 346.257,558.297 L 346.25,558.215 L 346.243,558.062 L 346.345,558.062 L 346.386,557.856 L 346.446,557.656 L 346.547,557.656 L 346.551,557.504 L 346.547,557.352 L 346.649,557.352 L 346.649,557.047 L 346.75,557.047 L 346.747,556.899 L 346.75,556.743 L 346.852,556.743 L 346.85,556.49 L 346.852,556.235 L 346.953,556.235 L 346.953,555.829 L 347.055,555.829 L 347.055,554.713 L 347.157,554.713 L 347.055,553.191 L 346.953,553.191 L 346.956,552.939 L 346.953,552.684 L 346.852,552.684 L 346.852,552.278 L 346.75,552.278 L 346.753,552.077 L 346.75,551.872 L 346.649,551.872 L 346.649,551.67 L 346.547,551.67 L 346.498,551.365 L 346.446,551.061 L 346.345,551.061 L 346.289,550.866 L 346.243,550.655 L 346.142,550.655 L 346.142,550.452 L 346.037,550.4 L 345.938,550.35 L 345.884,550.146 L 345.837,549.945 L 345.634,549.843 L 345.634,549.64 L 345.33,549.437 L 345.33,549.234 L 345.229,549.234 L 345.229,549.133 L 345.024,548.982 L 344.823,548.828 L 344.823,548.727 L 344.721,548.727 L 344.721,548.626 L 344.526,548.49 L 344.365,548.322 L 344.204,548.154 L 344.011,548.017 L 344.011,547.915 L 343.808,547.915 L 343.605,547.611 L 343.402,547.611 L 343.301,547.408 L 343.096,547.358 L 342.895,547.306 L 342.793,547.103 L 342.59,547.103 L 342.59,547.002 L 342.378,546.957 L 342.185,546.901 L 342.185,546.799 L 342.032,546.806 L 341.88,546.799 L 341.88,546.698 L 341.677,546.698 L 341.677,546.596 L 341.473,546.598 L 341.271,546.596 L 341.271,546.495 L 340.967,546.495 L 340.967,546.393 L 340.761,546.398 L 340.561,546.393 L 340.561,546.292 L 340.155,546.292 L 340.155,546.19 L 340.063,546.207 L 340.055,546.252 L 340.056,546.275 L 340.046,546.292 L 339.952,546.292 L 339.952,546.19 L 339.596,546.188 L 339.242,546.19 L 339.242,546.089 L 338.025,546.089 L 338.025,546.19 L 337.92,546.182 L 337.914,546.164 L 337.922,546.142 L 337.929,546.12 L 337.924,546.101 L 337.822,546.089 L 337.822,546.19 L 336.908,546.19 L 336.908,546.292 L 336.704,546.289 L 336.503,546.292 L 336.503,546.393 L 336.193,546.439 L 335.894,546.495 L 335.894,546.596 L 335.742,546.592 L 335.59,546.596 L 335.59,546.698 L 335.385,546.75 L 335.183,546.799 L 335.082,547.002 L 334.879,547.002 L 334.879,547.103 L 334.676,547.103 L 334.676,547.205 L 334.466,547.252 L 334.27,547.306 L 334.27,547.408 L 334.067,547.408 L 333.965,547.561 L 333.865,547.712 L 333.715,547.765 L 333.56,547.814 L 333.56,547.915 L 333.357,547.915 L 333.357,548.118 L 333.154,548.118 L 333.053,548.321 L 332.951,548.321 L 332.951,548.423 L 332.747,548.576 L 332.545,548.727 L 332.545,548.828 L 332.444,548.828 L 332.444,549.031 L 332.347,549.082 L 332.241,549.133 L 332.038,549.437 L 331.937,549.437 L 331.937,549.64 L 331.835,549.64 L 331.789,549.694 L 331.772,549.774 L 331.734,549.945 L 331.642,550.004 L 331.531,550.046 L 331.531,550.249 L 331.429,550.249 L 331.429,550.452 L 331.226,550.553 L 331.174,550.694 L 331.167,550.796 L 331.165,550.903 L 331.125,551.061 L 331.024,551.061 L 331.024,551.264 L 330.922,551.264 L 330.925,551.416 L 330.922,551.568 L 330.821,551.568 L 330.823,551.72 L 330.821,551.872 L 330.719,551.872 L 330.673,552.181 L 330.618,552.481 L 330.516,552.481 L 330.508,552.735 L 330.516,552.989 L 330.415,552.989 L 330.415,553.8 L 330.313,553.8 L 330.313,553.902 L 330.387,553.936 L 330.418,553.958 L 330.415,554.104 L 330.313,554.104 L 330.313,554.713 L 330.415,554.713 L 330.415,555.829 L 330.516,555.829 L 330.508,556.086 L 330.516,556.337 L 330.618,556.337 L 330.618,556.641 L 330.719,556.641 L 330.722,556.797 L 330.719,556.946 L 330.821,556.946 L 330.864,557.257 L 330.922,557.554 L 331.024,557.554 L 331.02,557.709 L 331.024,557.859 L 331.125,557.859 L 331.166,558.066 L 331.226,558.265 L 331.328,558.265 L 331.328,558.468 L 331.531,558.569 L 331.531,558.772 L 331.632,558.772 L 331.632,558.975 L 331.734,558.975 L 331.734,559.178 L 331.883,559.281 L 332.038,559.381 L 332.038,559.584 L 332.14,559.584 L 332.444,559.99 L 332.545,559.99 L 332.545,560.193 L 332.647,560.193 L 332.647,560.294 L 332.849,560.447 L 333.053,560.598 L 333.053,560.7 L 333.256,560.7 L 333.256,560.801 L 333.458,560.955 L 333.662,561.106 L 333.662,561.207 L 333.823,561.255 L 333.895,561.269 L 333.966,561.309 L 334.067,561.511 L 334.217,561.516 L 334.372,561.511 L 334.473,561.714 L 334.669,561.772 L 334.879,561.816 L 334.879,561.917 L 335.084,561.961 L 335.285,562.019 L 335.285,562.12 L 335.437,562.127 L 335.59,562.12 L 335.59,562.222 L 335.792,562.222 L 335.792,562.323 L 335.943,562.328 L 336.097,562.323 L 336.097,562.425 L 336.401,562.425 L 336.401,562.526 L 336.79,562.592 L 337.213,562.628 L 337.213,562.729 L 337.521,562.715 L 337.675,562.706 L 337.822,562.729 L 337.906,562.766 L 337.919,562.779 L 337.917,562.79 L 337.826,562.808 L 337.776,562.811 L 337.758,562.813 L 337.923,562.831" id="path21289"/></clipPath><clipPath id="clipPath21299"><path d="M 399.685,468.15 L 467.716,468.15 L 467.716,398.15 L 399.685,398.15 L 399.685,468.15 z" id="path21301"/></clipPath><clipPath id="clipPath21305"><path d="M 0,841 L 595,841 L 595,0 L 0,0 L 0,841 z" id="path21307"/></clipPath><clipPath id="clipPath21311"><path d="M 0.36,841.68 L 595.8,841.68 L 595.8,0 L 0.36,0 L 0.36,841.68 z" id="path21313"/></clipPath><clipPath id="clipPath21367"><path d="M 457.87,446.123 C 457.422,442.625 456.655,438.31 455.342,433.732 C 453.482,427.243 450.905,421.506 447.682,416.677 C 443.819,410.886 439.006,406.397 433.373,403.315 C 431.568,404.548 425.634,408.885 420.025,416.094 C 416.117,421.117 413.128,426.535 411.142,432.197 C 409.564,436.69 408.62,441.35 408.312,446.123 L 457.87,446.123" id="path21369"/></clipPath><clipPath id="clipPath21387"><path d="M 399.685,468.15 L 467.716,468.15 L 467.716,398.15 L 399.685,398.15 L 399.685,468.15 z" id="path21389"/></clipPath><clipPath id="clipPath21393"><path d="M 0,841 L 595,841 L 595,0 L 0,0 L 0,841 z" id="path21395"/></clipPath><clipPath id="clipPath21399"><path d="M 0.36,841.68 L 595.8,841.68 L 595.8,0 L 0.36,0 L 0.36,841.68 z" id="path21401"/></clipPath><clipPath id="clipPath21411"><path d="M 484.724,468.15 L 552.756,468.15 L 552.756,398.15 L 484.724,398.15 L 484.724,468.15 z" id="path21413"/></clipPath><clipPath id="clipPath21417"><path d="M 0,841 L 595,841 L 595,0 L 0,0 L 0,841 z" id="path21419"/></clipPath><clipPath id="clipPath21423"><path d="M 0.36,841.68 L 595.8,841.68 L 595.8,0 L 0.36,0 L 0.36,841.68 z" id="path21425"/></clipPath><clipPath id="clipPath21539"><path d="M 149.105,468.15 L 215.598,468.15 L 215.598,398.15 L 149.105,398.15 L 149.105,468.15 z" id="path21541"/></clipPath><clipPath id="clipPath21545"><path d="M 0,841 L 595,841 L 595,0 L 0,0 L 0,841 z" id="path21547"/></clipPath><clipPath id="clipPath21551"><path d="M 0.36,841.68 L 595.8,841.68 L 595.8,0 L 0.36,0 L 0.36,841.68 z" id="path21553"/></clipPath><clipPath id="clipPath21631"><path d="M 229.606,468.15 L 297.638,468.15 L 297.638,398.15 L 229.606,398.15 L 229.606,468.15 z" id="path21633"/></clipPath><clipPath id="clipPath21637"><path d="M 0,841 L 595,841 L 595,0 L 0,0 L 0,841 z" id="path21639"/></clipPath><clipPath id="clipPath21643"><path d="M 0.36,841.68 L 595.8,841.68 L 595.8,0 L 0.36,0 L 0.36,841.68 z" id="path21645"/></clipPath><linearGradient x1="0" y1="0" x2="1" y2="0" id="linearGradient21745" gradientUnits="userSpaceOnUse" gradientTransform="matrix(0,-31.3668,-55.4292,0,377.1228,452.6494)" spreadMethod="pad"><stop id="stop21747" style="stop-color:#ffffff;stop-opacity:1" offset="0"/><stop id="stop21749" style="stop-color:#231f20;stop-opacity:1" offset="1"/></linearGradient><clipPath id="clipPath21757"><path d="M 314.646,468.15 L 382.677,468.15 L 382.677,398.15 L 314.646,398.15 L 314.646,468.15 z" id="path21759"/></clipPath><clipPath id="clipPath21763"><path d="M 0,841 L 595,841 L 595,0 L 0,0 L 0,841 z" id="path21765"/></clipPath><clipPath id="clipPath21769"><path d="M 0.36,841.68 L 595.8,841.68 L 595.8,0 L 0.36,0 L 0.36,841.68 z" id="path21771"/></clipPath><clipPath id="clipPath21847"><path d="M 399.685,361.567 L 467.716,361.567 L 467.716,291.567 L 399.685,291.567 L 399.685,361.567 z" id="path21849"/></clipPath><clipPath id="clipPath21853"><path d="M 0,841 L 595,841 L 595,0 L 0,0 L 0,841 z" id="path21855"/></clipPath><clipPath id="clipPath21859"><path d="M 0.36,841.68 L 595.8,841.68 L 595.8,0 L 0.36,0 L 0.36,841.68 z" id="path21861"/></clipPath><clipPath id="clipPath21929"><path d="M 484.724,361.567 L 552.756,361.567 L 552.756,291.567 L 484.724,291.567 L 484.724,361.567 z" id="path21931"/></clipPath><clipPath id="clipPath21935"><path d="M 0,841 L 595,841 L 595,0 L 0,0 L 0,841 z" id="path21937"/></clipPath><clipPath id="clipPath21941"><path d="M 0.36,841.68 L 595.8,841.68 L 595.8,0 L 0.36,0 L 0.36,841.68 z" id="path21943"/></clipPath><radialGradient cx="0" cy="0" r="1" fx="0" fy="0" id="radialGradient21957" gradientUnits="userSpaceOnUse" gradientTransform="matrix(16.8629,0,0,-16.8629,518.789,332.9843)" spreadMethod="pad"><stop id="stop21959" style="stop-color:#ffffff;stop-opacity:1" offset="0"/><stop id="stop21961" style="stop-color:#231f20;stop-opacity:1" offset="1"/></radialGradient><clipPath id="clipPath21969"><path d="M 484.724,361.567 L 552.756,361.567 L 552.756,291.567 L 484.724,291.567 L 484.724,361.567 z" id="path21971"/></clipPath><clipPath id="clipPath21975"><path d="M 0,841 L 595,841 L 595,0 L 0,0 L 0,841 z" id="path21977"/></clipPath><clipPath id="clipPath21981"><path d="M 0.36,841.68 L 595.8,841.68 L 595.8,0 L 0.36,0 L 0.36,841.68 z" id="path21983"/></clipPath><clipPath id="clipPath22067"><path d="M 147.567,361.567 L 215.598,361.567 L 215.598,291.567 L 147.567,291.567 L 147.567,361.567 z" id="path22069"/></clipPath><clipPath id="clipPath22073"><path d="M 0,841 L 595,841 L 595,0 L 0,0 L 0,841 z" id="path22075"/></clipPath><clipPath id="clipPath22079"><path d="M 0.36,841.68 L 595.8,841.68 L 595.8,0 L 0.36,0 L 0.36,841.68 z" id="path22081"/></clipPath><clipPath id="clipPath22277"><path d="M 229.606,361.567 L 297.638,361.567 L 297.638,291.567 L 229.606,291.567 L 229.606,361.567 z" id="path22279"/></clipPath><clipPath id="clipPath22283"><path d="M 0,841 L 595,841 L 595,0 L 0,0 L 0,841 z" id="path22285"/></clipPath><clipPath id="clipPath22289"><path d="M 0.36,841.68 L 595.8,841.68 L 595.8,0 L 0.36,0 L 0.36,841.68 z" id="path22291"/></clipPath><clipPath id="clipPath22383"><path d="M 314.646,361.567 L 382.677,361.567 L 382.677,291.567 L 314.646,291.567 L 314.646,361.567 z" id="path22385"/></clipPath><clipPath id="clipPath22389"><path d="M 0,841 L 595,841 L 595,0 L 0,0 L 0,841 z" id="path22391"/></clipPath><clipPath id="clipPath22395"><path d="M 0.36,841.68 L 595.8,841.68 L 595.8,0 L 0.36,0 L 0.36,841.68 z" id="path22397"/></clipPath><clipPath id="clipPath22533"><path d="M 0,841 L 595,841 L 595,0 L 0,0 L 0,841 z" id="path22535"/></clipPath><clipPath id="clipPath22539"><path d="M 0.36,841.68 L 595.8,841.68 L 595.8,0 L 0.36,0 L 0.36,841.68 z" id="path22541"/></clipPath></defs><g transform="matrix(1.25,0,0,-1.25,-1.9088987,1049.3155)" id="g18771"><g transform="matrix(9.9008179,0,0,9.9008179,-3138.729,-5880.4467)" id="g19287"><g clip-path="url(#clipPath19291)" id="g19289"><g clip-path="url(#clipPath19297)" id="g19295"><g clip-path="url(#clipPath19303)" id="g19301"><path d="M 364.322,647.252 C 364.322,638.581 357.293,631.553 348.623,631.553 C 339.952,631.553 332.923,638.581 332.923,647.252 C 332.923,655.923 339.952,662.952 348.623,662.952 C 357.293,662.952 364.322,655.923 364.322,647.252" id="path19307" style="fill:#ffffff;fill-opacity:1;fill-rule:nonzero;stroke:none"/><path d="M 332.566,647.252 C 332.566,638.399 339.769,631.196 348.623,631.196 C 357.476,631.196 364.679,638.399 364.679,647.252 C 364.679,656.106 357.476,663.308 348.623,663.308 C 339.769,663.308 332.566,656.106 332.566,647.252 z M 333.279,647.252 C 333.279,655.712 340.162,662.595 348.623,662.595 C 357.082,662.595 363.966,655.712 363.966,647.252 C 363.966,638.792 357.082,631.909 348.623,631.909 C 340.162,631.909 333.279,638.792 333.279,647.252" id="path19309" style="fill:#939598;fill-opacity:1;fill-rule:nonzero;stroke:none"/><path d="M 318.644,647.252 C 318.644,630.712 332.1,617.255 348.641,617.255 C 365.181,617.255 378.638,630.712 378.638,647.252 C 378.638,663.793 365.181,677.249 348.641,677.249 C 332.1,677.249 318.644,663.793 318.644,647.252" id="path19311" style="fill:#939598;fill-opacity:1;fill-rule:nonzero;stroke:none"/><path d="M 319.594,647.252 C 319.594,663.268 332.624,676.299 348.641,676.299 C 364.657,676.299 377.687,663.268 377.687,647.252 C 377.687,631.235 364.657,618.205 348.641,618.205 C 332.624,618.205 319.594,631.235 319.594,647.252" id="path19313" style="fill:#ffffff;fill-opacity:1;fill-rule:nonzero;stroke:none"/><path d="M 341.733,631.582 L 348.66,630.224 L 364.596,642.975 L 365.244,650.394 L 341.733,631.582" id="path19315" style="fill:#005ba6;fill-opacity:1;fill-rule:nonzero;stroke:none"/><path d="M 365.03,650.661 L 340.943,631.388 L 348.75,629.857 L 364.924,642.799 L 365.655,651.161 L 365.03,650.661 z M 364.834,649.627 C 364.726,648.386 364.29,643.4 364.268,643.151 C 364.045,642.971 348.812,630.784 348.571,630.59 C 348.305,630.642 343.655,631.554 342.523,631.776 C 343.59,632.63 363.68,648.704 364.834,649.627" id="path19317" style="fill:#ffffff;fill-opacity:1;fill-rule:nonzero;stroke:none"/><path d="M 364.331,656.356 L 336.317,633.941 L 332.951,638.148 L 360.965,660.563 L 364.331,656.356" id="path19319" style="fill:#005ba6;fill-opacity:1;fill-rule:nonzero;stroke:none"/><path d="M 360.751,660.83 L 332.47,638.202 L 336.263,633.46 L 364.812,656.303 L 361.018,661.044 L 360.751,660.83 z M 360.912,660.082 C 361.261,659.645 363.5,656.846 363.85,656.409 C 363.331,655.994 336.89,634.837 336.37,634.422 C 336.021,634.859 333.781,637.658 333.432,638.095 C 333.951,638.51 360.392,659.667 360.912,660.082" id="path19321" style="fill:#ffffff;fill-opacity:1;fill-rule:nonzero;stroke:none"/><path d="M 356.068,663.235 C 353.728,664.145 351.482,664.76 349.831,665.145 L 330.82,649.935 L 331.259,649.495 L 331.259,643.384 L 356.068,663.235" id="path19323" style="fill:#005ba6;fill-opacity:1;fill-rule:nonzero;stroke:none"/><path d="M 349.617,665.413 L 330.308,649.962 C 330.308,649.962 330.797,649.473 330.917,649.354 C 330.917,649.083 330.917,642.672 330.917,642.672 L 356.746,663.339 L 356.192,663.554 C 353.76,664.499 351.433,665.123 349.909,665.479 L 349.747,665.516 L 349.617,665.413 z M 349.914,664.773 C 351.295,664.446 353.276,663.909 355.385,663.126 C 354.5,662.419 332.644,644.931 331.602,644.096 C 331.602,645.208 331.602,649.638 331.602,649.638 C 331.602,649.638 331.412,649.826 331.333,649.906 C 331.907,650.365 349.66,664.57 349.914,664.773" id="path19325" style="fill:#ffffff;fill-opacity:1;fill-rule:nonzero;stroke:none"/><path d="M 328.92,647.252 C 328.92,636.378 337.767,627.531 348.641,627.531 C 359.515,627.531 368.362,636.378 368.362,647.252 C 368.362,658.126 359.515,666.973 348.641,666.973 C 337.767,666.973 328.92,658.126 328.92,647.252 z M 333.197,647.252 C 333.197,655.768 340.125,662.696 348.641,662.696 C 357.157,662.696 364.085,655.768 364.085,647.252 C 364.085,638.736 357.157,631.808 348.641,631.808 C 340.125,631.808 333.197,638.736 333.197,647.252" id="path19327" style="fill:#f36f21;fill-opacity:1;fill-rule:nonzero;stroke:none"/><path d="M 332.585,647.252 C 332.585,638.399 339.788,631.196 348.641,631.196 C 357.494,631.196 364.697,638.399 364.697,647.252 C 364.697,656.106 357.494,663.308 348.641,663.308 C 339.788,663.308 332.585,656.106 332.585,647.252 z M 333.298,647.252 C 333.298,655.712 340.181,662.595 348.641,662.595 C 357.101,662.595 363.984,655.712 363.984,647.252 C 363.984,638.792 357.101,631.909 348.641,631.909 C 340.181,631.909 333.298,638.792 333.298,647.252" id="path19329" style="fill:#939598;fill-opacity:1;fill-rule:nonzero;stroke:none"/><path d="M 328.291,647.251 C 328.291,636.032 337.42,626.902 348.641,626.902 C 359.862,626.902 368.99,636.032 368.99,647.251 C 368.99,658.473 359.862,667.601 348.641,667.601 C 337.42,667.601 328.291,658.473 328.291,647.251 z M 329.004,647.251 C 329.004,658.08 337.813,666.889 348.641,666.889 C 359.468,666.889 368.277,658.08 368.277,647.251 C 368.277,636.424 359.468,627.615 348.641,627.615 C 337.813,627.615 329.004,636.424 329.004,647.251" id="path19331" style="fill:#939598;fill-opacity:1;fill-rule:nonzero;stroke:none"/><path d="M 324.45,633.614 C 324.243,633.578 324.243,633.578 324.178,633.681 C 324.16,633.708 324.104,633.797 324.068,633.869 C 323.919,634.119 323.824,634.269 323.69,634.481 C 323.608,634.611 323.489,634.784 323.404,634.902 C 323.361,634.971 323.303,635.049 323.285,635.076 C 323.194,635.219 323.199,635.317 323.308,635.387 C 323.41,635.452 323.514,635.393 323.668,635.194 C 323.849,634.955 323.988,634.947 324.341,635.19 L 327.192,637.12 C 327.689,637.453 327.717,637.529 327.508,637.951 C 327.443,638.082 327.452,638.174 327.541,638.23 C 327.643,638.295 327.758,638.234 327.875,638.05 C 327.884,638.036 327.931,637.961 327.959,637.902 C 328.217,637.435 328.415,637.091 328.532,636.907 C 328.657,636.71 328.827,636.472 329.011,636.226 C 329.054,636.158 329.113,636.08 329.135,636.046 C 329.221,635.909 329.214,635.8 329.126,635.743 C 329.003,635.665 328.941,635.703 328.725,635.968 C 328.542,636.197 328.392,636.207 328.096,636.01 L 325.308,634.177 L 328.798,634.781 C 328.951,634.811 329.104,634.841 329.264,634.875 C 329.679,634.975 329.73,634.969 329.834,634.806 C 329.899,634.703 329.892,634.623 329.807,634.501 L 327.372,631.009 L 329.433,632.209 C 329.622,632.318 329.857,632.459 330.083,632.601 C 330.486,632.856 330.564,633.049 330.387,633.359 C 330.217,633.643 330.208,633.732 330.331,633.81 C 330.426,633.871 330.533,633.823 330.624,633.68 C 330.641,633.652 330.682,633.573 330.718,633.501 C 330.791,633.356 330.883,633.194 330.978,633.045 C 331.091,632.867 331.201,632.708 331.321,632.563 C 331.38,632.486 331.443,632.401 331.465,632.368 C 331.543,632.244 331.534,632.153 331.445,632.097 C 331.342,632.031 331.285,632.062 331.073,632.291 C 330.885,632.498 330.768,632.5 330.412,632.293 L 327.43,630.615 C 327.35,630.574 327.282,630.531 327.186,630.471 L 327.064,630.393 C 326.866,630.268 326.85,630.171 327.001,629.903 C 327.134,629.663 327.141,629.562 327.031,629.492 C 326.922,629.423 326.823,629.475 326.71,629.653 L 326.26,630.409 C 326.16,630.567 325.959,630.869 325.883,630.974 L 325.836,631.049 C 325.775,631.145 325.776,631.174 325.854,631.291 L 327.87,634.193 L 324.45,633.614" id="path19333" style="fill:#005ba6;fill-opacity:1;fill-rule:nonzero;stroke:none"/><path d="M 323.401,639.147 C 323.175,639.859 323.876,640.697 324.99,641.048 C 325.985,641.363 326.816,641.153 327.012,640.534 C 327.235,639.827 326.52,638.973 325.413,638.623 C 324.423,638.311 323.596,638.528 323.401,639.147 z M 323.164,639.117 C 323.549,637.898 324.781,637.218 325.948,637.587 C 326.555,637.779 327.062,638.263 327.259,638.831 C 327.426,639.324 327.427,639.999 327.256,640.54 C 326.865,641.778 325.643,642.466 324.482,642.099 C 323.316,641.731 322.745,640.443 323.164,639.117" id="path19335" style="fill:#005ba6;fill-opacity:1;fill-rule:nonzero;stroke:none"/><path d="M 322.853,646.113 C 322.361,646.065 322.327,646.024 322.298,645.5 C 322.292,645.431 322.254,645.384 322.186,645.377 C 322.088,645.368 322.031,645.437 322.017,645.584 C 322.015,645.609 322.008,645.671 322.009,645.726 C 321.999,645.961 321.99,646.115 321.976,646.251 C 321.966,646.349 321.948,646.471 321.926,646.575 C 321.912,646.648 321.898,646.727 321.895,646.764 C 321.883,646.887 321.926,646.953 322.018,646.962 C 322.122,646.973 322.159,646.914 322.223,646.647 C 322.276,646.423 322.373,646.383 322.748,646.419 L 326.037,646.743 C 326.222,646.761 326.268,646.735 326.282,646.587 C 326.293,646.477 326.256,646.405 326.115,646.272 L 323.049,643.296 L 325.311,643.518 C 325.748,643.561 325.893,643.6 325.989,643.697 C 326.062,643.778 326.062,643.772 326.069,644.145 C 326.066,644.238 326.127,644.312 326.201,644.319 C 326.281,644.328 326.337,644.258 326.349,644.142 C 326.351,644.117 326.351,644.061 326.356,644.012 C 326.353,643.845 326.361,643.696 326.385,643.462 C 326.398,643.321 326.419,643.168 326.443,643.058 C 326.462,642.986 326.477,642.907 326.48,642.876 C 326.49,642.766 326.447,642.699 326.361,642.69 C 326.263,642.681 326.219,642.745 326.187,642.952 C 326.141,643.228 325.994,643.269 325.262,643.197 L 323.522,643.026 C 322.805,642.937 322.995,642.962 322.946,642.951 C 322.652,642.909 322.585,642.84 322.587,642.63 C 322.595,642.42 322.564,642.36 322.459,642.35 C 322.373,642.342 322.323,642.405 322.309,642.553 L 322.261,643.169 L 322.198,643.74 C 322.178,643.949 322.182,643.974 322.318,644.106 L 324.537,646.279 L 322.853,646.113" id="path19337" style="fill:#005ba6;fill-opacity:1;fill-rule:nonzero;stroke:none"/><path d="M 325.456,649.68 C 325.906,649.643 325.946,649.671 326.062,650.114 C 326.08,650.187 326.127,650.227 326.188,650.222 C 326.281,650.215 326.32,650.155 326.311,650.051 L 326.308,650.014 C 326.294,649.916 326.299,649.977 326.28,649.824 L 326.276,649.768 L 326.272,649.719 L 326.262,649.671 L 326.257,649.615 C 326.236,649.437 326.217,649.271 326.198,649.043 C 326.182,648.834 326.177,648.698 326.167,648.42 L 326.163,648.37 L 326.158,648.315 L 326.159,648.253 L 326.155,648.198 C 326.157,648.148 326.154,648.105 326.153,648.086 C 326.144,647.982 326.097,647.93 326.004,647.937 C 325.918,647.944 325.906,647.957 325.878,648.22 C 325.85,648.489 325.756,648.559 325.369,648.589 L 322.425,648.827 C 322.327,648.835 322.313,648.818 322.299,648.646 C 322.268,648.258 322.364,648.07 322.765,647.74 C 322.911,647.623 322.978,647.531 322.972,647.457 C 322.966,647.389 322.9,647.339 322.826,647.345 C 322.807,647.346 322.778,647.355 322.747,647.364 L 321.85,647.696 C 321.754,647.729 321.709,647.788 321.715,647.863 C 321.721,647.936 321.755,647.971 321.825,647.99 C 321.97,648.028 321.984,648.039 321.995,648.187 L 322.199,650.705 C 322.218,650.945 322.188,651.028 322.059,651.125 C 321.966,651.195 321.938,651.234 321.943,651.302 C 321.95,651.388 322.015,651.426 322.113,651.406 L 323.108,651.221 C 323.248,651.19 323.295,651.15 323.287,651.057 C 323.281,650.977 323.214,650.921 323.074,650.876 C 322.521,650.704 322.453,650.622 322.41,650.093 C 322.399,649.958 322.415,649.925 322.507,649.918 L 325.456,649.68" id="path19339" style="fill:#005ba6;fill-opacity:1;fill-rule:nonzero;stroke:none"/><path d="M 323.635,653.289 C 323.071,653.43 322.963,653.534 323.042,653.845 C 323.146,654.265 323.626,654.501 324.118,654.378 C 324.669,654.24 324.946,653.871 324.833,653.422 C 324.762,653.14 324.653,653.034 324.479,653.077 L 323.635,653.289 z M 325.018,652.942 C 324.947,652.96 324.929,652.99 324.943,653.05 C 324.957,653.104 324.998,653.189 325.05,653.271 C 325.209,653.525 325.292,653.701 325.342,653.905 C 325.511,654.576 325.087,655.275 324.399,655.447 C 323.673,655.629 323.104,655.186 322.871,654.258 C 322.833,654.108 322.776,653.829 322.733,653.579 C 322.675,653.275 322.626,653.026 322.597,652.912 C 322.562,652.775 322.537,652.672 322.463,652.43 C 322.399,652.223 322.39,652.187 322.384,652.163 C 322.367,652.123 322.357,652.081 322.351,652.057 C 322.326,651.955 322.354,651.89 322.444,651.868 C 322.503,651.853 322.556,651.885 322.586,651.953 C 322.774,652.371 322.817,652.392 323.254,652.283 L 325.717,651.665 C 326.095,651.57 326.176,651.486 326.159,651.216 C 326.145,650.959 326.153,650.938 326.236,650.917 C 326.327,650.895 326.382,650.938 326.407,651.04 C 326.412,651.057 326.422,651.099 326.429,651.149 L 326.442,651.203 L 326.451,651.264 L 326.465,651.318 L 326.477,651.366 C 326.532,651.639 326.559,651.772 326.608,651.964 C 326.661,652.18 326.707,652.334 326.756,652.506 L 326.77,652.56 L 326.788,652.606 L 326.8,652.655 L 326.813,652.708 C 326.857,652.856 326.842,652.797 326.872,652.891 L 326.881,652.927 C 326.906,653.029 326.878,653.094 326.788,653.116 C 326.728,653.131 326.676,653.099 326.646,653.03 C 326.458,652.613 326.415,652.592 325.977,652.701 L 325.018,652.942" id="path19341" style="fill:#005ba6;fill-opacity:1;fill-rule:nonzero;stroke:none"/><path d="M 327.126,656.539 C 327.573,656.342 327.812,656.426 327.989,656.828 C 328.188,657.28 328.139,657.706 327.851,658.049 C 327.724,658.206 327.696,658.279 327.735,658.37 C 327.768,658.443 327.838,658.466 327.912,658.433 C 327.968,658.409 328.08,658.34 328.186,658.26 C 328.292,658.179 328.43,658.091 328.648,657.975 C 328.731,657.932 328.744,657.9 328.714,657.832 C 328.701,657.804 328.653,657.71 328.618,657.631 C 328.503,657.398 328.35,657.067 328.162,656.637 C 327.993,656.252 327.762,655.726 327.683,655.532 C 327.564,655.26 327.606,655.356 327.415,654.86 C 327.401,654.812 327.383,654.773 327.376,654.756 C 327.334,654.66 327.271,654.626 327.187,654.663 C 327.108,654.698 327.101,654.715 327.16,654.972 C 327.222,655.235 327.156,655.331 326.8,655.488 L 324.475,656.509 C 324.062,656.69 324.019,656.683 323.761,656.296 C 323.72,656.234 323.663,656.211 323.607,656.236 C 323.522,656.274 323.505,656.341 323.547,656.438 L 323.562,656.472 L 323.582,656.503 L 323.597,656.537 L 323.62,656.588 L 323.65,656.642 L 323.673,656.693 L 323.692,656.738 L 323.72,656.787 L 323.74,656.832 C 323.831,657.008 323.901,657.166 324.042,657.489 C 324.144,657.721 324.263,658.006 324.336,658.189 C 324.812,659.397 324.671,659.028 324.795,659.358 L 324.815,659.403 C 324.847,659.476 324.889,659.492 324.962,659.459 L 325.18,659.357 L 325.57,659.199 C 325.74,659.125 325.763,659.088 325.719,658.985 C 325.688,658.918 325.637,658.893 325.464,658.868 C 325.047,658.808 324.849,658.666 324.693,658.31 C 324.457,657.772 324.457,657.711 324.695,657.607 L 325.6,657.209 C 325.763,657.137 325.832,657.155 325.884,657.273 C 326.167,657.918 326.167,658.026 325.904,658.256 C 325.772,658.369 325.732,658.447 325.766,658.526 C 325.801,658.606 325.886,658.629 325.974,658.583 L 326.544,658.299 L 327.046,658.106 C 327.153,658.058 327.19,657.989 327.155,657.909 C 327.121,657.83 327.053,657.799 326.915,657.806 C 326.559,657.827 326.381,657.743 326.281,657.517 L 326.237,657.402 C 326.075,656.987 326.075,657.001 326.261,656.919 L 327.126,656.539" id="path19343" style="fill:#005ba6;fill-opacity:1;fill-rule:nonzero;stroke:none"/><path d="M 326.307,660.308 C 325.928,660.552 325.881,660.546 325.569,660.211 C 325.518,660.155 325.459,660.142 325.406,660.176 C 325.328,660.226 325.322,660.296 325.379,660.384 C 325.379,660.384 325.396,660.411 325.424,660.444 L 325.444,660.475 L 325.475,660.521 L 325.513,660.57 L 325.543,660.616 L 325.57,660.658 L 325.602,660.696 L 325.633,660.743 C 325.728,660.88 325.83,661.027 325.94,661.199 C 326.068,661.396 326.133,661.508 326.277,661.753 L 326.303,661.795 L 326.334,661.842 L 326.362,661.897 L 326.392,661.944 C 326.414,661.989 326.437,662.025 326.447,662.041 C 326.504,662.129 326.57,662.152 326.648,662.102 C 326.721,662.055 326.722,662.033 326.626,661.793 C 326.523,661.543 326.573,661.438 326.9,661.227 L 328.987,659.881 C 329.345,659.65 329.583,659.687 329.784,659.999 C 330.035,660.388 330.039,660.76 329.804,661.206 C 329.725,661.345 329.714,661.418 329.758,661.486 C 329.801,661.554 329.861,661.567 329.928,661.523 C 330.012,661.469 330.152,661.357 330.277,661.231 C 330.383,661.134 330.472,661.055 330.557,660.993 C 330.664,660.909 330.671,660.874 330.605,660.771 L 330.564,660.708 C 330.445,660.535 330.459,660.556 330.249,660.265 C 330.091,660.043 329.929,659.803 329.681,659.418 C 329.447,659.055 329.261,658.756 329.059,658.408 C 328.984,658.28 328.962,658.235 328.949,658.214 C 328.93,658.175 328.907,658.138 328.894,658.118 C 328.836,658.03 328.771,658.006 328.692,658.056 C 328.62,658.104 328.62,658.125 328.715,658.365 C 328.818,658.615 328.768,658.721 328.441,658.932 L 326.307,660.308" id="path19345" style="fill:#005ba6;fill-opacity:1;fill-rule:nonzero;stroke:none"/><path d="M 328.567,663.565 C 328.229,663.865 328.181,663.866 327.822,663.582 C 327.763,663.535 327.702,663.531 327.656,663.573 C 327.587,663.634 327.591,663.704 327.661,663.783 C 327.661,663.783 327.682,663.806 327.715,663.834 L 327.74,663.862 L 327.777,663.903 L 327.822,663.945 L 327.859,663.987 L 327.892,664.024 L 327.929,664.056 L 327.966,664.098 C 328.081,664.219 328.205,664.349 328.34,664.501 C 328.496,664.677 328.577,664.778 328.757,664.999 L 328.827,665.078 L 328.863,665.128 L 328.9,665.169 C 328.928,665.211 328.957,665.243 328.969,665.256 C 329.039,665.335 329.108,665.348 329.177,665.287 C 329.242,665.229 329.239,665.207 329.108,664.985 C 328.969,664.753 329.001,664.641 329.293,664.383 L 331.15,662.735 C 331.469,662.452 331.71,662.453 331.955,662.731 C 332.263,663.077 332.325,663.444 332.16,663.92 C 332.103,664.07 332.103,664.144 332.156,664.204 C 332.21,664.264 332.271,664.268 332.331,664.215 C 332.405,664.149 332.526,664.016 332.632,663.874 C 332.721,663.761 332.797,663.669 332.871,663.595 C 332.965,663.496 332.967,663.461 332.885,663.368 L 332.835,663.313 C 332.691,663.16 332.707,663.178 332.456,662.923 C 332.267,662.727 332.069,662.514 331.766,662.172 C 331.479,661.849 331.25,661.581 330.997,661.269 C 330.903,661.154 330.875,661.113 330.859,661.094 C 330.835,661.057 330.806,661.025 330.789,661.007 C 330.72,660.928 330.651,660.916 330.581,660.977 C 330.517,661.034 330.52,661.056 330.651,661.279 C 330.79,661.51 330.757,661.622 330.466,661.88 L 328.567,663.565" id="path19347" style="fill:#005ba6;fill-opacity:1;fill-rule:nonzero;stroke:none"/><path d="M 333.759,665.193 C 334.055,664.853 334.103,664.845 334.495,665.081 C 334.56,665.121 334.621,665.116 334.661,665.07 C 334.722,665 334.708,664.93 334.63,664.862 L 334.601,664.838 C 334.522,664.777 334.57,664.818 334.449,664.721 L 334.406,664.684 L 334.369,664.652 L 334.328,664.624 L 334.286,664.588 C 334.161,664.487 334.013,664.366 333.873,664.244 C 333.639,664.041 333.631,664.033 333.222,663.645 C 333.19,663.609 333.157,663.58 333.142,663.568 C 333.064,663.499 332.993,663.495 332.932,663.565 C 332.876,663.63 332.881,663.651 333.04,663.855 C 333.208,664.067 333.19,664.182 332.935,664.475 L 331.267,666.39 C 330.971,666.731 330.924,666.738 330.53,666.502 C 330.467,666.463 330.405,666.468 330.365,666.514 C 330.304,666.584 330.318,666.653 330.397,666.722 C 330.397,666.722 330.42,666.742 330.457,666.766 L 330.484,666.79 L 330.526,666.827 L 330.577,666.863 L 330.619,666.899 L 330.657,666.932 L 330.698,666.96 L 330.74,666.996 C 330.86,667.093 331.014,667.218 331.139,667.328 C 331.386,667.543 331.386,667.543 331.803,667.938 C 331.836,667.976 331.869,668.004 331.883,668.016 C 331.962,668.085 332.033,668.089 332.093,668.019 C 332.15,667.954 332.144,667.932 331.986,667.728 C 331.818,667.517 331.836,667.402 332.092,667.108 L 333.759,665.193" id="path19349" style="fill:#005ba6;fill-opacity:1;fill-rule:nonzero;stroke:none"/><path d="M 335.663,666.76 C 335.932,666.352 336.178,666.292 336.544,666.533 C 336.958,666.805 337.148,667.189 337.093,667.634 C 337.072,667.834 337.088,667.911 337.17,667.965 C 337.237,668.009 337.309,667.99 337.353,667.923 C 337.387,667.871 337.443,667.753 337.488,667.628 C 337.534,667.502 337.602,667.354 337.722,667.138 C 337.768,667.057 337.761,667.023 337.699,666.982 C 337.673,666.965 337.582,666.912 337.51,666.865 C 337.286,666.732 336.978,666.537 336.586,666.28 C 336.235,666.049 335.755,665.733 335.583,665.612 C 335.335,665.449 335.423,665.507 334.993,665.194 C 334.955,665.162 334.919,665.138 334.903,665.128 C 334.816,665.07 334.746,665.075 334.694,665.153 C 334.647,665.225 334.65,665.242 334.84,665.426 C 335.035,665.614 335.032,665.73 334.818,666.055 L 333.422,668.176 C 333.174,668.553 333.133,668.57 332.707,668.386 C 332.639,668.356 332.579,668.368 332.545,668.42 C 332.494,668.497 332.517,668.563 332.604,668.622 L 332.635,668.642 L 332.669,668.657 L 332.7,668.678 L 332.747,668.708 L 332.802,668.737 L 332.849,668.767 L 332.89,668.794 L 332.939,668.82 L 332.981,668.847 C 333.153,668.946 333.297,669.04 333.591,669.234 C 333.803,669.373 334.058,669.548 334.219,669.662 C 335.276,670.417 334.956,670.184 335.24,670.393 L 335.281,670.42 C 335.348,670.464 335.391,670.455 335.435,670.388 L 335.562,670.183 L 335.804,669.839 C 335.906,669.684 335.905,669.64 335.812,669.579 C 335.75,669.538 335.694,669.545 335.535,669.618 C 335.152,669.795 334.909,669.783 334.584,669.569 C 334.094,669.246 334.061,669.195 334.203,668.978 L 334.747,668.153 C 334.845,668.003 334.912,667.98 335.02,668.052 C 335.608,668.439 335.667,668.53 335.572,668.866 C 335.521,669.032 335.53,669.12 335.603,669.167 C 335.675,669.214 335.759,669.188 335.808,669.103 L 336.132,668.554 L 336.448,668.119 C 336.512,668.02 336.505,667.942 336.433,667.894 C 336.361,667.847 336.287,667.857 336.174,667.938 C 335.888,668.149 335.693,668.176 335.486,668.04 L 335.386,667.967 C 335.025,667.707 335.032,667.719 335.144,667.549 L 335.663,666.76" id="path19351" style="fill:#005ba6;fill-opacity:1;fill-rule:nonzero;stroke:none"/><path d="M 337.934,670.993 C 337.827,671.243 337.872,671.356 338.116,671.461 C 338.485,671.62 338.921,671.418 339.102,670.997 C 339.3,670.538 339.109,670.106 338.615,669.894 C 338.462,669.828 338.429,669.841 338.351,670.022 L 337.934,670.993 z M 336.688,671.123 L 336.634,671.107 L 336.589,671.087 L 336.538,671.066 L 336.479,671.046 L 336.428,671.024 L 336.394,671.01 C 336.351,670.999 336.323,670.986 336.323,670.986 C 336.227,670.945 336.193,670.883 336.229,670.798 C 336.254,670.741 336.31,670.719 336.383,670.737 C 336.829,670.841 336.873,670.819 337.05,670.405 L 338.053,668.073 C 338.207,667.715 338.189,667.599 337.964,667.449 C 337.751,667.303 337.739,667.285 337.773,667.206 C 337.81,667.121 337.878,667.102 337.975,667.144 C 337.991,667.151 338.031,667.168 338.074,667.194 L 338.125,667.216 L 338.18,667.245 L 338.23,667.268 L 338.276,667.287 C 338.521,667.406 338.643,667.465 338.808,667.536 C 339.018,667.627 339.154,667.685 339.329,667.747 L 339.38,667.769 L 339.428,667.782 L 339.474,667.802 L 339.525,667.824 C 339.669,667.879 339.612,667.854 339.705,667.888 L 339.739,667.903 C 339.836,667.944 339.87,668.006 339.833,668.091 C 339.809,668.148 339.752,668.17 339.68,668.152 C 339.233,668.048 339.19,668.07 339.012,668.484 L 338.595,669.455 C 338.549,669.563 338.556,669.593 338.647,669.632 C 338.834,669.712 338.931,669.674 339.29,669.371 L 340.456,668.379 C 340.556,668.287 340.592,668.283 340.694,668.326 C 340.711,668.333 340.739,668.346 340.771,668.366 C 340.831,668.399 340.914,668.441 341.013,668.491 C 341.096,668.533 341.158,668.56 341.17,668.565 L 341.732,668.772 C 341.82,668.804 341.86,668.882 341.829,668.956 C 341.799,669.024 341.748,669.049 341.644,669.024 C 341.423,668.976 341.383,668.992 341.111,669.218 L 340.25,669.938 C 339.955,670.187 339.767,670.234 339.443,670.156 C 340.1,670.552 340.308,670.992 340.086,671.508 C 339.835,672.092 339.245,672.276 338.558,671.981 C 338.405,671.915 338.183,671.806 337.95,671.692 C 337.653,671.537 337.379,671.407 337.221,671.338 C 337.022,671.253 336.92,671.209 336.733,671.143 L 336.688,671.123" id="path19353" style="fill:#005ba6;fill-opacity:1;fill-rule:nonzero;stroke:none"/><path d="M 346.877,672.797 C 347.03,672.814 347.051,672.848 347.034,673.017 L 346.924,674.086 C 346.864,674.672 346.827,674.717 346.229,674.762 C 346.13,674.776 346.069,674.818 346.06,674.907 C 346.049,675.019 346.115,675.083 346.252,675.097 C 346.252,675.097 346.292,675.101 346.349,675.098 L 346.47,675.111 L 346.543,675.11 L 346.623,675.118 L 346.687,675.125 L 346.752,675.124 L 346.817,675.13 C 347.052,675.139 347.26,675.16 347.582,675.193 C 347.839,675.219 348.023,675.246 348.375,675.298 L 348.439,675.305 L 348.512,675.313 L 348.591,675.329 L 348.663,675.336 C 348.727,675.35 348.784,675.356 348.807,675.359 C 348.944,675.373 349.022,675.324 349.033,675.211 C 349.046,675.091 349.023,675.073 348.7,674.982 C 348.353,674.882 348.294,674.746 348.346,674.232 L 348.685,670.928 C 348.746,670.342 348.783,670.297 349.388,670.254 C 349.486,670.248 349.548,670.197 349.558,670.109 C 349.568,669.996 349.502,669.933 349.365,669.918 L 349.318,669.913 C 349.188,669.909 349.172,669.906 348.792,669.884 C 348.599,669.872 348.333,669.853 348.14,669.833 C 347.682,669.786 347.69,669.787 346.946,669.678 C 346.89,669.664 346.834,669.659 346.81,669.656 C 346.674,669.642 346.596,669.691 346.584,669.804 C 346.571,669.924 346.586,669.942 346.917,670.041 C 347.256,670.141 347.316,670.268 347.263,670.783 L 347.121,672.165 C 347.087,672.413 347.079,672.42 346.942,672.406 L 345.222,672.23 C 344.997,672.207 344.99,672.198 345.012,671.989 L 345.158,670.567 C 345.218,669.98 345.254,669.943 345.852,669.891 C 345.95,669.885 346.012,669.834 346.021,669.746 C 346.033,669.633 345.966,669.57 345.83,669.556 L 345.781,669.551 C 345.652,669.545 345.644,669.545 345.265,669.522 C 345.055,669.509 344.813,669.492 344.572,669.467 C 344.17,669.426 344.138,669.423 343.418,669.316 C 343.355,669.301 343.299,669.296 343.274,669.293 C 343.137,669.279 343.059,669.328 343.048,669.441 C 343.035,669.561 343.058,669.58 343.381,669.678 C 343.72,669.778 343.788,669.906 343.735,670.421 L 343.396,673.724 C 343.336,674.31 343.299,674.355 342.694,674.399 C 342.586,674.412 342.533,674.455 342.523,674.552 C 342.513,674.648 342.587,674.721 342.716,674.734 C 342.716,674.734 342.756,674.738 342.813,674.736 L 342.861,674.741 L 342.934,674.748 L 343.015,674.748 L 343.087,674.756 L 343.151,674.762 L 343.217,674.761 L 343.289,674.769 C 343.499,674.782 343.748,674.799 343.99,674.824 C 344.392,674.865 344.415,674.868 345.136,674.974 C 345.191,674.988 345.247,674.994 345.271,674.996 C 345.408,675.01 345.486,674.961 345.498,674.849 C 345.51,674.728 345.496,674.711 345.164,674.62 C 344.825,674.52 344.765,674.384 344.818,673.869 L 344.928,672.801 C 344.944,672.64 344.989,672.604 345.158,672.621 L 346.877,672.797" id="path19355" style="fill:#005ba6;fill-opacity:1;fill-rule:nonzero;stroke:none"/><path d="M 351.782,672.635 C 352.049,672.605 352.208,672.407 352.178,672.132 C 352.141,671.807 351.967,671.756 351.177,671.844 C 350.986,671.865 350.937,671.897 350.948,671.992 C 350.99,672.362 351.399,672.678 351.782,672.635 z M 352.756,671.416 C 352.979,671.391 353.07,671.452 353.09,671.63 C 353.157,672.236 352.554,672.788 351.712,672.881 C 350.705,672.994 349.813,672.351 349.712,671.44 C 349.607,670.502 350.326,669.654 351.32,669.543 C 351.805,669.489 352.283,669.61 352.674,669.876 C 352.807,669.964 352.881,670.053 352.889,670.123 C 352.896,670.18 352.844,670.238 352.792,670.237 C 352.741,670.236 352.7,670.222 352.59,670.163 C 352.314,670 352.101,669.946 351.853,669.974 C 351.189,670.048 350.739,670.698 350.824,671.457 C 350.84,671.598 350.875,671.626 350.996,671.612 L 352.756,671.416 z M 351.286,673.284 C 351.308,673.249 351.314,673.242 351.333,673.24 C 351.352,673.238 351.372,673.242 351.453,673.278 L 352.837,673.879 C 352.917,673.909 352.953,673.937 352.957,673.976 C 352.96,673.995 352.949,674.015 352.934,674.056 L 352.798,674.284 C 352.76,674.346 352.761,674.353 352.729,674.356 C 352.703,674.359 352.663,674.344 352.6,674.299 L 351.329,673.492 C 351.231,673.432 351.232,673.439 351.23,673.419 C 351.229,673.407 351.229,673.407 351.254,673.352 L 351.286,673.284" id="path19357" style="fill:#005ba6;fill-opacity:1;fill-rule:nonzero;stroke:none"/><path d="M 353.851,671.163 C 353.942,671.518 353.902,671.621 353.634,671.71 C 353.517,671.746 353.475,671.79 353.495,671.864 C 353.517,671.951 353.517,671.951 353.878,671.965 C 354.079,671.973 354.544,672.111 354.816,672.24 C 354.968,672.313 355.018,672.327 355.08,672.311 C 355.136,672.297 355.151,672.253 355.131,672.178 L 355.02,671.744 C 355.001,671.669 354.999,671.636 355.024,671.63 C 355.03,671.628 355.052,671.636 355.069,671.652 C 355.351,671.871 355.776,671.979 356.062,671.906 C 356.378,671.825 356.582,671.534 356.511,671.254 C 356.432,670.95 356.129,670.776 355.819,670.856 C 355.638,670.902 355.525,671.005 355.43,671.201 C 355.35,671.354 355.316,671.403 355.26,671.417 C 355.186,671.436 355.084,671.376 355.012,671.276 C 354.926,671.145 354.883,671.03 354.789,670.663 L 354.576,669.838 C 354.453,669.359 354.457,669.351 354.816,669.173 C 354.917,669.127 354.953,669.065 354.934,668.99 C 354.914,668.91 354.834,668.884 354.697,668.919 C 354.679,668.923 354.623,668.938 354.581,668.955 C 354.28,669.046 354.008,669.122 353.859,669.161 C 353.728,669.195 353.435,669.264 353.146,669.324 C 353.101,669.329 353.045,669.344 353.026,669.349 C 352.889,669.384 352.832,669.445 352.853,669.526 C 352.872,669.6 352.935,669.637 353.045,669.628 C 353.443,669.606 353.453,669.616 353.576,670.095 L 353.851,671.163" id="path19359" style="fill:#005ba6;fill-opacity:1;fill-rule:nonzero;stroke:none"/><path d="M 358.023,669.059 C 357.931,668.84 357.845,668.716 357.746,668.66 C 357.599,668.575 357.379,668.562 357.219,668.629 C 357.029,668.707 356.956,668.932 357.044,669.146 C 357.123,669.335 357.271,669.44 357.523,669.496 C 357.767,669.547 358.121,669.581 358.177,669.564 C 358.207,669.552 358.212,669.515 358.19,669.462 L 358.023,669.059 z M 358.374,669.906 C 358.347,669.841 358.347,669.841 358.086,669.831 L 357.903,669.824 L 357.711,669.814 L 357.527,669.806 C 357.229,669.791 357,669.775 356.826,669.757 C 356.432,669.712 356.174,669.542 356.046,669.234 C 355.893,668.866 356.055,668.487 356.441,668.327 C 356.612,668.256 356.801,668.225 357.011,668.229 C 357.209,668.237 357.257,668.252 357.71,668.389 C 357.733,668.394 357.747,668.395 357.759,668.39 C 357.776,668.383 357.789,668.364 357.789,668.329 L 357.804,668.115 C 357.809,668.078 357.815,668.041 357.823,668.01 C 357.867,667.866 357.973,667.753 358.139,667.684 C 358.37,667.588 358.657,667.593 358.964,667.695 C 359.116,667.744 359.204,667.804 359.23,667.869 C 359.252,667.923 359.228,667.982 359.181,668.001 C 359.163,668.009 359.131,668.015 359.106,668.005 C 358.853,667.964 358.875,667.968 358.816,667.993 C 358.706,668.046 358.705,668.143 358.803,668.381 L 359.453,669.944 C 359.64,670.395 359.395,670.74 358.666,671.043 C 358.228,671.224 357.732,671.271 357.337,671.171 C 357.055,671.093 356.752,670.899 356.69,670.751 C 356.651,670.657 356.703,670.566 356.81,670.521 C 356.952,670.463 357.196,670.43 357.405,670.433 C 357.569,670.442 357.641,670.482 357.816,670.652 C 358.037,670.866 358.25,670.944 358.433,670.868 C 358.641,670.782 358.662,670.599 358.514,670.244 L 358.374,669.906" id="path19361" style="fill:#005ba6;fill-opacity:1;fill-rule:nonzero;stroke:none"/><path d="M 360.359,669.175 C 360.619,669.595 360.621,669.609 360.329,669.881 C 360.247,669.955 360.23,670.025 360.271,670.091 C 360.315,670.162 360.399,670.163 360.518,670.088 C 360.529,670.081 360.573,670.054 360.619,670.018 L 360.75,669.937 L 360.806,669.894 C 360.993,669.77 361.142,669.67 361.214,669.626 L 361.415,669.501 C 361.478,669.469 361.565,669.415 361.576,669.409 C 361.675,669.348 361.673,669.333 361.575,669.175 L 360.607,667.617 C 360.377,667.246 360.397,666.962 360.669,666.792 C 360.816,666.701 361.052,666.668 361.246,666.713 C 361.362,666.74 361.408,666.779 361.51,666.942 L 362.19,668.038 C 362.451,668.457 362.452,668.471 362.16,668.743 C 362.072,668.821 362.056,668.891 362.096,668.957 C 362.141,669.028 362.224,669.028 362.344,668.954 C 362.355,668.947 362.404,668.917 362.444,668.885 L 362.51,668.844 L 362.572,668.798 L 362.637,668.757 C 362.792,668.653 362.913,668.57 362.925,668.563 C 363.012,668.509 363.093,668.458 363.276,668.352 L 363.424,668.261 C 363.5,668.213 363.504,668.196 363.433,668.081 L 362.356,666.348 C 362.15,666.016 362.148,665.964 362.371,665.788 C 362.446,665.726 362.462,665.679 362.428,665.624 C 362.384,665.554 362.304,665.558 362.073,665.648 C 361.869,665.722 361.62,665.794 361.337,665.863 C 361.117,665.91 361.092,665.918 361.054,665.942 C 360.994,665.979 360.991,666.011 361.038,666.087 L 361.184,666.321 C 361.221,666.381 361.225,666.424 361.192,666.444 C 361.16,666.465 361.189,666.462 360.927,666.443 C 360.556,666.417 360.223,666.488 359.961,666.651 C 359.433,666.979 359.333,667.524 359.696,668.107 L 360.359,669.175" id="path19363" style="fill:#005ba6;fill-opacity:1;fill-rule:nonzero;stroke:none"/><path d="M 363.791,665.023 C 363.479,664.64 363.48,664.632 363.73,664.319 C 363.803,664.235 363.81,664.163 363.762,664.104 C 363.709,664.039 363.626,664.049 363.516,664.138 C 363.501,664.151 363.457,664.187 363.426,664.22 C 363.186,664.433 362.976,664.612 362.842,664.721 C 362.752,664.795 362.504,664.988 362.278,665.157 C 362.239,665.181 362.194,665.217 362.179,665.229 C 362.07,665.318 362.043,665.398 362.096,665.463 C 362.145,665.522 362.217,665.53 362.314,665.476 C 362.666,665.288 362.679,665.294 362.991,665.676 L 364.824,667.923 C 365.056,668.207 365.054,668.265 364.825,668.543 C 364.768,668.606 364.763,668.66 364.808,668.714 C 364.865,668.784 364.94,668.765 365.177,668.629 C 365.492,668.447 365.649,668.376 366.142,668.23 C 366.185,668.22 366.214,668.205 366.233,668.189 C 366.288,668.144 366.278,668.07 366.204,667.981 L 363.791,665.023" id="path19365" style="fill:#005ba6;fill-opacity:1;fill-rule:nonzero;stroke:none"/><path d="M 365.666,665.634 C 365.818,665.79 365.831,665.84 365.758,665.911 L 365.606,666.06 C 365.523,666.14 365.499,666.208 365.545,666.254 C 365.589,666.3 365.676,666.287 365.822,666.226 C 366.237,666.054 366.65,666.018 367.002,666.123 C 367.192,666.18 367.269,666.176 367.329,666.118 C 367.403,666.046 367.399,665.996 367.309,665.904 L 366.937,665.523 C 366.825,665.408 366.813,665.34 366.9,665.255 L 367.258,664.906 C 367.359,664.807 367.359,664.78 367.27,664.688 C 367.172,664.587 367.122,664.582 367.039,664.662 L 366.713,664.981 C 366.612,665.079 366.567,665.078 366.464,664.973 L 365.55,664.036 C 365.129,663.604 365.032,663.367 365.202,663.201 C 365.253,663.151 365.353,663.108 365.458,663.086 C 365.626,663.057 365.64,663.052 365.668,663.025 C 365.7,662.994 365.7,662.93 365.669,662.898 C 365.615,662.843 365.461,662.814 365.275,662.825 C 364.975,662.849 364.661,662.985 364.449,663.191 C 364.054,663.576 364.081,664.008 364.528,664.467 L 365.666,665.634" id="path19367" style="fill:#005ba6;fill-opacity:1;fill-rule:nonzero;stroke:none"/><path d="M 371.657,660.931 C 371.537,660.848 371.445,660.854 371.377,660.955 C 371.314,661.048 371.33,661.138 371.445,661.285 C 371.857,661.829 371.925,662.246 371.661,662.634 C 371.357,663.081 370.824,663.246 370.47,663.006 C 370.236,662.846 370.155,662.606 370.222,662.221 C 370.238,662.154 370.25,662.094 370.266,662.027 L 370.329,661.805 L 370.398,661.589 L 370.456,661.374 C 370.732,660.409 370.547,659.677 369.919,659.249 C 368.984,658.613 367.751,658.947 367.009,660.035 C 366.669,660.536 366.379,661.306 366.423,661.6 C 366.431,661.674 366.462,661.715 366.598,661.817 C 366.654,661.865 366.687,661.887 366.861,662.005 C 366.997,662.107 367.077,662.162 367.11,662.185 C 367.424,662.398 367.527,662.42 367.613,662.293 C 367.663,662.22 367.657,662.127 367.585,662.019 C 367.564,661.976 367.651,662.094 367.301,661.66 C 366.951,661.227 366.949,660.756 367.303,660.235 C 367.69,659.667 368.288,659.478 368.722,659.774 C 369.016,659.973 369.111,660.234 369.074,660.677 C 369.057,660.803 369.031,660.941 368.923,661.474 C 368.676,662.655 368.785,663.227 369.333,663.599 C 370.121,664.136 371.337,663.742 372.037,662.714 C 372.246,662.406 372.466,661.882 372.48,661.646 C 372.487,661.534 372.452,661.472 372.325,661.385 L 371.657,660.931" id="path19369" style="fill:#005ba6;fill-opacity:1;fill-rule:nonzero;stroke:none"/><path d="M 371.026,657.731 C 371.184,657.801 371.28,657.822 371.36,657.802 C 371.51,657.763 371.66,657.634 371.733,657.469 C 371.921,657.048 371.562,656.481 370.93,656.198 C 370.232,655.888 369.608,655.996 369.404,656.453 C 369.263,656.769 369.397,657.005 369.831,657.198 L 371.026,657.731 z M 368.94,656.801 C 369.034,656.843 369.071,656.838 369.094,656.786 C 369.102,656.768 369.107,656.756 369.109,656.736 C 369.148,656.444 369.186,656.313 369.274,656.114 C 369.661,655.247 370.652,654.867 371.525,655.256 C 372.328,655.614 372.697,656.487 372.365,657.232 C 372.271,657.442 372.16,657.583 371.992,657.69 C 371.593,657.941 371.612,657.928 371.599,657.958 C 371.581,657.998 371.608,658.032 371.697,658.071 L 372.019,658.215 C 372.089,658.246 372.113,658.285 372.087,658.344 C 372.064,658.397 372.039,658.407 371.838,658.479 C 371.614,658.554 371.318,658.794 371.097,659.068 C 370.844,659.384 370.855,659.375 370.767,659.336 C 370.708,659.309 370.692,659.253 370.715,659.186 C 370.835,658.805 370.817,658.768 370.43,658.596 L 367.957,657.494 C 367.588,657.329 367.463,657.343 367.309,657.577 C 367.155,657.796 367.142,657.812 367.053,657.772 C 366.966,657.733 366.948,657.662 366.993,657.562 C 367,657.545 367.018,657.503 367.045,657.46 L 367.069,657.407 L 367.101,657.351 L 367.124,657.298 L 367.145,657.251 C 367.277,656.987 367.332,656.878 367.414,656.697 C 367.487,656.532 367.551,656.372 367.616,656.211 L 367.639,656.158 L 367.654,656.108 L 367.675,656.062 L 367.699,656.009 L 367.719,655.948 L 367.742,655.895 L 367.759,655.86 C 367.771,655.816 367.783,655.787 367.783,655.787 C 367.828,655.687 367.893,655.653 367.98,655.692 C 368.039,655.718 368.062,655.777 368.042,655.853 C 367.928,656.315 367.95,656.359 368.378,656.55 L 368.94,656.801" id="path19371" style="fill:#005ba6;fill-opacity:1;fill-rule:nonzero;stroke:none"/><path d="M 373.443,653.506 C 373.565,653.014 373.01,652.479 372.151,652.266 C 371.373,652.073 370.785,652.231 370.677,652.666 C 370.558,653.146 371.164,653.713 372.036,653.929 C 372.739,654.104 373.339,653.922 373.443,653.506 z M 373.7,653.457 C 373.43,654.54 372.504,655.183 371.552,654.946 C 370.661,654.725 370.162,653.755 370.415,652.734 C 370.685,651.65 371.626,650.999 372.572,651.234 C 373.45,651.452 373.952,652.442 373.7,653.457" id="path19373" style="fill:#005ba6;fill-opacity:1;fill-rule:nonzero;stroke:none"/><path d="M 372.904,650.43 C 373.268,650.463 373.351,650.535 373.345,650.818 C 373.34,650.94 373.367,650.994 373.444,651.001 C 373.534,651.009 373.534,651.009 373.667,650.674 C 373.742,650.487 374.03,650.095 374.242,649.883 C 374.362,649.765 374.392,649.722 374.398,649.659 C 374.404,649.601 374.367,649.572 374.291,649.565 L 373.843,649.524 C 373.767,649.517 373.735,649.507 373.738,649.482 C 373.738,649.476 373.753,649.458 373.773,649.447 C 374.074,649.255 374.32,648.891 374.347,648.597 C 374.376,648.272 374.172,647.982 373.884,647.956 C 373.571,647.927 373.305,648.154 373.276,648.473 C 373.259,648.659 373.317,648.799 373.47,648.955 C 373.587,649.082 373.622,649.13 373.616,649.188 C 373.609,649.264 373.519,649.34 373.4,649.374 C 373.248,649.411 373.125,649.413 372.748,649.378 L 371.899,649.301 C 371.407,649.256 371.401,649.249 371.354,648.852 C 371.344,648.741 371.298,648.686 371.221,648.679 C 371.138,648.671 371.087,648.737 371.075,648.878 C 371.073,648.897 371.067,648.954 371.07,649 C 371.054,649.314 371.035,649.595 371.02,649.749 C 371.008,649.883 370.974,650.183 370.935,650.476 C 370.924,650.519 370.919,650.577 370.917,650.596 C 370.904,650.737 370.942,650.811 371.025,650.818 C 371.102,650.825 371.158,650.779 371.187,650.672 C 371.299,650.29 371.313,650.284 371.805,650.329 L 372.904,650.43" id="path19375" style="fill:#005ba6;fill-opacity:1;fill-rule:nonzero;stroke:none"/><path d="M 373.695,647.201 C 373.913,647.195 373.96,647.219 373.962,647.322 L 373.967,647.533 C 373.971,647.649 374.005,647.712 374.069,647.711 C 374.133,647.708 374.182,647.636 374.236,647.487 C 374.391,647.066 374.645,646.739 374.961,646.55 C 375.132,646.449 375.182,646.39 375.179,646.307 C 375.177,646.204 375.137,646.173 375.009,646.177 L 374.477,646.191 C 374.317,646.195 374.257,646.158 374.255,646.036 L 374.241,645.536 C 374.237,645.395 374.217,645.376 374.089,645.381 C 373.948,645.384 373.911,645.417 373.913,645.533 L 373.926,645.988 C 373.93,646.129 373.898,646.162 373.751,646.166 L 372.443,646.201 C 371.84,646.218 371.6,646.128 371.594,645.89 C 371.591,645.82 371.627,645.716 371.683,645.625 C 371.775,645.481 371.781,645.469 371.78,645.43 C 371.779,645.385 371.733,645.341 371.688,645.343 C 371.611,645.344 371.485,645.438 371.367,645.582 C 371.181,645.818 371.067,646.142 371.076,646.438 C 371.091,646.989 371.426,647.262 372.066,647.245 L 373.695,647.201" id="path19377" style="fill:#005ba6;fill-opacity:1;fill-rule:nonzero;stroke:none"/><path d="M 370.47,638.863 C 370.247,638.937 370.18,639.004 370.108,639.206 C 369.96,639.669 369.965,640.31 370.128,640.944 C 370.309,641.648 370.638,642.281 371.046,642.735 C 371.691,643.429 372.757,643.747 373.673,643.513 C 375.253,643.107 376.073,641.328 375.573,639.38 C 375.471,638.981 375.214,638.371 375.029,638.102 C 374.949,637.989 374.893,637.962 374.777,637.966 L 374.109,638.029 C 374.044,638.038 374.003,638.04 373.98,638.046 C 373.894,638.068 373.836,638.166 373.858,638.253 C 373.882,638.346 373.974,638.414 374.179,638.495 C 374.85,638.74 375.104,638.984 375.243,639.523 C 375.52,640.603 374.725,641.633 373.332,641.99 C 371.947,642.345 370.721,641.826 370.448,640.761 C 370.292,640.151 370.492,639.666 371.155,639.062 C 371.27,638.958 371.303,638.891 371.281,638.805 C 371.251,638.688 371.149,638.647 371.025,638.687 L 370.47,638.863" id="path19379" style="fill:#005ba6;fill-opacity:1;fill-rule:nonzero;stroke:none"/><path d="M 369.85,637.466 C 369.397,637.663 369.388,637.66 369.156,637.334 C 369.094,637.242 369.027,637.215 368.956,637.246 C 368.88,637.279 368.867,637.362 368.923,637.492 C 368.931,637.509 368.954,637.562 368.978,637.6 C 369.118,637.889 369.234,638.14 369.303,638.299 C 369.349,638.404 369.468,638.695 369.57,638.959 C 369.581,639.003 369.604,639.056 369.612,639.073 C 369.668,639.203 369.738,639.25 369.814,639.216 C 369.885,639.185 369.912,639.118 369.885,639.011 C 369.8,638.621 369.809,638.61 370.262,638.412 L 372.92,637.255 C 373.256,637.109 373.312,637.126 373.518,637.422 C 373.563,637.493 373.614,637.513 373.679,637.485 C 373.761,637.449 373.762,637.371 373.696,637.107 C 373.605,636.754 373.58,636.583 373.572,636.069 C 373.575,636.026 373.568,635.994 373.558,635.97 C 373.529,635.905 373.455,635.895 373.349,635.942 L 369.85,637.466" id="path19381" style="fill:#005ba6;fill-opacity:1;fill-rule:nonzero;stroke:none"/><path d="M 370.743,635.875 C 371.167,635.621 371.182,635.62 371.449,635.916 C 371.521,636 371.592,636.017 371.658,635.978 C 371.729,635.935 371.731,635.851 371.659,635.73 C 371.652,635.719 371.626,635.675 371.591,635.629 L 371.511,635.497 L 371.47,635.44 C 371.349,635.25 371.251,635.1 371.208,635.028 L 371.085,634.825 C 371.055,634.761 371.002,634.673 370.996,634.662 C 370.936,634.563 370.922,634.564 370.763,634.66 L 369.189,635.604 C 368.815,635.828 368.531,635.804 368.366,635.529 C 368.277,635.38 368.247,635.143 368.296,634.95 C 368.324,634.836 368.364,634.789 368.529,634.69 L 369.635,634.027 C 370.058,633.773 370.072,633.772 370.34,634.068 C 370.416,634.157 370.486,634.174 370.553,634.135 C 370.624,634.092 370.626,634.008 370.554,633.887 C 370.547,633.876 370.517,633.826 370.485,633.786 L 370.445,633.72 L 370.4,633.657 L 370.361,633.591 C 370.26,633.435 370.178,633.312 370.171,633.301 C 370.119,633.213 370.069,633.13 369.966,632.946 L 369.877,632.797 C 369.831,632.72 369.813,632.716 369.697,632.785 L 367.948,633.834 C 367.613,634.035 367.56,634.037 367.388,633.811 C 367.328,633.735 367.28,633.719 367.225,633.752 C 367.154,633.795 367.157,633.875 367.244,634.107 C 367.314,634.312 367.383,634.563 367.447,634.846 C 367.49,635.067 367.498,635.092 367.521,635.13 C 367.557,635.191 367.589,635.194 367.666,635.148 L 367.903,635.006 C 367.963,634.97 368.007,634.966 368.026,634.999 C 368.046,635.033 368.044,635.004 368.021,635.265 C 367.989,635.636 368.055,635.97 368.213,636.234 C 368.533,636.768 369.077,636.875 369.665,636.522 L 370.743,635.875" id="path19383" style="fill:#005ba6;fill-opacity:1;fill-rule:nonzero;stroke:none"/><path d="M 367.841,631.388 C 367.976,631.27 367.986,631.262 367.991,631.199 C 368.003,631.086 367.942,630.927 367.833,630.8 C 367.493,630.408 366.797,630.476 366.249,630.95 C 365.695,631.428 365.512,632.079 365.835,632.453 C 365.94,632.574 366.081,632.638 366.236,632.632 C 366.377,632.628 366.467,632.576 366.792,632.295 L 367.841,631.388 z M 369.505,629.949 C 369.67,629.806 369.707,629.791 369.765,629.868 C 369.803,629.911 369.81,629.939 369.887,630.135 C 370.038,630.565 370.101,630.697 370.261,630.94 C 370.379,631.127 370.4,631.21 370.342,631.26 C 370.294,631.302 370.239,631.298 370.163,631.229 C 369.91,631.006 369.865,631.003 369.608,631.225 L 367.06,633.428 C 366.929,633.541 366.832,633.635 366.786,633.69 C 366.752,633.729 366.722,633.763 366.703,633.78 C 366.645,633.83 366.567,633.829 366.525,633.78 C 366.492,633.742 366.496,633.687 366.535,633.594 C 366.634,633.347 366.654,633.262 366.62,633.223 C 366.608,633.209 366.586,633.194 366.56,633.183 C 366.02,632.971 365.903,632.894 365.651,632.603 C 364.925,631.763 364.93,630.631 365.658,630.002 C 366.332,629.419 367.274,629.478 367.845,630.137 C 367.987,630.303 367.987,630.303 368.101,630.679 C 368.142,630.814 368.175,630.912 368.178,630.935 C 368.185,630.972 368.192,631 368.208,631.019 C 368.233,631.048 368.233,631.048 368.335,630.96 L 369.505,629.949" id="path19385" style="fill:#005ba6;fill-opacity:1;fill-rule:nonzero;stroke:none"/><path d="M 343.441,621.236 C 343.307,620.713 343.35,620.613 343.758,620.516 C 344.009,620.451 344.099,620.374 344.065,620.266 C 344.032,620.164 343.935,620.134 343.767,620.177 C 343.742,620.184 343.653,620.213 343.584,620.238 C 343.231,620.362 342.868,620.476 342.508,620.568 C 342.185,620.651 341.905,620.709 341.642,620.755 C 341.576,620.766 341.504,620.777 341.478,620.784 C 341.323,620.824 341.27,620.885 341.295,620.982 C 341.325,621.098 341.42,621.122 341.607,621.074 C 342.114,620.937 342.252,620.991 342.345,621.352 L 343.019,623.987 C 343.103,624.31 343.093,624.354 342.965,624.393 C 342.933,624.401 342.901,624.409 342.866,624.405 L 342.386,624.383 C 342.281,624.376 342.194,624.385 342.128,624.395 C 342.043,624.41 341.993,624.484 342.013,624.561 C 342.043,624.677 342.152,624.704 342.53,624.704 C 343.298,624.699 343.732,624.732 344.112,624.821 C 344.164,624.835 344.212,624.836 344.238,624.83 C 344.322,624.808 344.339,624.742 344.298,624.58 L 343.441,621.236" id="path19387" style="fill:#005ba6;fill-opacity:1;fill-rule:nonzero;stroke:none"/><path d="M 345.882,623.318 C 345.804,622.544 346.162,621.786 346.633,621.739 C 346.686,621.733 346.76,621.739 346.829,621.759 C 346.855,621.763 346.883,621.767 346.896,621.766 C 346.936,621.762 346.977,621.704 346.972,621.658 C 346.954,621.479 346.548,621.359 346.104,621.404 C 345.396,621.475 344.851,622.178 344.926,622.926 C 345.015,623.812 345.85,624.478 346.764,624.387 C 347.79,624.284 348.499,623.351 348.388,622.244 C 348.278,621.139 347.433,620.114 346.181,619.571 C 345.881,619.44 345.523,619.336 345.01,619.22 C 344.941,619.207 344.881,619.2 344.828,619.205 C 344.748,619.213 344.695,619.278 344.702,619.358 C 344.711,619.437 344.76,619.466 344.979,619.517 C 346.197,619.797 347.211,620.965 347.338,622.243 C 347.434,623.203 347.074,624.081 346.565,624.132 C 346.207,624.168 345.934,623.841 345.882,623.318" id="path19389" style="fill:#005ba6;fill-opacity:1;fill-rule:nonzero;stroke:none"/><path d="M 351.251,622.559 C 351.273,622.621 351.347,622.861 351.388,623.011 C 351.419,623.127 351.423,623.154 351.42,623.2 C 351.415,623.259 351.387,623.278 351.301,623.271 L 349.417,623.12 C 349.238,623.106 349.113,623.088 349.066,623.085 C 348.981,623.065 348.909,623.052 348.875,623.049 C 348.789,623.043 348.75,623.113 348.737,623.285 C 348.736,623.298 348.725,623.425 348.704,623.603 C 348.693,623.662 348.68,623.828 348.673,623.907 C 348.653,624.16 348.659,624.173 348.778,624.183 C 348.818,624.186 348.898,624.186 348.972,624.179 C 349.294,624.151 349.548,624.151 349.873,624.177 L 352.141,624.359 C 352.306,624.372 352.327,624.367 352.332,624.308 C 352.337,624.248 352.342,624.262 352.209,623.924 C 352.175,623.848 352.165,623.814 352.165,623.814 L 351.985,623.386 L 351.813,622.958 L 351.64,622.531 C 351.456,622.088 351.186,621.366 350.855,620.418 C 350.741,620.096 350.654,619.842 350.607,619.691 C 350.516,619.403 350.51,619.396 350.411,619.388 L 350.331,619.382 C 350.297,619.386 350.284,619.385 350.284,619.385 C 350.158,619.375 350.145,619.374 350.134,619.426 C 350.133,619.433 350.133,619.439 350.138,619.46 C 350.142,619.494 350.145,619.534 350.156,619.562 L 351.251,622.559" id="path19391" style="fill:#005ba6;fill-opacity:1;fill-rule:nonzero;stroke:none"/><path d="M 355.595,621.385 C 355.681,621.042 355.727,621.02 356.155,621.064 C 356.235,621.071 356.291,621.037 356.311,620.959 C 356.337,620.856 356.259,620.781 356.085,620.739 L 355.014,620.522 C 354.976,620.512 354.785,620.451 354.506,620.361 C 354.435,620.344 354.34,620.313 354.307,620.305 C 354.152,620.266 354.085,620.291 354.059,620.394 C 354.03,620.51 354.07,620.541 354.36,620.647 C 354.568,620.719 354.626,620.843 354.567,621.082 L 354.44,621.592 C 354.393,621.786 354.385,621.791 354.198,621.744 L 352.796,621.398 C 352.538,621.333 352.554,621.323 352.482,621.614 C 352.468,621.672 352.479,621.737 352.527,621.845 L 354.079,625.512 C 354.147,625.68 354.183,625.702 354.447,625.768 C 354.499,625.781 354.549,625.772 354.562,625.749 C 354.575,625.724 354.535,625.639 354.369,625.31 C 354.09,624.747 353.852,624.243 353.663,623.791 L 353.093,622.437 C 352.889,621.962 352.933,622.062 352.905,621.979 C 352.881,621.912 352.876,621.904 352.881,621.884 C 352.889,621.852 352.925,621.847 353.034,621.875 L 354.08,622.133 C 354.28,622.183 354.29,622.199 354.242,622.393 L 354.003,623.355 C 353.951,623.568 353.954,623.583 354.046,623.654 C 354.058,623.663 354.069,623.673 354.082,623.676 C 354.473,623.924 354.418,623.896 354.678,624.036 C 354.746,624.067 354.793,624.099 354.823,624.113 C 354.841,624.125 354.847,624.126 354.861,624.13 C 354.899,624.139 354.917,624.123 354.934,624.052 L 355.285,622.638 C 355.328,622.463 355.352,622.449 355.507,622.487 L 355.927,622.591 C 356.056,622.623 356.056,622.623 356.107,622.417 C 356.148,622.255 356.135,622.224 355.999,622.191 L 355.592,622.09 C 355.45,622.055 355.436,622.031 355.474,621.876 L 355.595,621.385" id="path19393" style="fill:#005ba6;fill-opacity:1;fill-rule:nonzero;stroke:none"/><path d="M 338.07,624.792 L 335.414,624.814 L 334.099,627.122 L 336.755,627.1 L 338.07,624.792" id="path19395" style="fill:#005ba6;fill-opacity:1;fill-rule:nonzero;stroke:none"/><path d="M 358.969,624.792 L 361.625,624.814 L 362.941,627.122 L 360.285,627.1 L 358.969,624.792" id="path19397" style="fill:#005ba6;fill-opacity:1;fill-rule:nonzero;stroke:none"/></g></g></g></g></g></svg>