<?xml version="1.0" encoding="UTF-8"?>
<!-- Generator: Adobe Illustrator 16.0.0, SVG Export Plug-In . SVG Version: 6.00 Build 0)  -->
<!DOCTYPE svg PUBLIC "-//W3C//DTD SVG 1.1//EN" "http://www.w3.org/Graphics/SVG/1.1/DTD/svg11.dtd">
<svg version="1.1" id="svg18516" xmlns:dc="http://purl.org/dc/elements/1.1/" xmlns:cc="http://creativecommons.org/ns#" xmlns:rdf="http://www.w3.org/1999/02/22-rdf-syntax-ns#" xmlns:svg="http://www.w3.org/2000/svg" xmlns:sodipodi="http://sodipodi.sourceforge.net/DTD/sodipodi-0.dtd" xmlns:inkscape="http://www.inkscape.org/namespaces/inkscape" inkscape:version="0.91 r13725" sodipodi:docname="Logo PSG.svg" xmlns="http://www.w3.org/2000/svg" xmlns:xlink="http://www.w3.org/1999/xlink" x="0px" y="0px" width="510px" height="509.964px" viewBox="0 0 510 509.964" enable-background="new 0 0 510 509.964" xml:space="preserve">
<g id="layer1" transform="translate(-540.24059,-417.3874)" inkscape:label="Calque 1" inkscape:groupmode="layer">
	<path id="path7883" inkscape:connector-curvature="0" fill="#155195" d="M795.229,422.387   c-137.827,0-249.988,112.149-249.988,249.988c0,137.827,112.161,249.976,249.988,249.976   c137.862,0,250.012-112.149,250.012-249.976C1045.241,534.537,933.091,422.387,795.229,422.387"/>
	
		<linearGradient id="path7971_1_" gradientUnits="userSpaceOnUse" x1="763.5336" y1="705.9484" x2="763.6609" y2="705.995" gradientTransform="matrix(3374.4175 0 0 3374.4175 -2575902.5 -2381568.5)">
		<stop offset="0" style="stop-color:#666666"/>
		<stop offset="1" style="stop-color:#E5E5E5"/>
	</linearGradient>
	<path id="path7971" inkscape:connector-curvature="0" fill="url(#path7971_1_)" d="M632.36,509.948   c-43.498,43.45-67.473,101.257-67.473,162.695c0,61.449,23.975,119.232,67.473,162.707c43.51,43.473,101.364,67.342,162.873,67.342   c61.533,0,119.363-23.869,162.897-67.342c43.485-43.475,67.461-101.258,67.461-162.707c0-61.438-23.976-119.245-67.461-162.695   c-43.534-43.438-101.364-67.377-162.897-67.377C733.724,442.57,675.87,466.509,632.36,509.948 M574.017,672.178   c0-122.268,99.042-221.394,221.215-221.394c122.185,0,221.228,99.126,221.228,221.394c0,122.304-99.043,221.455-221.228,221.455   C673.06,893.633,574.017,794.483,574.017,672.178 M659.561,673.404c0,74.842,60.938,135.684,135.839,135.684   s135.839-60.842,135.839-135.684c0-74.818-60.938-135.696-135.839-135.696S659.561,598.587,659.561,673.404 M813.28,548.089   c61.521,8.702,108.84,61.473,108.84,125.315c0,20.463-4.869,39.748-13.511,56.854C852.778,688.404,818.838,629.43,813.28,548.089    M668.68,673.404c0-63.842,47.295-116.637,108.852-125.315c-5.571,81.341-39.51,140.351-95.341,182.17   C673.548,713.153,668.68,693.867,668.68,673.404 M749.937,791.554c-5.143-7.798-8.142-17.011-8.142-26.927   c0-28.07,24.034-50.879,53.604-50.879c29.618,0,53.628,22.809,53.628,50.879c0,9.88-2.988,19.129-8.166,26.927   c-14.106,5.44-29.439,8.429-45.462,8.429C779.353,799.983,764.068,796.994,749.937,791.554"/>
	
		<radialGradient id="path7991_1_" cx="763.16" cy="704.8674" r="1.0003" gradientTransform="matrix(122.153 335.6129 335.6129 -122.153 -329046.0312 -169471.125)" gradientUnits="userSpaceOnUse">
		<stop offset="0" style="stop-color:#FFFFFF"/>
		<stop offset="1" style="stop-color:#999999"/>
	</radialGradient>
	<path id="path7991" inkscape:connector-curvature="0" fill="url(#path7991_1_)" d="M631.11,508.246   c-43.855,43.819-67.997,102.103-67.997,164.123c0,62.008,24.142,120.316,67.997,164.159   c43.819,43.832,102.126,68.021,164.123,68.021c62.021,0,120.304-24.189,164.147-68.021c43.843-43.843,67.973-102.15,67.973-164.159   c0-62.021-24.13-120.304-67.973-164.123c-43.844-43.879-102.126-67.997-164.147-67.997   C733.236,440.249,674.929,464.367,631.11,508.246 M572.291,672.369c0-123.113,99.829-222.93,222.941-222.93   c123.125,0,222.966,99.816,222.966,222.93c0,123.149-99.841,222.93-222.966,222.93C672.12,895.299,572.291,795.518,572.291,672.369    M658.501,673.143c0,75.484,61.414,136.922,136.898,136.922c75.461,0,136.91-61.438,136.91-136.922   c0-75.497-61.449-136.887-136.91-136.887C719.915,536.256,658.501,597.646,658.501,673.143 M667.668,673.143   c0-64.402,47.712-117.662,109.733-126.435c-5.631,82.104-39.808,141.613-96.115,183.8   C672.608,713.283,667.668,693.808,667.668,673.143 M813.446,546.732c61.962,8.761,109.65,62.009,109.65,126.411   c0,20.665-4.904,40.104-13.631,57.365C853.254,688.273,819.041,628.775,813.446,546.732 M749.58,792.375   c-5.202-7.904-8.226-17.202-8.226-27.213c0-28.332,24.213-51.283,54.045-51.283c29.844,0,54.009,22.951,54.009,51.283   c0,10.011-2.988,19.309-8.201,27.213c-14.214,5.463-29.654,8.475-45.808,8.475C779.245,800.85,763.818,797.838,749.58,792.375"/>
	
		<path id="path7995" inkscape:connector-curvature="0" fill="none" stroke="#868485" stroke-width="0.1071" stroke-miterlimit="10" d="   M795.229,895.301c-123.113,0-222.93-99.781-222.93-222.931c0-123.125,99.817-222.942,222.93-222.942   c123.137,0,222.966,99.817,222.966,222.942C1018.195,795.52,918.366,895.301,795.229,895.301L795.229,895.301z M959.387,508.235   c-43.843-43.867-102.138-67.985-164.158-67.985c-61.985,0-120.292,24.118-164.123,67.985   C587.25,552.078,563.12,610.349,563.12,672.37c0,62.009,24.13,120.315,67.985,164.159c43.831,43.83,102.138,68.02,164.123,68.02   c62.021,0,120.315-24.189,164.158-68.02c43.832-43.844,67.974-102.15,67.974-164.159   C1027.361,610.349,1003.219,552.078,959.387,508.235L959.387,508.235z M909.485,730.51   c-56.235-42.236-90.447-101.733-96.043-183.776c61.962,8.773,109.649,62.021,109.649,126.423   C923.091,693.81,918.187,713.249,909.485,730.51L909.485,730.51z M841.203,792.364c-14.214,5.476-29.653,8.499-45.795,8.499   c-16.154,0-31.594-3.023-45.831-8.499c-5.202-7.892-8.214-17.189-8.214-27.201c0-28.331,24.201-51.283,54.045-51.283   c29.832,0,54.009,22.952,54.009,51.283C849.416,775.175,846.416,784.472,841.203,792.364L841.203,792.364z M681.294,730.51   c-8.69-17.225-13.619-36.7-13.619-57.354c0-64.402,47.7-117.686,109.721-126.447C771.766,628.813,737.589,688.311,681.294,730.51z    M795.407,536.258c-75.496,0-136.91,61.39-136.91,136.899c0,75.473,61.414,136.922,136.91,136.922   c75.46,0,136.911-61.449,136.911-136.922C932.318,597.648,870.868,536.258,795.407,536.258z"/>
	
		<linearGradient id="path9213_1_" gradientUnits="userSpaceOnUse" x1="763.5668" y1="705.9387" x2="763.5573" y2="705.9223" gradientTransform="matrix(3374.4175 0 0 3374.4175 -2575902.5 -2381568.5)">
		<stop offset="0" style="stop-color:#6B6B6B"/>
		<stop offset="0.8528" style="stop-color:#666666"/>
		<stop offset="1" style="stop-color:#666666"/>
	</linearGradient>
	<path id="path9213" inkscape:connector-curvature="0" fill="url(#path9213_1_)" d="M664.727,506.865l-23.927,26.32v1.595   l41.748,38.022l0.798-0.846c2.357-2.619,4.309-4.631,7.392-7.523c0,0-0.076-1.548-0.095-1.5l-12.999-11.869l0.845,0.762   l9.083-10.368l4.524-5.238c1.464-1.727,3.131-3.417,4.345-5.5c2.429-4.023,3.44-8.893,2.881-13.523   c-0.286-2.322-0.976-4.56-2.012-6.631c-1.071-2.047-2.547-3.905-4.25-5.417c-3.654-3.321-8.356-4.917-13.083-4.917   C674.346,500.224,668.691,502.508,664.727,506.865 M656.99,532.232l12.38-14.463c1.047-1.19,2.083-2.453,3.107-3.595   c1.047-1.095,2.393-1.917,3.881-2.381c2.928-0.916,6.404-0.214,8.809,1.857c3.845,3.512,4.119,9.559,0.583,13.393l-15.618,17.178   L656.99,532.232L656.99,532.232z"/>
	
		<linearGradient id="path9235_1_" gradientUnits="userSpaceOnUse" x1="763.6068" y1="705.9299" x2="763.5944" y2="705.9083" gradientTransform="matrix(3374.4175 0 0 3374.4175 -2575902.5 -2381568.5)">
		<stop offset="0" style="stop-color:#5C5C5C"/>
		<stop offset="0.85" style="stop-color:#424242"/>
		<stop offset="1" style="stop-color:#424242"/>
	</linearGradient>
	<path id="path9235" inkscape:connector-curvature="0" fill="url(#path9235_1_)" d="M782.852,465.033l-0.01,58.331   c4.273-0.345,8.119-0.5,11.642-0.5h1.155v-17.392h14.13l11.785,18.677c0.523,0.595,1.096,1.036,1.654,1.476   c0.596,0.132,1.203,0.251,1.81,0.381c1.214,0.25,2.429,0.511,3.643,0.786c1.202,0.286,2.417,0.595,3.619,0.916l1.821,0.476   c0.69-0.203,1.369-0.345,2.107-0.643l-15.035-23.963c2.262-0.085,4.476-0.786,6.5-1.857c2.035-1.071,3.868-2.5,5.416-4.238   c1.488-1.762,2.727-3.81,3.404-6.047c0.727-2.19,0.881-4.547,0.404-6.786c0-10.809-10.249-19.618-21.082-19.618h-32.962   L782.852,465.033z M795.602,476.438l20.213-0.238c5.238,0,9.488,3.238,9.488,8.452c0,5.25-4.25,9.488-9.488,9.488h-20.177   l-0.038-17.702H795.602z"/>
	
		<linearGradient id="path9257_1_" gradientUnits="userSpaceOnUse" x1="763.6361" y1="705.9396" x2="763.6265" y2="705.923" gradientTransform="matrix(3374.4175 0 0 3374.4175 -2575902.5 -2381568.5)">
		<stop offset="0" style="stop-color:#1C1C1C"/>
		<stop offset="0.85" style="stop-color:#4A4A4A"/>
		<stop offset="1" style="stop-color:#4A4A4A"/>
	</linearGradient>
	<path id="path9257" inkscape:connector-curvature="0" fill="url(#path9257_1_)" d="M897.895,506.948   c-7.477,7.083-3.227,17.951,3.321,24.844l6.345,6.702c6.488,6.833,12.131,13.619,6.928,17.928   c-5.547,4.547-21.046-6.917-30.355-26.629l-8.368,6.285c0.535,2.607,1.44,5.154,2.5,7.631c1.333,2.297,2.845,4.512,4.452,6.642   c3.202,4.25,6.928,8.107,11.118,11.452c4.19,3.333,8.893,6.154,14.273,7.476c2.654,0.667,5.452,0.893,8.226,0.465   c2.869-0.63,5.154-1.821,6.881-4.333c8.63-7.988,5.487-19.63-8.036-33.868l-5.606-5.916c-1.607-2.357-2.238-3.833-2.583-5.274   c-0.286-1.047-0.37-2.119,0-2.928c0.345-0.81,0.762-1.25,1.44-1.476c1.643-0.798,3.702-0.038,5.547,0.714   c1.881,0.798,3.679,1.869,5.381,3.119c3.393,2.464,6.44,5.476,9.095,8.773c2.643,3.297,5,6.952,6.154,10.856l0.488,1.607   l1.333-1.012c0.322-0.25,0.667-0.511,1-0.762c0.345-0.214,0.703-0.465,1-0.75l4.702-3.619c0.31-0.786,0.476-1.167,0.714-1.821   c-5.237-14.893-22.736-29.809-36.141-29.809C904.001,503.246,900.632,504.377,897.895,506.948L897.895,506.948z"/>
	
		<linearGradient id="path9279_1_" gradientUnits="userSpaceOnUse" x1="763.6205" y1="705.9289" x2="763.6136" y2="705.9171" gradientTransform="matrix(3374.4175 0 0 3374.4175 -2575902.5 -2381568.5)">
		<stop offset="0" style="stop-color:#333333"/>
		<stop offset="0.85" style="stop-color:#666666"/>
		<stop offset="1" style="stop-color:#666666"/>
	</linearGradient>
	<path id="path9279" inkscape:connector-curvature="0" fill="url(#path9279_1_)" d="M847.516,530.054   c-0.01,0-0.439,1.083-0.477,1.047l0.418,1.417c3.393,1.298,6.773,2.703,10.106,4.238l1.095,0.512l21.451-51.617v-3   c-3.618-1.643-7.285-3.119-11.011-4.535L847.516,530.054L847.516,530.054z"/>
	
		<linearGradient id="path9301_1_" gradientUnits="userSpaceOnUse" x1="763.5839" y1="705.9318" x2="763.5734" y2="705.9136" gradientTransform="matrix(3374.4175 0 0 3374.4175 -2575902.5 -2381568.5)">
		<stop offset="0" style="stop-color:#666666"/>
		<stop offset="0.85" style="stop-color:#666666"/>
		<stop offset="1" style="stop-color:#666666"/>
	</linearGradient>
	<path id="path9301" inkscape:connector-curvature="0" fill="url(#path9301_1_)" d="M719.76,478.878l-4.226,63.89   c-0.028,0.262-0.119,2.203-0.119,2.203c3.809-2.321,9.035-5.06,13.083-7.036l0.643-14.952c7.404-3.167,15.083-5.869,22.916-7.988   l9.809,11.261c4.428-0.94,10.404-1.845,14.809-2.428l-0.833-0.964l-0.798-0.892l-43.212-47.415   C727.747,475.891,723.724,477.295,719.76,478.878 M730.414,490.152l13.916,15.952c-5.012,1.536-9.952,3.238-14.749,5.19   L730.414,490.152z"/>
	
		<linearGradient id="path9323_1_" gradientUnits="userSpaceOnUse" x1="763.5917" y1="705.9094" x2="763.5981" y2="705.9459" gradientTransform="matrix(3374.4175 0 0 3374.4175 -2575902.5 -2381568.5)">
		<stop offset="0" style="stop-color:#FFFFFF"/>
		<stop offset="0.15" style="stop-color:#FFFFFF"/>
		<stop offset="1" style="stop-color:#CCCCCC"/>
	</linearGradient>
	<path id="path9323" inkscape:connector-curvature="0" fill="url(#path9323_1_)" d="M782.852,465.033v57.152   c3.845-0.322,7.702-0.524,11.63-0.524v-17.356h14.559l12.512,19.844c4.964,0.929,9.869,2.048,14.654,3.393l-15.035-23.963   c8.619-2.286,15.726-9.904,15.726-18.928c0-10.809-10.25-19.618-21.083-19.618H782.852L782.852,465.033z M794.483,475.188h21.332   c5.238,0,9.488,4.25,9.488,9.464c0,5.25-4.25,9.488-9.488,9.488h-21.332V475.188L794.483,475.188z M719.76,478.878l-4.297,65.057   c3.857-2.357,7.809-4.524,11.892-6.536l0.608-15.202c7.857-3.452,16.035-6.321,24.487-8.547l10,11.476   c4.381-0.939,8.845-1.69,13.392-2.262l-44.01-48.307C727.748,475.89,723.725,477.295,719.76,478.878 M729.379,487.199   l16.166,18.523c-5.845,1.738-11.571,3.738-17.154,6.047L729.379,487.199z M847.04,531.102c3.762,1.417,7.404,2.917,11.023,4.583   l22.046-53.033c-3.618-1.643-7.285-3.119-11.011-4.535L847.04,531.102z M664.727,506.865l-23.927,26.32l41.653,37.974   c2.631-2.845,5.369-5.595,8.19-8.226l-13-11.869l16.095-17.749c7.297-8,7.321-20.868-0.678-28.166   c-3.654-3.321-8.356-4.917-13.083-4.917C674.347,500.224,668.692,502.508,664.727,506.865 M656.133,531.447l15.642-17.142   c3.512-3.904,9.512-4.178,13.392-0.654c3.845,3.512,4.119,9.559,0.583,13.392l-15.618,17.178L656.133,531.447L656.133,531.447z    M897.896,506.948c-7.477,7.083-3.227,17.952,3.321,24.844l6.345,6.702c6.487,6.833,12.13,13.618,6.928,17.928   c-5.547,4.547-21.046-6.917-30.355-26.63l-8.368,6.286c1.987,5.178,6.487,12.702,12.559,19.082   c6.821,7.19,14.309,11.893,20.963,13.202c5.262,1.047,10.512,0.262,13.928-2.952c8.631-7.988,5.488-19.63-8.035-33.868   l-5.606-5.917c-6.214-6.571-3.679-10.285-1.273-10.833c8.606-2.036,24.403,13.63,27.403,24.308   c2.559-1.928,8.143-6.047,8.143-6.047c-5.25-14.892-22.737-29.808-36.142-29.808C904.014,503.246,900.633,504.377,897.896,506.948"/>
	<path id="path8351" inkscape:connector-curvature="0" fill="#EE293D" d="M806.676,546.072c-3.846-0.345-7.703-0.571-11.607-0.571   c-3.952,0-7.857,0.226-11.702,0.571c-0.881,48.367-12.69,89.686-32.653,124.72h88.614   C819.342,635.758,807.557,594.439,806.676,546.072 M901.802,743.289c-10.226,15.522-23.713,28.664-39.522,38.486   c0.608-3.369,0.905-6.822,0.905-10.346c0-35.188-30.487-63.711-68.116-63.711c-37.653,0-68.14,28.522-68.14,63.711   c0,3.523,0.31,6.977,0.892,10.346c-15.82-9.822-29.32-22.988-39.545-38.522c23.653-19.095,43.855-41.511,59.533-67.497h94.436   C857.935,701.767,878.16,724.195,901.802,743.289"/>
	<path id="path9627" inkscape:connector-curvature="0" fill="#FFFFFF" d="M683.935,804.069l-7.393,3.488l5.131,4.346   L683.935,804.069z M681.173,824.854l-2.738-2.035l2.322-7.643l-7.297-6.202l-7.262,3.464l-2.452-2.262l21.416-10.095l2.595,2.226   L681.173,824.854L681.173,824.854z"/>
	<path id="path9631" inkscape:connector-curvature="0" fill="#FFFFFF" d="M702.307,813.094l-11.988,18.178l-2.583-1.701   l11.987-18.143L702.307,813.094z"/>
	<path id="path9635" inkscape:connector-curvature="0" fill="#FFFFFF" d="M711.704,819.072l3.726,20.309l0.048,0.037l7.583-14.402   l2.702,1.451l-9.94,18.963l-2.703-1.262l-3.75-20.498l-0.057-0.066l-7.667,14.629l-2.678-1.535l10.011-19.035l2.726,1.418   L711.704,819.072z"/>
	<path id="path9639" inkscape:connector-curvature="0" fill="#FFFFFF" d="M748.753,834.891l-1.024,2.93l-7.095-2.465l-6.095,17.488   l-2.893-1l6.059-17.523l-7.095-2.453l1.036-2.893L748.753,834.891L748.753,834.891z"/>
	<path id="path9643" inkscape:connector-curvature="0" fill="#FFFFFF" d="M795.801,850.893l9.845,0.166l-0.108,5.691   c-0.057,3.832-4.332,6.381-9.678,6.25c-5.726-0.059-11.642-4.119-11.511-11.381c0.095-6.107,5.06-11.035,11.917-10.941   c5.095,0.096,7.737,2.822,8.976,4.025l-2.179,2.166c-1.036-1.012-2.667-3.012-6.547-3.084c-5.667-0.094-9.012,3.523-9.083,8.047   c-0.067,4.191,3.178,8.023,8.619,8.119c3.689,0.039,6.368-1.631,6.404-3.488l0.037-2.393l-6.726-0.094l0.038-3.084H795.801z"/>
	<path id="path9647" inkscape:connector-curvature="0" fill="#FFFFFF" d="M829.166,837.938l0.465,3.084l-14.321,2.047l0.798,5.559   l7.215-1.035l0.428,3.084l-7.201,1l0.939,6.451l14.82-2.107l0.44,3.049l-17.892,2.547l-3.024-21.189L829.166,837.938   L829.166,837.938z"/>
	<path id="path9651" inkscape:connector-curvature="0" fill="#FFFFFF" d="M840.385,838.254l1.82,6.012l9.154-2.715   c2.179-0.656,3.119-2.203,2.524-4.215c-0.715-2.32-2.679-2.357-4.381-1.844L840.385,838.254L840.385,838.254z M848.634,832.563   c3.273-1.012,6.94-0.25,8.178,3.893c1.346,4.465-1.202,6.773-2.893,7.43l6.69,7.201l-3.238,1.166l-6.654-7.297l-7.619,2.285   l2.584,8.596l-2.965,0.846l-6.154-20.5L848.634,832.563L848.634,832.563z"/>
	<path id="path9655" inkscape:connector-curvature="0" fill="#FFFFFF" d="M895.738,812.466l1.571,8.06l5.464-3.941L895.738,812.466   L895.738,812.466z M915.034,820.203l-2.69,2.166l-6.618-4.047l-7.821,5.523l1.512,7.773l-2.737,1.727l-4.524-23.047l2.798-1.951   L915.034,820.203L915.034,820.203z"/>
	<path id="path9659" inkscape:connector-curvature="0" fill="#FFFFFF" d="M908.352,797.686l14.642,15.726l-2.321,2.048   l-14.57-15.666L908.352,797.686L908.352,797.686z"/>
	<path id="path9663" inkscape:connector-curvature="0" fill="#FFFFFF" d="M916.851,789.289l20.606,1.416l0.048-0.037l-12.106-10.881   l2.071-2.298l15.903,14.31l-1.845,2.297l-20.82-1.416l-0.038,0.037l12.237,11.035l-2.166,2.203l-15.976-14.369l2.083-2.297H916.851   z"/>
	<path id="path9667" inkscape:connector-curvature="0" fill="#FFFFFF" d="M880.573,818.065l-2.762,1.381l-0.465,15.225l-12.56-8.547   l-2.762,1.404l9.393,19.25l2.798-1.227l-6.5-13.715l0.048-0.018l12.451,8.428l0.465-15.012l0.058-0.027l7.285,13.297l2.69-1.5   l-10.143-18.939H880.573z"/>
	<path id="path9671" inkscape:connector-curvature="0" fill="#FFFFFF" d="M673.07,790.451c-1.738-6.547-8.381-12.916-13.38-12.916   c-1.131,0-2.119,0.311-2.988,0.929c-1.012,0.763-1.607,1.763-1.762,3c-0.286,1.881,0.476,4.298,2.048,6.405l2.297,3.082   c1.75,2.334,3.452,4.81,3.107,6.762c-0.13,0.799-0.571,1.417-1.31,1.893c-0.392,0.251-0.857,0.381-1.381,0.381   c-3.095,0-8.345-5.512-10.928-13.439l-0.029-0.154l-2.273,2.143l-0.019,0.037v0.058c0.476,1.976,1.845,5.154,4.107,8.202   c2.393,3.178,5.095,5.381,7.654,6.201c0.833,0.25,1.631,0.369,2.393,0.369c1.095,0,2.107-0.285,2.857-0.81   c1.25-0.881,1.953-2.048,2.167-3.429c0.393-2.523-0.939-5.856-3.988-9.904l-2-2.714c-1.619-2.131-1.559-3.512-1.202-4.333   c0.31-0.69,0.929-1.166,1.655-1.262h0.368c3.69,0,8.881,6.107,10.238,10.82l0.019,0.131l0.119-0.107   c0.762-0.404,1.643-0.904,2.178-1.215l0.076-0.037l-0.028-0.096L673.07,790.451z"/>
	<path id="path9675" inkscape:connector-curvature="0" fill="#FFFFFF" d="M767.209,851.807l-7.642-1.703l0.714-3.047l7.595,1.701   L767.209,851.807L767.209,851.807z"/>
	<path id="path9983" inkscape:connector-curvature="0" fill="#B1BCD1" d="M676.72,807.342l7.595-3.988l-2.476,8.332L676.72,807.342z    M685.113,799.675l-21.63,10.273l2.404,2.143l0.44-0.13h0.029l7.071-3.465l7.714,6.512l-2.417,7.523l0.058,0.057l-0.058,0.191   l2.31,1.631v-0.029l0.01,0.029l0.057-0.215l0.038,0.039v-0.039l0.038,0.039l6.654-22.214l-2.714-2.345L685.113,799.675z"/>
	<path id="path9987" inkscape:connector-curvature="0" fill="#B1BCD1" d="M702.459,812.879l-2.786-1.822l-0.01,0.02l-0.038-0.02   l-12.107,18.393l2.738,1.727h0.028l0.095-0.18l0.038,0.02l12.047-18.142L702.459,812.879z"/>
	<path id="path9991" inkscape:connector-curvature="0" fill="#B1BCD1" d="M722.951,824.668l-7.607,14.498l-3.702-20.439   l-2.547-1.357l-0.179-0.094v0.037l-0.019-0.037l-10.107,19.283l2.286,1.287l0.286,0.094l0.086-0.25l0.01-0.076l0.095,0.076h0.038   l0.057-0.154l0.057,0.018v-0.018l0.038,0.018l7.595-14.498l3.798,19.855l2.69,1.25v-0.037l0.048,0.037l0.029-0.057l0.066,0.029   h0.048l0.076-0.119h0.085l9.726-17.809l-2.94-1.537H722.951z"/>
	<path id="path9995" inkscape:connector-curvature="0" fill="#B1BCD1" d="M731.739,828.664l-1.036,3.047l7.452,2.393l-6.214,17.262   l0.067,0.039l-0.067,0.189l2.5,0.715h0.028l0.067-0.25l0.057,0.037h0.038l5.869-17.105l7.178,2.393h0.038l0.095-0.191l0.038,0.02   h0.029l0.976-2.607l-17.106-5.939H731.739z"/>
	<path id="path9999" inkscape:connector-curvature="0" fill="#B1BCD1" d="M832.276,855.768l-0.02-0.057h-0.227l-14.57,2.072   l-0.977-6.227l7.143-1.035l-0.028-0.227l0.13-0.02l-0.439-2.988l-0.167,0.029l-0.01-0.029l-0.038,0.029v-0.029l-7.047,0.977   l-0.786-5.32l14.19-2.012l-0.049-0.252h0.167l-0.44-3.047h-0.237l-17.083,2.477l3.036,21.201h0.028l0.057,0.25l17.654-2.57   l-0.038-0.227h0.167l-0.417-2.988L832.276,855.768z"/>
	<path id="path10003" inkscape:connector-curvature="0" fill="#B1BCD1" d="M897.076,820.237l-1.81-8.369l7.512,4.346   L897.076,820.237z M909.075,816.844l-14.392-8.679l-2.94,2l4.654,23.368l2.607-1.727l0.237-0.189l-1.476-7.834l7.939-5.846   l6.607,4.025h0.028l2.369-1.572l-0.076-0.057l0.19-0.133l-5.75-3.355V816.844z"/>
	<path id="path10007" inkscape:connector-curvature="0" fill="#B1BCD1" d="M908.177,797.497l-2.249,2.106l14.749,15.535h0.038   l1.952-1.607l-0.01-0.018l0.143-0.168l-14.618-15.844L908.177,797.497z"/>
	<path id="path10011" inkscape:connector-curvature="0" fill="#B1BCD1" d="M943.211,791.838l-15.939-14.56l-2.084,2.333   l12.94,11.285l-21.618-1.643h-0.048l-1.893,2.143l16.201,14.214l0.011-0.038v0.038l1.31-1.702l-0.038-0.038l0.178-0.144   l-12.023-11.297l21.261,1.357h0.011l1.595-1.762l-0.01-0.038l0.143-0.155L943.211,791.838z"/>
	<path id="path10015" inkscape:connector-curvature="0" fill="#B1BCD1" d="M760.33,846.778l-0.714,3.238l7.5,1.701h0.038   l0.038-0.227l0.048,0.039v-0.039l0.028,0.039l0.703-3.047l-7.631-1.703L760.33,846.778z"/>
	<path id="path10019" inkscape:connector-curvature="0" fill="#B1BCD1" d="M840.012,838.254l9.535-3.238   c0.429-0.119,0.881-0.227,1.31-0.25c1.286-0.096,2.548,0.75,3.071,2.475c0.086,0.227,0.106,0.441,0.143,0.668   c0.108,1.57-0.939,2.736-2.821,3.297l-9.499,2.832l-1.738-5.785V838.254z M855.988,842.063c0.904-1.227,1.452-3.084,0.667-5.666   c-0.608-2.049-1.607-3.334-3-3.893c-0.846-0.381-1.667-0.691-2.607-0.668c-0.81,0-1.666,0.119-2.488,0.381l-12.13,3.619   l3.893,12.703l2.429,8.012h0.038l0.214-0.049l0.131,0.049l2.202-0.691l-2.631-8.678l8.226-2.666l6.44,7.51h0.038l0.238-0.094   l0.048,0.094l2.547-1.105l-6.797-7.227c0.702-0.346,1.916-0.727,2.547-1.631"/>
	<path id="path10023" inkscape:connector-curvature="0" fill="#B1BCD1" d="M664.908,800.956c0.405-0.632,0.203-1.726,0.31-2.476   c0.381-2.524-0.81-5.227-3.833-9.25l-2.012-2.715c-1.607-2.131-1.203-3.773-0.845-4.582c0.057-0.096,0.154-0.227,0.214-0.346   c0.357-0.416,0.822-0.666,1.333-0.726c0.107,0,0.214-0.038,0.322-0.038c3.655,0.038,9.13,5.857,10.488,10.571l0.038,0.132h0.019   l0.131-0.076c0.75-0.44,1.357-0.691,1.893-0.977l0.076-0.057l-0.028-0.076v-0.02h-0.048l0.048-0.096   c-1.417-5.381-5.964-10.654-10.369-12.393c-1.036-0.439-2.06-0.654-3.024-0.654h-0.019c-1.131,0-2.131,0.309-3,0.939   c-0.964,0.762-1.453,1.703-1.631,2.929c-0.067,0.465-0.067,1,0,1.548c0.131,1.631,1.488,4.012,2.738,5.713l1.917,2.834   c1.512,2.012,2.631,2.797,2.786,4.583c0.086,0.762-0.01,1.356-0.047,1.548c-0.167,0.881-0.524,1.512-1.25,1.977   c-0.405,0.262-0.988,0.416-1.488,0.416c-0.368,0-0.786-0.095-1.178-0.25c-3.119-1.262-7.333-6.297-9.536-13.154l-0.13-0.31   l-0.119,0.13l-2.273,2.131l-0.038,0.039c0,0,0.057,0.189,0.076,0.25c0,0,2,4.965,4.273,8.023c2.393,3.166,4.774,5.25,7.321,6.06   c0.846,0.286,1.643,0.416,2.405,0.416h0.028c1.131,0,2.202,0.038,2.976-0.511c0.619-0.44,1.131-0.965,1.488-1.536"/>
	<path id="path10027" inkscape:connector-curvature="0" fill="#B1BCD1" d="M795.858,850.549h-0.047l0.047,2.988h0.039v0.189h0.202   l6.417,0.119l-0.144,2.299c-0.038,1.797-2.667,3.486-6.38,3.428c-0.286,0-0.572,0-0.821-0.039   c-2.643-0.309-4.929-1.463-6.345-3.262c-1.297-1.631-1.512-2.512-1.488-4.594c0.038-1.381,0.345-2.703,0.988-3.869   c1.405-2.453,4.452-4.273,8.262-4.215c3.797,0.096,5.404,2.084,6.428,3.084l0.01-0.029l0.029,0.029l0.076-0.096   c0.037,0.039,0.066,0.066,0.105,0.096h0.029l2.179-2.166h-0.011l0.096-0.096c-0.32-0.285-0.738-0.691-1.273-1.166   c-1.5-1.287-3.953-2.857-7.821-2.895h-0.251c-6.856-0.119-11.797,4.811-11.916,10.904c0,0.514,0.038,0.988,0.076,1.43   c0.535,6.475,6.059,10,11.44,10.082h0.095c0.039,0,0.086,0.039,0.131,0.039h0.029c4.023,0.066,7.297-1.322,8.749-3.643   c0.488-0.822,0.774-1.703,0.798-2.715l0.086-5.715l-9.785-0.189H795.858z"/>
	<path id="path10031" inkscape:connector-curvature="0" fill="#B1BCD1" d="M880.424,817.748l-2.833,1.416l-0.476,15.404   l-12.583-8.678l-2.667,1.32l5.477,10.881l4.178,8.5h0.048l1.571-0.703l0.869-0.559l-6.702-14.023l12.701,8.547v-0.039l0.029,0.039   v-0.25l0.085,0.037h0.038l0.405-11.951l0.107-2.547l0.028-0.039l7.31,13.215l0.076-0.156l0.019,0.057h0.038l2.179-1.57   l-9.881-18.904L880.424,817.748z"/>
	<path id="path10035" inkscape:connector-curvature="0" fill="#FFFFFF" d="M760.33,846.901l-0.727,3.145v0.037l7.487,1.691h0.029   l0.038-0.119h0.057l0.69-3.025l-7.571-1.725L760.33,846.901z"/>
	<path id="path10039" inkscape:connector-curvature="0" fill="#FFFFFF" d="M796.045,850.707h-0.238l0.049,3.023v0.156l6.761,0.096   l-0.19,2.225c-0.155,1.857-2.666,3.488-6.297,3.488c-5.393-0.086-8.952-3.762-8.881-7.951c0.038-1.631,0.524-3.18,1.357-4.428   c0.453-0.668,1.298-1.357,1.94-1.834c0.19-0.156,0.381-0.273,0.595-0.439c1.417-0.846,3.202-1.311,5.273-1.25   c3.904,0.027,5.523,1.939,6.56,2.986l0.038-0.037l0.02,0.037l0.01-0.037c0,0.037,0.037,0.037,0.047,0.057l0.076-0.057v0.037   l2.167-2.201l0.058-0.066c-1.215-1.215-3.869-3.953-9-4.049h-0.215c-6.856-0.094-11.809,4.834-11.916,10.941   c0,0.057,0.01,0.094,0.01,0.166c0,0.029-0.01,0.029-0.01,0.057c-0.131,7.262,5.904,11.191,11.63,11.322   c2.393,0,4.404-0.418,6.023-1.299c0.487-0.213,0.916-0.523,1.285-0.809c0.596-0.477,1.096-1.035,1.465-1.607   c0.5-0.822,0.785-1.666,0.809-2.703l0.168-5.701l-9.596-0.119L796.045,850.707z"/>
	<path id="path10043" inkscape:connector-curvature="0" fill="#FFFFFF" d="M664.25,801.807c0.786-0.785,0.786-2.143,0.904-3.178   c0.381-2.535-0.786-5.25-3.797-9.273l-2.023-2.738c-1.607-2.143-1.19-3.75-0.87-4.523c0.155-0.32,0.357-0.571,0.595-0.797   c0.274-0.215,0.63-0.346,0.976-0.381h0.31c3.679,0,9.154,5.833,10.512,10.547l0.028,0.119h0.038l0.119-0.057   c0.75-0.44,1.357-0.691,1.928-0.977l0.155-0.038c-0.679-2.44-1.988-5.095-3.678-7.167c-2.833-3.523-6.619-6.07-9.785-6.07   c-1.095,0-2.107,0.32-2.952,0.977c-0.274,0.189-0.513,0.381-0.69,0.63c-0.417,0.44-0.655,1.012-0.881,1.595   c-0.095,0.297-0.13,0.513-0.155,0.857c-0.038,0.226-0.067,0.5-0.067,0.762c-0.01,1.75,1.036,4.178,2.44,6l1.988,2.773   c1.548,2.071,2.964,3.928,3.095,5.714c0,0.251,0.029,0.345-0.067,0.917c-0.028,0.156-0.155,0.465-0.214,0.631   c-0.119,0.345-0.309,0.631-0.595,0.881c-0.155,0.131-0.297,0.25-0.476,0.381c-0.405,0.25-0.846,0.369-1.381,0.369   c-1.738,0-4.119-1.727-6.369-4.619c-1.774-2.298-3.381-5.285-4.476-8.738l-0.085-0.262l-2.369,2.227c0,0,1.107,4.226,3.833,7.844   c2.369,3.18,5.214,5.619,7.786,6.441c0.809,0.25,1.619,0.381,2.393,0.381h0.029c1.119,0,2.214,0.057,2.964-0.477   c0.31-0.25,0.571-0.477,0.857-0.75"/>
	<path id="path10047" inkscape:connector-curvature="0" fill="#FFFFFF" d="M725.8,826.303l-0.076-0.057l-2.703-1.416l-0.028,0.027   l-0.038-0.027l-0.01,0.027l-7.643,14.559l-3.643-20.521l-0.019-0.039h-0.047v-0.037l-2.631-1.346h-0.048l-0.028,0.02l-9.988,19.059   l-0.01,0.057l0.047,0.039l2.583,1.189l0.086-0.18l0.057,0.029l7.738-14.773l3.845,20.154l2.69,1.191l0.095-0.156l0.076,0.039   l9.738-17.809l-0.048-0.029H725.8z"/>
	<path id="path10051" inkscape:connector-curvature="0" fill="#FFFFFF" d="M684.312,803.443l-2.476,8.393l-5.167-4.333   L684.312,803.443z M687.8,802.121l-2.631-2.238l-21.523,10.19l2.238,2.023l7.512-3.464l7.738,6.512l-2.417,7.605v0.039l0.019,0.029   l-0.019,0.094l2.297,1.643l0.057-0.262l0.038,0.059h0.029l6.666-22.227L687.8,802.121z"/>
	<path id="path10055" inkscape:connector-curvature="0" fill="#FFFFFF" d="M702.402,812.969l-2.714-1.785l-12.059,18.332   l2.631,1.666l0.096-0.037l12.047-18.178V812.969z"/>
	<path id="path10059" inkscape:connector-curvature="0" fill="#FFFFFF" d="M731.686,828.785l-0.94,2.893l-0.038,0.096l7.44,2.512   l-6.214,17.309v0.029l0.029,0.037l-0.029,0.096l2.5,0.656l0.066-0.156h0.029l0.029-0.037l0.01,0.037l5.857-17.166l7.262,2.441   l0.066-0.178l0.076,0.094l-0.028-0.131h0.076l0.94-2.607l-17.13-5.916L731.686,828.785z"/>
	<path id="path10063" inkscape:connector-curvature="0" fill="#FFFFFF" d="M832.276,855.803l-0.215,0.02l-14.643,2.082l-0.964-6.225   l7.131-1.012l-0.048-0.156v-0.02h0.058l0.085-0.037l-0.019-0.076h0.067l-0.44-3.047l-0.179,0.037l-7.131,1.012l-0.773-5.32   l14.178-2.012l-0.047-0.131v-0.029h0.076l-0.029-0.037h0.096v-0.066l0.095-0.029l-0.465-3.047l-0.202,0.037v-0.037l-17.071,2.512   v0.213l0.028,0.227l2.988,20.879l0.038,0.076l17.618-2.547l-0.01-0.096h0.038v-0.037h0.095v-0.096h0.039l-0.381-3.047   L832.276,855.803z"/>
	<path id="path10067" inkscape:connector-curvature="0" fill="#FFFFFF" d="M849.505,835.112c1.702-0.477,3.702-0.037,4.404,2.297   c0.058,0.215,0.107,0.43,0.131,0.619c0.028,0.227,0.028,0.441,0,0.607c0,0.215-0.02,0.441-0.096,0.596   c-0.32,0.977-1.321,1.691-2.679,2.107l-9.559,2.834l-1.762-5.799L849.505,835.112L849.505,835.112z M853.386,843.826   c0.678-0.322,1.893-0.727,2.512-1.607c0.916-1.227,1.5-3.084,0.702-5.727c-0.56-1.857-1.428-3.107-2.702-3.773   c-1.606-0.846-3.476-0.904-5.333-0.381l-12.07,3.619l1.785,5.881l4.44,14.713l0.988-0.25l1.523-0.404l-2.56-8.584l8.227-2.715   l6.439,7.584l2.523-1.096v-0.037l0.238-0.059l-6.714-7.166V843.826z"/>
	<path id="path10071" inkscape:connector-curvature="0" fill="#FFFFFF" d="M897.027,820.358l-1.821-8.368l7.571,4.38   L897.027,820.358z M894.788,808.228l-2.856,1.976l4.606,23.238l2.464-1.631l0.18-0.131l-1.465-7.762l7.965-5.857l6.606,4.059   l2.345-1.594l-0.047-0.039l0.214-0.154l-20.011-12.107L894.788,808.228z"/>
	<path id="path10075" inkscape:connector-curvature="0" fill="#FFFFFF" d="M908.237,797.588l-2.25,2.084l14.678,15.617l1.952-1.594   l-0.01-0.039l0.143-0.179l-14.511-15.892L908.237,797.588z"/>
	<path id="path10079" inkscape:connector-curvature="0" fill="#FFFFFF" d="M943.163,791.933l-15.82-14.595l-2.071,2.297   l12.832,11.346l-21.486-1.727l-1.988,2.203l16.106,14.272l1.31-1.667l-0.01-0.028l0.154-0.19l-12.022-11.285l21.261,1.346   l1.571-1.762l0.167-0.215L943.163,791.933z"/>
	<path id="path10083" inkscape:connector-curvature="0" fill="#FFFFFF" d="M880.487,817.873l-2.762,1.416l-0.477,15.5l-7.643-5.154   l-5-3.643l-0.333,0.154l-2.273,1.168h-0.058l0.076,0.129l9.5,19.297l2.214-1.285l0.19-0.096l-6.726-14.082l5.81,3.988l6.976,4.713   v-0.178h0.038v-0.076l0.057,0.076v-0.076l0.038,0.076l0.382-10.512l0.154-4.428l1.44,2.797l5.917,10.75l0.066-0.057h0.028   l1.738-1.477l0.143-0.057l0.19-0.096l-9.678-18.844L880.487,817.873z"/>
	
		<radialGradient id="path10103_1_" cx="762.9213" cy="704.3674" r="1.009" gradientTransform="matrix(281.0758 0 0 -281.0758 -213778.4375 198771.3438)" gradientUnits="userSpaceOnUse">
		<stop offset="0" style="stop-color:#CCCCCC"/>
		<stop offset="1" style="stop-color:#A6A6A6"/>
	</radialGradient>
	<path id="path10103" inkscape:connector-curvature="0" fill="url(#path10103_1_)" d="M685.167,800.077L685.167,800.077l2.595,2.237   v0.02l-6.595,22.51l-2.738-2.047l2.321-7.631l-7.297-6.189l-7.25,3.452l-2.464-2.274l0,0l21.428-10.082V800.077z M676.536,807.565   l5.143,4.334l2.262-7.834L676.536,807.565z"/>
	
		<radialGradient id="path10123_1_" cx="762.9213" cy="704.3674" r="1.0053" gradientTransform="matrix(280.8943 0 0 -280.8943 -213639.7188 198643.625)" gradientUnits="userSpaceOnUse">
		<stop offset="0" style="stop-color:#CCCCCC"/>
		<stop offset="1" style="stop-color:#A6A6A6"/>
	</radialGradient>
	<path id="path10123" inkscape:connector-curvature="0" fill="url(#path10123_1_)" d="M687.738,829.576l11.987-18.143l2.583,1.666   l0,0l-12,18.166L687.738,829.576L687.738,829.576z"/>
	
		<radialGradient id="path10143_1_" cx="762.9222" cy="704.3664" r="0.9985" gradientTransform="matrix(281.198 0 0 -281.198 -213871.625 198857.7031)" gradientUnits="userSpaceOnUse">
		<stop offset="0" style="stop-color:#CCCCCC"/>
		<stop offset="1" style="stop-color:#A6A6A6"/>
	</radialGradient>
	<path id="path10143" inkscape:connector-curvature="0" fill="url(#path10143_1_)" d="M698.964,836.682l10.023-19.021l2.714,1.416   l3.726,20.32l0.048,0.01l7.583-14.393l2.703,1.441l0,0l-9.928,18.963l-2.714-1.262l-3.738-20.498l-0.057-0.059l-7.678,14.631   l-2.678-1.547L698.964,836.682z"/>
	
		<radialGradient id="path10163_1_" cx="762.9222" cy="704.3683" r="1" gradientTransform="matrix(281.4811 0 0 -281.4811 -214087.5625 199057)" gradientUnits="userSpaceOnUse">
		<stop offset="0" style="stop-color:#CCCCCC"/>
		<stop offset="1" style="stop-color:#A6A6A6"/>
	</radialGradient>
	<path id="path10163" inkscape:connector-curvature="0" fill="url(#path10163_1_)" d="M734.521,852.848l-2.881-1l6.071-17.521   l-7.095-2.453l1.023-2.893l17.119,5.916v0.01l-1.036,2.904l-7.095-2.463l-6.095,17.498h-0.01L734.521,852.848z"/>
	
		<radialGradient id="path10183_1_" cx="762.9213" cy="704.3674" r="1.0003" gradientTransform="matrix(281.3606 0 0 -281.3605 -213995.6719 198972.0312)" gradientUnits="userSpaceOnUse">
		<stop offset="0" style="stop-color:#CCCCCC"/>
		<stop offset="1" style="stop-color:#A6A6A6"/>
	</radialGradient>
	<path id="path10183" inkscape:connector-curvature="0" fill="url(#path10183_1_)" d="M805.637,851.528l-0.107,5.213   c-0.057,3.846-4.321,6.381-9.666,6.262c-5.726-0.057-11.654-4.119-11.512-11.381c0.086-6.047,4.964-10.939,11.714-10.939h0.202   c5.084,0.086,7.738,2.822,8.965,4.023l-2.167,2.168c-1.048-1.012-2.679-3.025-6.548-3.072c-5.666-0.107-9.023,3.512-9.094,8.047   c-0.057,4.18,3.19,8.012,8.619,8.119c3.702,0.01,6.381-1.643,6.404-3.512l0.048-2.381l-6.727-0.096l0.039-3.094l9.832,0.178v0.465   H805.637z"/>
	
		<radialGradient id="path10203_1_" cx="762.9257" cy="704.3674" r="0.9941" gradientTransform="matrix(281.0121 0 0 -281.0121 -213729.5625 198726.4062)" gradientUnits="userSpaceOnUse">
		<stop offset="0" style="stop-color:#CCCCCC"/>
		<stop offset="1" style="stop-color:#A6A6A6"/>
	</radialGradient>
	<path id="path10203" inkscape:connector-curvature="0" fill="url(#path10203_1_)" d="M829.112,837.944h0.058l0.464,3.072   l-14.332,2.047l0.809,5.572l7.202-1.049l0.44,3.084l-7.202,1.012l0.929,6.451l14.832-2.105l0.429,3.047l-17.892,2.547l0,0   l-3.012-21.201l17.272-2.477H829.112z"/>
	
		<radialGradient id="path10223_1_" cx="762.9261" cy="704.3654" r="0.9935" gradientTransform="matrix(281.2442 0 0 -281.2441 -213906.8906 198890)" gradientUnits="userSpaceOnUse">
		<stop offset="0" style="stop-color:#CCCCCC"/>
		<stop offset="1" style="stop-color:#A6A6A6"/>
	</radialGradient>
	<path id="path10223" inkscape:connector-curvature="0" fill="url(#path10223_1_)" d="M850.92,832.158h0.5   c2.369,0.086,4.512,1.322,5.405,4.299c1.333,4.475-1.215,6.773-2.905,7.428l6.69,7.201l-3.238,1.168l-6.654-7.311l-7.618,2.299   l2.583,8.594l-2.976,0.846l-6.155-20.486v-0.01l12.071-3.619c0.75-0.238,1.523-0.369,2.297-0.406V832.158z M840.373,838.254   l1.834,6.012l9.166-2.703c2.154-0.666,3.106-2.213,2.5-4.225c-0.69-2.322-2.667-2.346-4.369-1.857L840.373,838.254L840.373,838.254   z"/>
	
		<radialGradient id="path10243_1_" cx="762.9222" cy="704.3674" r="0.9994" gradientTransform="matrix(281.367 0 0 -281.367 -214000.5781 198976.6094)" gradientUnits="userSpaceOnUse">
		<stop offset="0" style="stop-color:#CCCCCC"/>
		<stop offset="1" style="stop-color:#A6A6A6"/>
	</radialGradient>
	<path id="path10243" inkscape:connector-curvature="0" fill="url(#path10243_1_)" d="M894.943,808.35h0.019l20.059,11.857   l-2.679,2.166l-6.63-4.059l-7.821,5.535l1.523,7.762l-2.738,1.738l-4.523-23.059l2.786-1.94L894.943,808.35z M895.74,812.469   l1.571,8.047l5.464-3.928L895.74,812.469z"/>
	
		<radialGradient id="path10263_1_" cx="762.9222" cy="704.3664" r="0.9995" gradientTransform="matrix(281.418 0 0 -281.418 -214039.4219 199012.5156)" gradientUnits="userSpaceOnUse">
		<stop offset="0" style="stop-color:#CCCCCC"/>
		<stop offset="1" style="stop-color:#A6A6A6"/>
	</radialGradient>
	<path id="path10263" inkscape:connector-curvature="0" fill="url(#path10263_1_)" d="M908.346,797.684L908.346,797.684   l14.643,15.727l0,0l-2.31,2.047l0,0l-14.582-15.666l0,0L908.346,797.684L908.346,797.684z"/>
	
		<radialGradient id="path10283_1_" cx="762.9222" cy="704.3683" r="1" gradientTransform="matrix(281.3319 0 0 -281.3319 -213973.8125 198951.875)" gradientUnits="userSpaceOnUse">
		<stop offset="0" style="stop-color:#CCCCCC"/>
		<stop offset="1" style="stop-color:#A6A6A6"/>
	</radialGradient>
	<path id="path10283" inkscape:connector-curvature="0" fill="url(#path10283_1_)" d="M927.464,777.494L927.464,777.494   l15.916,14.31l0,0l-1.856,2.298l-20.82-1.417l-0.02,0.038l12.226,11.035l-2.166,2.202l-15.964-14.368l2.071-2.31l20.606,1.417   l0.047-0.02l-12.094-10.881l2.059-2.297L927.464,777.494z"/>
	
		<radialGradient id="path10303_1_" cx="762.9213" cy="704.3683" r="1.0006" gradientTransform="matrix(281.4541 0 0 -281.454 -214066.9688 199037.9219)" gradientUnits="userSpaceOnUse">
		<stop offset="0" style="stop-color:#CCCCCC"/>
		<stop offset="1" style="stop-color:#A6A6A6"/>
	</radialGradient>
	<path id="path10303" inkscape:connector-curvature="0" fill="url(#path10303_1_)" d="M862.028,827.528l2.762-1.404l12.547,8.547   l0.476-15.225l2.762-1.369l10.131,18.904v0.01l-2.679,1.512l-7.285-13.297l-0.057,0.037l-0.477,15l-12.439-8.428l-0.048,0.027   l6.487,13.715l-2.785,1.227l-9.393-19.238v-0.01L862.028,827.528z"/>
	
		<radialGradient id="path10323_1_" cx="762.9222" cy="704.3674" r="0.9949" gradientTransform="matrix(280.9047 0 0 -280.9047 -213647.7031 198650.75)" gradientUnits="userSpaceOnUse">
		<stop offset="0" style="stop-color:#CCCCCC"/>
		<stop offset="1" style="stop-color:#A6A6A6"/>
	</radialGradient>
	<path id="path10323" inkscape:connector-curvature="0" fill="url(#path10323_1_)" d="M646.442,788.566l0.038-0.038l2.274-2.131   l0.028,0.155c2.583,7.929,7.833,13.429,10.928,13.429c0.524,0,0.988-0.131,1.381-0.381c0.738-0.465,1.178-1.096,1.31-1.881   c0.345-1.953-1.357-4.441-3.107-6.762l-2.31-3.084c-1.56-2.107-2.321-4.523-2.036-6.428c0.155-1.215,0.75-2.227,1.762-2.977   c0.869-0.631,1.845-0.939,2.988-0.939c4.988,0,11.631,6.381,13.38,12.928l0.01,0.057v0.039l-0.067,0.027   c-0.535,0.322-1.405,0.822-2.167,1.227l-0.119,0.096l-0.038-0.131c-1.345-4.714-6.535-10.809-10.226-10.809h-0.37   c-0.726,0.086-1.345,0.56-1.667,1.25c-0.345,0.822-0.417,2.214,1.214,4.345l2,2.714c3.036,4.048,4.38,7.381,3.988,9.893   c-0.227,1.393-0.929,2.535-2.167,3.428c-0.75,0.537-1.774,0.822-2.869,0.822c-0.75,0-1.547-0.131-2.381-0.369   c-2.571-0.82-5.273-3.035-7.642-6.202c-2.262-3.048-3.631-6.214-4.131-8.179v-0.095L646.442,788.566z"/>
	
		<radialGradient id="path10343_1_" cx="762.9222" cy="704.3781" r="1.0118" gradientTransform="matrix(280.7701 0 0 -280.77 -213545.0312 198556.0312)" gradientUnits="userSpaceOnUse">
		<stop offset="0" style="stop-color:#CCCCCC"/>
		<stop offset="1" style="stop-color:#A6A6A6"/>
	</radialGradient>
	<path id="path10343" inkscape:connector-curvature="0" fill="url(#path10343_1_)" d="M760.282,847.051h0.029l7.571,1.703   l-0.678,3.059h-0.029l-7.595-1.703L760.282,847.051z"/>
	
		<linearGradient id="path8445_1_" gradientUnits="userSpaceOnUse" x1="763.5922" y1="705.9933" x2="763.5974" y2="706.0054" gradientTransform="matrix(3374.4175 0 0 3374.4175 -2575902.5 -2381568.5)">
		<stop offset="0" style="stop-color:#CEB047"/>
		<stop offset="0.2638" style="stop-color:#BB9540"/>
		<stop offset="1" style="stop-color:#997E3D"/>
	</linearGradient>
	<path id="path8445" inkscape:connector-curvature="0" fill="url(#path8445_1_)" d="M793.566,776.328   c-0.416,1.727-1.56,3.214-3.047,4.131c-0.286,0.143-0.322,0.273-0.19,0.5c0.892,1.785,2.428,4.023,4.309,5.535   c0.238,0.215,0.357,0.215,0.429,0.215c0.038,0,0.131,0,0.405-0.215c1.893-1.512,3.416-3.75,4.321-5.535   c0.095-0.227,0.066-0.357-0.19-0.5c-1.512-0.918-2.631-2.404-3.048-4.131c-0.167-0.655-0.772-1.131-1.488-1.131   C794.352,775.197,793.733,775.674,793.566,776.328z"/>
	
		<linearGradient id="path8467_1_" gradientUnits="userSpaceOnUse" x1="763.5961" y1="705.9914" x2="763.6008" y2="706.0024" gradientTransform="matrix(3374.4175 0 0 3374.4175 -2575902.5 -2381568.5)">
		<stop offset="0" style="stop-color:#CEB047"/>
		<stop offset="0.2638" style="stop-color:#BB9540"/>
		<stop offset="1" style="stop-color:#997E3D"/>
	</linearGradient>
	<path id="path8467" inkscape:connector-curvature="0" fill="url(#path8467_1_)" d="M794.531,730.545   c-2.488,1.976-8.357,16.416-8.357,21.26c0,3.869,7.869,14.143,7.869,19.715c0,0.57,0.44,1.035,1.024,1.035   c0.571,0,1.036-0.465,1.036-1.035v-0.029c0-5.571,7.833-15.82,7.833-19.689c0-5.227-6.821-21.512-8.869-21.512   c-0.143,0-0.321,0.096-0.535,0.252L794.531,730.545z"/>
	
		<linearGradient id="path8489_1_" gradientUnits="userSpaceOnUse" x1="763.5902" y1="705.9943" x2="763.5963" y2="706.0084" gradientTransform="matrix(3374.4175 0 0 3374.4175 -2575902.5 -2381568.5)">
		<stop offset="0" style="stop-color:#CEB047"/>
		<stop offset="0.2638" style="stop-color:#BB9540"/>
		<stop offset="1" style="stop-color:#997E3D"/>
	</linearGradient>
	<path id="path8489" inkscape:connector-curvature="0" fill="url(#path8489_1_)" d="M764.913,765.055   c0,4.988,4.047,9.035,9.059,9.035c1.476,0,3.06-0.714,3.809-1.559c1.31-1.512,1.036-2.965,0.905-3.274   c-0.143-0.345-0.476-0.237-0.595-0.237c-0.119,0.01-0.405,0.047-0.535,0.047c-1.69,0-3.059-1.381-3.059-3.047   c0-1.667,1.369-3.012,3.059-3.012c2.952,0,8.202,2.856,11.047,8.951v0.096c0.214,0.344,0.595,0.607,1.036,0.607   c0.595-0.038,1.095-0.535,1.095-1.143c-0.029-0.191-0.048-0.346-0.095-0.465c-3.714-9.75-10.071-15.07-16.666-15.07   C768.961,755.985,764.913,760.031,764.913,765.055L764.913,765.055z"/>
	
		<linearGradient id="path8511_1_" gradientUnits="userSpaceOnUse" x1="763.597" y1="705.9894" x2="763.6033" y2="706.0039" gradientTransform="matrix(3374.4175 0 0 3374.4175 -2575902.5 -2381568.5)">
		<stop offset="0" style="stop-color:#CEB047"/>
		<stop offset="0.2638" style="stop-color:#BB9540"/>
		<stop offset="1" style="stop-color:#997E3D"/>
	</linearGradient>
	<path id="path8511" inkscape:connector-curvature="0" fill="url(#path8511_1_)" d="M799.198,771.055   c-0.076,0.119-0.096,0.273-0.096,0.465c0,0.607,0.464,1.107,1.096,1.143c0.439,0,0.82-0.262,1.012-0.607   c0-0.029,0.01-0.057,0.01-0.057l0.028-0.039c2.821-6.095,8.071-8.951,11.035-8.951c1.655,0,3.012,1.345,3.012,3.012   c0,1.666-1.356,3.047-3.012,3.047c-0.155,0-0.416-0.038-0.548-0.047c-0.154,0-0.463-0.108-0.607,0.237   c-0.131,0.31-0.393,1.763,0.939,3.274c0.751,0.846,2.322,1.559,3.798,1.559c4.987,0,9.06-4.047,9.06-9.035   c0-5.023-4.072-9.07-9.06-9.07C809.258,755.985,802.901,761.305,799.198,771.055L799.198,771.055z"/>
</g>
</svg>