<?xml version="1.0" encoding="UTF-8"?>
<!-- Generator: Adobe Illustrator 16.0.0, SVG Export Plug-In . SVG Version: 6.00 Build 0)  -->
<!DOCTYPE svg PUBLIC "-//W3C//DTD SVG 1.1//EN" "http://www.w3.org/Graphics/SVG/1.1/DTD/svg11.dtd">
<svg version="1.1" id="svg18516" xmlns:cc="http://creativecommons.org/ns#" xmlns:sodipodi="http://sodipodi.sourceforge.net/DTD/sodipodi-0.dtd" xmlns:inkscape="http://www.inkscape.org/namespaces/inkscape" xmlns:rdf="http://www.w3.org/1999/02/22-rdf-syntax-ns#" xmlns:svg="http://www.w3.org/2000/svg" xmlns:dc="http://purl.org/dc/elements/1.1/" inkscape:version="0.91 r13725" sodipodi:docname="Logo PSG.svg" xmlns="http://www.w3.org/2000/svg" xmlns:xlink="http://www.w3.org/1999/xlink" x="0px" y="0px" width="510px" height="509.964px" viewBox="0 0 510 509.964" enable-background="new 0 0 510 509.964" xml:space="preserve">
<g>
	<path d="M12.3,254.98c0,133.611,108.977,242.586,242.585,242.586c133.611,0,242.584-108.975,242.584-242.586   c0-133.604-108.973-242.582-242.584-242.582C121.276,12.398,12.3,121.376,12.3,254.98z"/>
	<path fill="#FFFFFF" d="M13.046,254.98c0-133.604,108.23-241.834,241.838-241.834c133.611,0,241.842,108.23,241.842,241.834   c0,133.611-108.229,241.842-241.842,241.842C121.276,496.822,13.046,388.591,13.046,254.98z"/>
	<path fill="#00AEEF" d="M27.228,254.98c0-125.393,102.26-227.653,227.657-227.653c125.397,0,227.656,102.26,227.656,227.653   c0,125.402-102.26,227.658-227.656,227.658C129.489,482.638,27.228,380.382,27.228,254.98z"/>
	<path d="M78.729,110.927c-35.079,38.812-46.275,95.536-49.263,111.966l175.407,141.819l129.129,103.74   c35.832-11.197,84.35-49.262,96.289-68.664l0,0L78.729,110.927L78.729,110.927z"/>
	<path fill="#DA2128" d="M205.62,363.955l129.132,103.754c35.826-11.197,83.6-49.26,95.539-68.664L79.477,111.67   c-35.083,38.811-47.022,94.792-50.011,111.222L205.62,363.955z"/>
	<path d="M343.711,119.135c-50.012-32.095-110.472-35.08-144.808-6.717c-23.886,19.407-8.958,43.298,4.479,64.188   c6.717,9.709,12.687,19.411,14.182,27.626c0.748,3.733,0,5.963-1.495,6.713c-1.491,0.751-4.475,0-6.717-1.494   c-2.985-2.238-5.97-5.97-8.955-10.453c-5.974-8.208-12.691-16.415-18.661-16.415c-0.747,0-1.494,0-2.988,0.744l-94.793-68.668   l-1.494,2.238l89.569,79.872c0,1.487,0.747,3.731,2.242,5.218c2.985,3.733,8.207,5.978,12.687,8.208   c5.226,2.988,11.196,5.233,15.676,9.709c1.494,1.487,1.494,3.732,0,4.475c-0.748,0.744-3.733,1.495-5.227,0.744   c-24.631-5.962-35.08-9.695-41.053-12.683c-7.464-2.988-10.449-3.732-24.63-3.732c-14.182,0-28.362,9.702-31.351,20.898   c-13.435,56.731,12.69,120.179,63.445,156.74c52.249,37.319,116.445,39.565,172.426,5.233l-0.75-2.246   c-44.035,15.672-90.313,8.967-122.412-19.403c-31.348-26.867-44.785-67.921-36.574-110.476   c2.238-9.695,13.435-12.684,25.378-15.671c9.706-2.23,20.155-5.219,26.125-12.683c5.974-7.464,6.717-18.661,6.717-29.857   c0-12.69,0-23.886,9.706-28.37c38.811-16.416,82.102-11.939,114.203,10.453c34.332,23.886,51.498,66.433,48.519,114.951   l2.235,0.743C429.549,225.874,404.91,157.946,343.711,119.135z"/>
	<path fill="#FFFFFF" d="M102.616,131.078c24.63,17.917,73.147,52.993,74.642,53.743c0,0-0.748,0.751-0.748,1.495   c0,0,0,0-0.747,0.744c-1.491,1.495-2.238,2.988-2.238,4.475c-0.748,0.751-0.748,1.501-0.748,1.501   C169.794,191.534,125.009,151.232,102.616,131.078z"/>
	<path fill="#FFFFFF" d="M359.381,181.839c-32.844-23.143-76.877-27.626-116.44-11.196c-11.196,4.476-11.196,17.911-11.943,30.601   c0,10.453,0,20.898-5.971,28.362c-5.226,6.713-14.928,8.959-24.63,11.947c-11.943,2.98-24.634,6.713-26.872,17.901   c-8.212,43.299,5.223,85.094,37.321,112.721c30.604,26.125,72.399,34.332,113.452,23.137   c-52.248,27.609-111.214,23.879-158.985-10.453c-50.754-36.576-75.389-98.521-62.698-154.502   c2.238-10.452,15.676-18.66,28.363-18.66c14.181,0,16.422,0.744,23.886,3.732c6.717,2.981,16.418,6.713,41.8,12.683   c2.237,0.744,5.97,0,7.464-1.487c1.491-2.245,2.238-5.977,0-8.215c-4.479-4.483-10.453-7.464-15.675-10.445   c-4.479-2.245-9.706-4.483-11.944-8.215c-1.494-2.238-2.237-4.483-0.747-7.464l2.985-4.483c1.495-1.487,2.988-2.23,4.479-2.23   c5.227,0,11.196,8.207,17.17,15.671c2.984,4.476,5.97,8.208,8.955,10.453c2.985,2.981,6.717,3.732,9.706,2.23   c1.491-0.744,3.732-2.981,2.238-9.695c-1.494-8.965-8.211-18.66-14.181-28.369c-13.438-20.898-27.619-42.543-5.227-61.204   c32.841-27.619,92.554-24.634,141.823,6.717c46.271,29.856,71.652,76.136,71.652,129.873c0,11.939-1.494,23.893-3.73,36.577   C409.393,243.04,391.477,204.976,359.381,181.839z"/>
	<path d="M236.224,230.356c-17.166,17.16-26.872,39.552-26.872,64.188c0,50.004,40.306,90.313,90.318,90.313   s90.312-40.31,90.312-90.313c0-50.011-40.302-90.312-90.312-90.312C275.781,203.481,253.391,213.183,236.224,230.356z"/>
	<path fill="#FFFFFF" d="M211.594,294.544c0-23.135,8.955-45.527,26.125-61.958c16.418-16.416,38.815-26.125,61.952-26.125   c48.516,0,88.074,39.566,88.074,88.083c0,48.519-39.56,88.068-88.074,88.068C251.152,382.615,211.594,343.063,211.594,294.544z"/>
	<path fill="#FFFFFF" d="M144.416,107.194l-10.453-5.226l-2.984,2.237l5.973,8.212l-4.479,2.984l-14.928-21.645l8.955-5.97   c4.479-2.984,9.706-2.241,11.943,1.491c2.242,2.988,1.495,5.974,0,8.211l11.196,5.974L144.416,107.194z M128.741,92.266   l-4.479,2.238l3.732,5.97l4.479-2.985c2.238-1.491,2.238-3.732,1.491-5.223C132.473,90.772,130.979,90.772,128.741,92.266"/>
	<path fill="#FFFFFF" d="M117.544,94.504l8.955-5.97c2.241-1.495,3.732-2.241,5.973-2.241l0,0c2.238,0,4.479,1.494,5.97,2.984l0,0   c0.748,1.495,1.495,2.988,1.495,4.479l0,0c0,1.495-0.747,2.985-1.495,4.479l0,0l11.944,5.97l-5.227,3.733l0,0l-11.196-5.97   l-2.984,2.237l5.973,8.212l-4.479,2.984L117.544,94.504L117.544,94.504z M126.5,87.787l-8.955,6.717l14.928,20.897l4.479-2.984   l-5.973-8.212l2.984-2.237l10.453,5.226l5.223-3.732l-11.196-5.227l0,0c0.748-1.494,1.495-2.984,1.495-4.479l0,0   c0-1.491-0.747-2.984-1.495-3.732l0,0c-1.491-2.985-3.732-3.731-6.716-3.731l0,0C130.231,86.293,127.994,87.04,126.5,87.787   L126.5,87.787z M144.416,107.194L144.416,107.194L144.416,107.194L144.416,107.194z M124.262,94.504l4.479-2.985   c0.748-0.747,1.491-0.747,2.238-0.747l0,0c0.747,0,2.241,0.747,2.984,1.494l0,0c0.747,0.744,0.747,1.491,0.747,2.238l0,0   c0,1.494-0.747,2.238-1.491,2.984l0,0l-4.479,2.985L124.262,94.504L124.262,94.504z M125.009,94.504l3.732,5.226l3.732-2.988   c1.491-0.744,1.491-2.238,1.491-2.985l0,0c0-0.747,0-1.491-0.744-2.238l0,0c-0.747-0.747-1.494-1.494-2.988-1.494l0,0   c-0.743,0-1.491,0-2.238,0.748l0,0L125.009,94.504L125.009,94.504z"/>
	<path fill="#FFFFFF" d="M166.062,94.504l-3.732-2.985l-8.212,4.479l0.748,5.223l-5.227,2.984l-2.984-28.362l3.732-2.237   l20.897,17.913L166.062,94.504z M151.881,81.07l1.49,9.703l5.973-2.985L151.881,81.07z"/>
	<path fill="#FFFFFF" d="M146.654,75.097l3.732-2.238l21.645,18.66l-5.97,2.985l0,0l-3.732-2.985l-8.212,4.479l0.748,5.223   l-5.227,2.984L146.654,75.097L146.654,75.097z M146.654,75.843l3.732,27.619l4.479-2.241l-0.748-5.223l8.959-4.479l3.732,2.985   l4.475-2.238L150.386,74.35L146.654,75.843L146.654,75.843z M166.062,94.504L166.062,94.504L166.062,94.504L166.062,94.504z    M151.881,81.07L151.881,81.07l7.463,6.717l-5.973,2.985L151.881,81.07L151.881,81.07z M153.371,90.772l5.973-2.985l-7.463-6.717   L153.371,90.772L153.371,90.772z M151.881,81.07L151.881,81.07L151.881,81.07L151.881,81.07z"/>
	<path fill="#FFFFFF" d="M181.737,87.787c-2.988,0.747-5.227,0.747-8.211,0c-2.985-1.494-4.479-4.479-5.974-8.211   c-1.491-4.479-2.985-7.464-1.491-10.449c1.491-2.985,2.985-4.48,5.97-5.974c4.479-2.238,9.706-0.743,12.691,3.732l-5.227,2.242   c-1.491-1.495-2.985-2.985-5.97-1.495c-1.495,0.748-2.242,1.495-2.985,2.241c-0.747,1.491-0.747,2.985,1.491,7.464   c1.495,4.476,2.242,5.97,3.732,6.717c0.747,0.748,2.241,0.748,3.732,0c2.241-0.747,2.984-2.985,2.984-5.227l5.227-2.238   C189.201,81.813,186.213,86.293,181.737,87.787"/>
	<path fill="#FFFFFF" d="M173.526,87.787c-2.985-1.494-4.479-4.479-5.974-8.211l0,0c-0.744-2.985-2.238-5.227-2.238-7.464l0,0   c0-0.748,0-2.238,0.748-3.732l0,0c1.491-2.238,2.985-4.479,5.97-5.227l0,0c1.495-0.743,2.985-0.743,4.479-0.743l0,0   c2.985,0,5.97,1.491,8.212,5.222l0,0l0,0l-5.227,2.241l0,0c-0.747-1.494-2.238-2.241-3.732-2.241l0,0c-0.747,0-1.491,0-2.238,0.748   l0,0c-1.495,0.747-2.242,1.494-2.985,2.237l0,0c0,0.747,0,0.747,0,1.495l0,0c0,1.495,0.743,2.985,1.491,5.97l0,0   c1.495,4.479,2.242,5.974,3.732,5.974l0,0c0.747,0,0.747,0.748,1.494,0.748l0,0c0.747,0,1.491,0,2.238-0.748l0,0   c2.241-0.747,2.984-2.242,2.984-4.479l0,0v-0.748l0,0l0,0l5.227-2.238l0,0c0,0.747,0,1.491,0,2.238l0,0   c0,4.479-2.984,7.465-6.717,8.958l0,0c-1.494,0.747-2.985,0.747-4.479,0.747l0,0C176.51,88.534,175.017,88.534,173.526,87.787   L173.526,87.787z M172.031,63.153c-2.984,1.494-4.479,2.988-5.97,5.227l0,0c-0.748,1.494-0.748,2.237-0.748,2.984l0,0   c0,2.242,0.748,4.479,2.238,7.464l0,0c1.495,4.479,2.988,7.465,5.974,8.958l0,0c1.491,0.747,2.238,0.747,3.732,0.747l0,0   c1.491,0,2.985,0,3.732-0.747l0,0l0,0c3.732-1.494,6.717-4.479,6.717-8.958l0,0c0-0.747,0-1.491,0-2.238l0,0l-5.227,2.238v0.748   l0,0c0,1.494-0.743,3.732-2.984,4.479l0,0c-0.747,0-1.491,0.748-2.238,0.748l0,0c-0.748,0-1.494,0-1.494-0.748l0,0   c-1.491-0.747-2.238-1.495-3.732-6.717l0,0c-1.491-2.988-1.491-4.479-1.491-5.974l0,0c0-0.747,0-0.747,0-1.491l0,0   c0.743-0.747,1.491-2.241,2.985-2.241l0,0c0.747,0,1.491-0.747,2.238-0.747l0,0c1.494,0,2.985,0.747,3.732,2.242l0,0l5.227-2.242   c-2.242-2.984-5.227-4.475-8.212-4.475l0,0C175.017,62.41,173.526,62.41,172.031,63.153L172.031,63.153z"/>
	<polygon fill="#FFFFFF" points="193.057,56.855 200.354,81.941 195.339,83.402 188.042,58.317  "/>
	<path fill="#FFFFFF" d="M187.707,57.931l5.227-1.495l7.464,25.377l-5.227,1.495l0,0L187.707,57.931L187.707,57.931z    M194.424,83.308L194.424,83.308L194.424,83.308L194.424,83.308z M187.707,57.931l7.464,24.63l5.227-1.491l-7.464-24.634   L187.707,57.931L187.707,57.931z"/>
	<polygon fill="#FFFFFF" points="221.295,77.338 207.861,63.153 210.099,78.829 204.873,80.323 200.397,54.198 204.873,53.452    219.058,66.885 216.069,51.214 221.295,50.466 225.774,75.843  "/>
	<path fill="#FFFFFF" d="M200.397,54.198l4.475-0.747l13.438,13.434l-2.985-15.671l5.97-0.748l4.479,26.125l-4.479,0.747l0,0l0,0   l-13.434-13.437l2.985,15.675l-5.227,0.747L200.397,54.198L200.397,54.198z M200.397,54.198l4.475,25.378l5.227-0.748   l-2.984-15.675l0,0l14.181,14.185l4.479-0.747l-4.479-26.125l-5.227,0.748l2.989,15.671l0,0L205.62,53.452L200.397,54.198   L200.397,54.198z"/>
	<path fill="#FFFFFF" d="M248.167,72.112c-2.241,2.238-4.479,2.985-7.463,3.731c-2.985,0-5.227-0.746-7.464-2.237   c-2.985-2.242-2.985-5.974-2.985-10.453c0-4.476-0.747-7.464,2.238-10.449c1.495-2.238,4.479-2.985,7.464-2.985   c6.717,0,9.702,3.732,10.448,7.464h-5.222c-0.747-2.238-2.242-3.732-5.227-3.732c-1.495,0-2.985,0.747-3.732,1.494   c-0.747,1.491-1.494,2.238-0.747,7.465c0,5.222,0.747,5.97,1.494,7.463c0.748,0.744,2.238,1.491,3.733,1.491   c1.49,0,2.984-0.747,3.732-1.491c0.747-0.747,1.49-2.241,0.747-3.732v-0.747h-5.227v-4.479l10.448-0.748V63.9   C250.404,67.632,249.658,69.874,248.167,72.112"/>
	<path fill="#FFFFFF" d="M232.492,72.859c-2.984-2.242-2.984-5.974-2.984-10.449l0,0c0-1.495,0-2.242,0-3.733l0,0   c0-2.988,0.747-5.226,2.237-6.72l0,0c1.495-2.238,4.479-2.985,7.464-2.985l0,0h0.747l0,0c5.97,0,8.958,3.733,9.702,8.212l0,0l0,0   h-5.223l0,0c-0.748-2.238-2.242-3.732-4.479-3.732l0,0c0,0,0,0-0.747,0l0,0c-1.491,0-2.238,0.747-2.985,1.494l0,0   c-0.747,0.744-0.747,1.491-0.747,4.476l0,0c0,0.747,0,2.241,0,2.989l0,0c0,5.222,0.747,5.97,1.494,7.463l0,0   c0.748,0.744,1.491,1.491,2.985,1.491l0,0l0,0l0,0c1.494,0,2.985-0.747,3.732-1.491l0,0c0.748-0.747,0.748-2.241,0.748-2.988l0,0   c0,0,0,0,0-0.744l0,0v-0.747h-5.227v-4.479l10.449-0.748v3.733c0,0.746,0,0.746,0,1.494l0,0c0,2.985-0.745,5.223-2.239,6.717l0,0   l0,0l0,0c-2.236,2.238-4.478,2.985-7.463,3.731l0,0h-0.747l0,0C236.971,75.843,234.729,74.35,232.492,72.859L232.492,72.859z    M239.209,48.972c-2.985,0-5.223,1.495-7.464,2.985l0,0c-1.491,2.241-2.237,4.479-2.237,6.72l0,0c0,0.744,0,2.238,0,3.733l0,0   c0,4.475,0,7.463,2.984,10.449l0,0c2.238,1.491,4.479,2.238,6.717,2.238l0,0h0.747l0,0c2.985,0,5.227-0.748,7.463-3.733l0,0   c1.495-1.491,2.239-3.732,2.239-6.717l0,0c0-0.746,0-0.746,0-1.494l0,0v-3.732l-10.449,0.747v4.479h5.227l0,0v0.748   c0,0,0,0,0,0.747l0,0c0,1.491,0,2.238-0.748,2.985l0,0c-0.747,0.747-2.238,1.49-3.732,1.49l0,0l0,0l0,0   c-1.495,0-2.238-0.744-2.985-1.49l0,0c-1.494-0.747-1.494-2.242-1.494-7.464l0,0c0-1.495,0-2.241,0-2.985l0,0   c0-2.241,0-3.732,0.747-4.479l0,0c0.747-0.747,2.238-1.494,3.732-1.494l0,0c0,0,0,0,0.748,0l0,0c2.237,0,3.732,1.494,4.479,3.731   l0,0h5.222c-0.746-4.479-4.479-7.464-9.701-7.464l0,0C239.209,48.972,239.209,48.972,239.209,48.972L239.209,48.972z"/>
	<path fill="#FFFFFF" d="M272.801,76.591c-2.988,0-5.227-1.494-6.721-3.732c-2.238-2.985-2.238-5.974-1.494-10.449   c0.752-4.479,0.752-7.465,3.732-9.706c2.238-1.491,4.481-2.238,7.463-2.238c5.227,0.748,8.959,3.732,8.959,9.702l-5.225-0.747   c0-2.238-1.494-3.732-4.479-4.476c-1.492,0-2.986,0-3.729,0.744c-1.496,0.747-1.496,2.242-2.24,7.464   c-0.75,5.227-0.75,5.974,0.744,7.464c0.744,0.747,1.496,1.495,2.988,1.495c2.98,0,4.477-1.495,5.221-2.985l5.226,0.747   C281.752,74.35,277.277,77.338,272.801,76.591"/>
	<path fill="#FFFFFF" d="M274.287,76.591c-0.742,0-0.742,0-1.486,0l0,0l0,0l0,0C272.801,76.591,273.545,76.591,274.287,76.591   L274.287,76.591c4.484,0,8.217-2.241,9.709-7.464l0,0l-5.225-0.747c-1.494,2.237-2.99,3.732-5.228,3.732l0,0H272.8l0,0   c-1.491,0-2.987-0.748-2.987-1.495l0,0c-0.744-0.744-0.744-1.49-0.744-2.985l0,0c0-0.747,0-2.238,0-4.479l0,0   c0.744-5.223,0.744-5.97,2.24-7.464l0,0c0.741-0.744,1.491-0.744,2.979-0.744l0,0h0.75l0,0c2.984,0,3.734,2.238,4.479,4.476l0,0   l5.226,0.747c-0.744-5.223-3.732-8.954-8.959-8.954l0,0c-0.744,0-0.744,0-1.494,0l0,0c-2.236,0-4.476,0.743-5.97,2.238l0,0   c-2.979,2.237-2.979,5.226-3.731,9.702l0,0c0,1.494-0.744,3.732-0.744,5.227l0,0c0,2.237,0.744,3.732,2.238,5.97l0,0   c1.494,2.241,3.731,2.988,6.722,3.732l0,0l0,0l0,0c-2.988,0-5.228-1.491-7.464-3.732l0,0c-1.496-1.491-2.246-3.732-2.246-5.97l0,0   c0-1.495,0-2.985,0.75-5.227l0,0c0.744-4.476,0.744-7.464,3.732-10.449l0,0c2.237-2.238,3.733-2.985,6.713-2.985l0,0   c0.75,0,0.75,0,1.494,0l0,0c5.227,0.747,8.959,3.732,8.959,9.702l0,0l0,0l-5.226-0.744c0-2.241-1.494-3.732-4.479-4.479l0,0h-0.75   l0,0c-1.486,0-2.236,0-2.979,0.747l0,0c-1.496,0.744-1.496,2.238-2.24,7.465l0,0c0,2.237,0,2.984,0,4.475l0,0   c0,1.495,0,2.242,0.744,2.988l0,0c0.744,0.744,1.496,1.491,2.987,1.491l0,0c0.744,0.748,0.744,0.748,0.744,0.748l0,0   c2.235,0,3.731-1.495,4.478-2.985l0,0l0,0l5.225,0.747l0,0C281.752,74.35,278.771,76.591,274.287,76.591L274.287,76.591   L274.287,76.591L274.287,76.591z"/>
	<polygon fill="#FFFFFF" points="286.234,78.082 292.205,52.705 297.432,54.198 292.205,75.097 304.145,78.082 303.4,81.813  "/>
	<path fill="#FFFFFF" d="M286.234,78.082L286.234,78.082L286.234,78.082L286.234,78.082L286.234,78.082L286.234,78.082l5.971-25.377   l5.227,1.494l-5.227,20.899l11.939,2.984l-0.744,4.479L286.234,78.082L286.234,78.082z M303.4,81.813l0.744-4.476l-11.939-2.988   l5.227-20.898l-5.227-1.495l-5.971,25.381L303.4,81.813L303.4,81.813z"/>
	<path fill="#FFFFFF" d="M315.342,86.293c-5.219-2.238-8.209-6.717-6.715-11.944l5.971-16.419l5.226,1.491l-5.969,15.676   c-0.75,2.984,0,5.226,2.981,5.973c2.986,0.744,5.228,0,5.969-2.988l5.979-15.671l5.219,1.491l-5.971,16.422   C325.793,86.293,320.566,88.534,315.342,86.293"/>
	<path fill="#FFFFFF" d="M319.072,87.04c-1.486,0-2.98,0-3.73-0.746l0,0l0,0c-4.477-1.491-6.715-5.224-6.715-8.956l0,0   c0-0.747,0-2.241,0.744-2.988l0,0l5.971-16.419l5.226,2.237l-5.97,15.675c0,0.748-0.744,1.495-0.744,2.238l0,0   c0,2.241,1.488,2.988,2.982,4.479l0,0c0.75,0,1.494,0,2.236,0l0,0c1.494,0,3.731-0.747,4.483-2.984l0,0l5.97-15.675l5.227,1.494   l-5.969,16.419C326.537,85.546,322.805,87.04,319.072,87.04L319.072,87.04L319.072,87.04L319.072,87.04z M319.072,87.04   c3.731,0,7.465-2.237,8.217-5.97l0,0l5.969-15.675l-5.227-1.494l-5.228,15.675c-0.741,2.237-2.237,2.984-4.475,2.984l0,0   c-0.744,0-1.494,0-2.238,0l0,0c-2.238-0.747-2.988-2.238-2.988-4.479l0,0c0-0.744,0-1.491,0.75-2.238l0,0l5.97-15.675l-5.226-1.491   l-5.971,16.42c-0.75,0.746-0.75,2.241-0.75,2.984l0,0c0,3.732,2.988,7.464,6.721,8.958l0,0l0,0l0,0   C316.836,87.04,317.586,87.04,319.072,87.04L319.072,87.04z"/>
	<path fill="#FFFFFF" d="M339.229,96.742l-10.444-5.223l11.938-23.139l9.701,5.227c4.484,2.237,5.971,6.716,4.484,10.449   c-1.496,2.238-3.732,2.984-5.228,2.984c1.494,1.495,2.236,3.733,0.742,6.717C348.186,98.236,343.711,98.983,339.229,96.742    M343.711,87.04l-5.227-2.237l-2.988,5.97l5.227,2.237c2.236,1.495,3.732,0,4.476-1.491   C346.691,90.025,345.949,87.787,343.711,87.04 M348.186,77.338l-4.475-2.241l-2.988,5.226l4.476,2.238   c2.244,0.748,3.731,0.748,4.483-0.747C351.176,80.323,350.424,78.829,348.186,77.338"/>
	<path fill="#FFFFFF" d="M339.229,96.742L339.229,96.742L339.229,96.742c1.494,0.747,2.986,1.494,4.482,1.494l0,0   c2.238,0,4.475-1.494,5.971-3.731l0,0c0.742-0.748,0.742-2.238,0.742-2.985l0,0c0-1.494-0.742-2.985-1.494-3.732l0,0l0,0l0,0l0,0   l0,0c1.494,0,3.732-0.748,5.228-2.984l0,0c0.752-1.495,0.752-2.242,0.752-3.733l0,0c0-2.988-1.496-5.227-5.228-6.72l0,0   l-9.702-5.223l-11.947,23.139L339.229,96.742L339.229,96.742L339.229,96.742l-10.444-5.223l11.938-23.139l9.701,5.227   c3.732,1.491,5.228,4.475,5.228,6.716l0,0c0,1.491,0,2.238-0.742,3.732l0,0c-1.496,2.238-3.732,2.984-5.228,2.984l0,0l0,0l0,0   c0.742,0.748,1.494,2.238,1.494,3.733l0,0c0,0.747,0,2.237-0.752,2.984l0,0c-1.494,2.985-3.731,3.732-6.713,3.732l0,0   C342.215,98.236,340.723,98.236,339.229,96.742L339.229,96.742z M342.959,93.01c-0.744,0-1.494,0-2.236-0.744l0,0l-5.227-2.988   l2.988-5.97l5.227,2.985l0,0l0,0l-5.227-2.238l-2.988,5.223l5.227,2.241C341.465,93.01,342.215,93.01,342.959,93.01L342.959,93.01   c1.496,0,2.238-0.744,2.99-1.491l0,0c0-0.747,0.742-0.747,0.742-1.494l0,0c0-0.747-0.742-2.238-2.236-2.985l0,0l0,0l0,0   c1.494,0.748,2.236,2.238,2.236,2.985l0,0c0,0.748,0,0.748-0.742,1.494l0,0C345.197,92.266,344.455,93.01,342.959,93.01   L342.959,93.01L342.959,93.01L342.959,93.01z M345.949,82.561l-5.228-2.238l2.988-5.226l4.475,2.241l0,0l0,0l-4.475-2.241   l-2.988,5.226L345.949,82.561c0.742,0,1.492,0.748,2.235,0.748l0,0c0.744,0,2.238-0.748,2.238-1.495l0,0c0-0.744,0-0.744,0-1.491   l0,0c0-0.747-0.742-2.241-2.238-2.985l0,0l0,0l0,0c1.496,0.744,2.238,1.491,2.238,2.985l0,0c0,0.747,0,0.747-0.742,1.491l0,0   c-0.752,0.747-1.496,1.495-2.239,1.495l0,0C347.441,83.308,346.691,83.308,345.949,82.561L345.949,82.561z"/>
	<path fill="#FFFFFF" d="M372.816,116.149c-2.238,0-5.228-0.748-7.466-2.238l-8.207-5.973l15.673-20.899l8.215,5.97   c2.237,1.495,3.731,3.732,4.477,6.721c0.742,4.475-1.494,6.717-4.477,9.702C378.787,112.417,376.549,116.149,372.816,116.149    M380.281,100.474c0-1.491-0.744-2.238-2.238-3.732l-2.988-2.238l-10.446,13.434l2.981,2.241c1.494,1.491,2.988,1.491,4.484,1.491   c1.492,0,2.979-1.491,5.227-5.223C379.537,102.715,380.281,101.969,380.281,100.474"/>
	<path fill="#FFFFFF" d="M365.352,113.912l-8.207-5.973l15.673-20.899l8.215,5.97c2.237,1.495,3.731,3.732,4.477,6.721l0,0   c0,0.744,0,0.744,0,1.491l0,0c0,3.732-2.238,5.973-4.477,8.958l0,0c-2.244,2.984-4.482,6.717-8.957,6.717l0,0h-0.752l0,0   C369.834,116.149,367.59,115.402,365.352,113.912L365.352,113.912z M357.889,107.938l8.215,5.973   c2.238,1.49,4.476,2.238,6.714,2.238l0,0h0.75l0,0c4.477-0.748,5.971-3.732,8.95-6.717l0,0c2.246-2.984,4.482-5.227,4.482-8.958   l0,0c0-0.744,0-0.744,0-1.491l0,0c-0.75-2.241-2.236-4.479-4.482-6.717l0,0l-8.95-5.227L357.889,107.938L357.889,107.938z    M367.59,110.18l-2.981-2.241l10.446-13.434l2.988,2.238c1.494,1.494,2.238,2.241,2.238,3.732l0,0l0,0l0,0l0,0l0,0   c0,1.495-0.744,2.988-2.98,5.974l0,0c-2.246,2.984-3.733,4.479-5.227,5.223l0,0h-0.752l0,0   C369.834,110.927,369.084,110.927,367.59,110.18L367.59,110.18z M364.607,107.194l2.981,2.238c1.494,0.748,2.244,1.495,2.988,1.495   l0,0h0.744l0,0c1.494,0,2.987-1.495,5.227-4.479l0,0c2.238-2.985,2.988-4.479,2.988-5.974l0,0l0,0l0,0l0,0   c0-1.491-0.75-2.238-2.236-3.732l0,0l-2.99-2.238L364.607,107.194L364.607,107.194z"/>
	<polygon fill="#FFFFFF" points="376.549,122.867 395.209,104.206 407.898,116.897 404.91,120.628 395.209,111.67 391.477,115.402    398.939,123.614 395.959,126.598 387.744,119.135 383.27,123.614 392.971,132.572 389.24,135.554  "/>
	<path fill="#FFFFFF" d="M376.549,122.867L376.549,122.867L376.549,122.867L376.549,122.867L376.549,122.867L376.549,122.867   l18.66-18.661l12.689,12.691l-2.988,2.984l-8.951-8.955l-4.482,4.475l7.464,7.465l-2.98,2.988l-7.463-7.464l-4.482,4.476   l8.957,8.958l-2.987,2.985L376.549,122.867L376.549,122.867z M389.24,135.554l2.985-2.981l-8.957-8.958l4.476-4.479l7.465,7.463   l2.988-2.984l-7.465-7.464l4.477-4.479l8.957,8.958l3.732-3.731l-12.689-12.691l-18.66,18.661L389.24,135.554L389.24,135.554z"/>
	<path fill="#FFFFFF" d="M401.93,151.232c-2.235-3.731-3.731-6.713-2.989-10.445l4.483,0.743c0,2.238,0.742,4.476,2.238,6.721   c1.494,2.23,3.729,2.98,5.227,2.23c0.744-0.743,1.486-1.487,1.486-2.23c0-0.751,0-1.502-0.742-2.245l-1.496-2.989   c-1.494-2.23-1.494-3.732-1.494-5.219c0-1.494,1.494-2.988,2.99-4.479c3.73-2.988,8.207-1.495,11.939,2.985   c2.244,2.981,2.985,5.97,2.985,8.958l-4.473-0.743c0-2.245-0.754-4.483-2.246-5.977c-1.488-2.238-3.731-2.238-5.221-1.487   c-0.75,0.743-0.75,0.743-0.75,1.487c0,0.743,0,1.494,0.75,2.988l1.488,2.989c1.493,2.23,1.493,3.732,1.493,5.219   c0,2.245-1.493,3.732-2.981,5.227C410.137,157.946,404.91,156.458,401.93,151.232"/>
	<path fill="#FFFFFF" d="M401.93,151.232L401.93,151.232L401.93,151.232c2.236,2.981,5.228,5.227,8.207,5.227l0,0   c1.496,0,2.988-0.743,4.482-1.494l0,0c1.488-1.495,2.981-2.981,2.981-5.227l0,0v-0.744l0,0c0-1.494-0.741-2.988-1.493-4.476l0,0   l-1.488-2.989c-0.75-0.743-0.75-1.495-0.75-2.245l0,0l0,0l0,0c0-0.743,0.75-1.487,0.75-1.487l0,0   c0.744-0.743,1.488-0.743,1.488-0.743l0,0c1.493,0,2.243,0.743,3.731,2.23l0,0c0.75,1.502,2.246,2.989,2.246,5.234l0,0v0.743l0,0   l4.473,0.744c0-0.744,0-0.744,0-1.487l0,0c0-2.989-0.741-5.234-2.985-7.464l0,0c-2.24-2.992-5.222-4.483-7.465-4.483l0,0   c-1.488,0-2.982,0.747-4.476,1.491l0,0c-1.496,1.491-2.99,2.992-2.99,4.479l0,0v0.743l0,0c0,1.502,0.75,2.989,1.494,4.483l0,0   l1.496,2.981c0.742,0.751,0.742,1.502,0.742,2.245l0,0l0,0l0,0c0,0.744-0.742,1.487-1.486,2.237l0,0   c-0.752,0.751-1.496,0.751-1.496,0.751l0,0c-1.493,0-2.235-0.751-3.729-2.989l0,0c-1.496-1.494-2.238-3.732-2.238-5.978l0,0v-0.743   l0,0l-4.483-0.744c0,0.744,0,0.744,0,1.487l0,0C398.197,146.006,399.693,148.251,401.93,151.232L401.93,151.232L401.93,151.232   L401.93,151.232c-2.235-2.98-2.989-5.226-2.989-8.215l0,0c0-0.743,0-0.743,0-1.487l0,0l0,0l4.483,0.744l0,0v0.743l0,0   c0,2.245,0.742,3.732,2.238,5.978l0,0c1.494,1.487,2.236,2.989,3.729,2.237l0,0c0.744,0,0.744,0,1.496-0.75l0,0   c0.744-0.743,1.486-1.487,1.486-2.23l0,0l0,0l0,0c0-0.751,0-1.502-0.742-2.245l0,0l-1.496-2.989   c-0.744-1.487-1.494-3.732-1.494-4.475l0,0v-0.744l0,0c0-1.494,1.494-3.735,2.99-4.479l0,0c1.492-0.747,2.986-1.495,4.476-1.495   l0,0c2.987,0,5.225,1.495,7.465,4.479l0,0c2.244,2.981,2.985,5.226,2.985,7.464l0,0c0,0.75,0,0.75,0,1.494l0,0l0,0l-4.473-0.743   l0,0v-0.75l0,0c0-2.238-0.754-3.733-2.246-5.227l0,0c-0.744-1.487-2.238-2.238-2.979-2.238l0,0c-0.752,0-1.496,0-1.496,0.751l0,0   c-0.744,0.743-0.744,0.743-0.744,1.487l0,0l0,0l0,0c0,0.743,0,1.494,0.744,2.245l0,0l1.496,2.981   c0.741,2.238,1.491,3.732,1.491,5.226l0,0v0.744l0,0c0,2.245-1.491,3.732-2.987,5.227l0,0c-1.494,0.75-2.988,1.494-4.476,1.494l0,0   C407.156,156.458,404.166,154.965,401.93,151.232L401.93,151.232z"/>
	<polygon fill="#FFFFFF" points="434.025,161.678 415.363,172.131 412.375,167.655 431.035,157.202 428.055,150.481    431.785,148.251 441.488,165.41 437.756,167.655  "/>
	<path fill="#FFFFFF" d="M412.375,167.655l18.66-10.453l-3.732-5.97l3.732-2.237l9.709,17.167l-2.988,1.494l-3.729-5.977   l-18.662,10.453L412.375,167.655L412.375,167.655z M428.055,150.481l3.73,5.977l-18.66,10.453l2.238,4.476l18.662-10.453l0,0   l3.729,5.977l3.732-2.245l-9.703-17.166L428.055,150.481L428.055,150.481z M434.025,161.678L434.025,161.678L434.025,161.678   L434.025,161.678z"/>
	<path fill="#FFFFFF" d="M425.816,195.267l7.465-8.951l-1.496-3.732l-9.699,3.732l-2.246-5.227l23.885-9.702l4.484,9.702   c2.238,5.227,0,9.702-3.732,11.196c-3.731,1.494-6.721,0-8.215-2.238l-8.207,9.702L425.816,195.267z M443.725,182.583l-2.235-4.476   l-6.722,2.981l2.244,4.483c0.744,2.23,2.982,2.981,4.478,2.23C444.477,187.059,445.221,184.821,443.725,182.583"/>
	<path fill="#FFFFFF" d="M425.816,195.267L425.816,195.267L425.816,195.267L425.816,195.267L425.816,195.267L425.816,195.267   l7.465-8.951l-1.496-3.732l-9.699,3.732l-2.246-5.227l24.637-9.702l4.476,9.702c0.744,1.495,0.744,2.981,0.744,3.732l0,0   c0,3.733-2.238,5.97-5.22,7.464l0,0c-0.752,0.75-2.245,0.75-2.987,0.75l0,0c-2.236,0-4.478-0.75-5.228-2.245l0,0l-8.207,9.709   L425.816,195.267L425.816,195.267z M428.055,200.5l8.207-9.709l0,0c1.494,1.495,2.99,2.245,5.228,2.245l0,0   c0.742,0,1.494,0,2.987-0.75l0,0c2.98-1.495,4.476-3.731,4.476-7.464l0,0c0-1.494,0-2.981-0.742-3.732l0,0l-3.732-9.702   l-23.887,9.702l2.238,5.227l9.701-3.732l1.496,3.732l-7.468,8.951L428.055,200.5L428.055,200.5z M437.756,185.572l-2.238-4.483   l6.714-2.981l2.245,4.476l0,0l0,0l-2.245-4.476l-5.97,2.23L437.756,185.572c0.744,1.487,2.238,2.23,3.732,2.23l0,0   c0.742,0,0.742,0,1.494,0l0,0c1.493-0.743,2.237-1.487,2.237-2.981l0,0c0-0.75,0-1.494-0.744-1.494l0,0l0,0l0,0   c0,0.743,0.744,1.494,0.744,1.494l0,0c0,1.495-0.744,2.981-2.237,2.981l0,0c-0.752,0-0.752,0-1.494,0l0,0   C439.252,187.802,438.5,187.059,437.756,185.572L437.756,185.572z"/>
	<path fill="#FFFFFF" d="M433.281,219.161l3.729-2.989l-2.244-9.709h-5.219l-1.494-5.219l27.619,2.988l0.744,3.733l-22.393,16.415   L433.281,219.161z M448.951,207.965l-10.451-0.751l1.494,6.713L448.951,207.965z"/>
	<path fill="#FFFFFF" d="M433.281,219.161L433.281,219.161L433.281,219.161L433.281,219.161L433.281,219.161L433.281,219.161   l3.729-2.989l-2.244-9.709h-5.219l-1.494-5.219l27.619,2.988l0.744,4.476l-22.393,16.415L433.281,219.161L433.281,219.161z    M434.768,224.379l22.394-16.415l-0.742-3.733l-27.619-2.988l1.492,5.219l5.227,0.75l2.238,9.703l-3.729,2.988L434.768,224.379   L434.768,224.379z M439.252,207.213l10.443,0.751l0,0l0,0l0,0l-8.951,5.962L439.252,207.213L439.252,207.213z M440.744,213.927   l8.207-5.219l-9.699-0.743L440.744,213.927L440.744,213.927z"/>
	<path fill="#FFFFFF" d="M435.518,234.089c-0.75-4.483,0-7.464,2.238-10.453l3.732,2.988c-1.494,2.231-1.494,4.476-1.494,6.713   c0.75,2.981,1.494,4.483,3.729,4.483c0.752,0,1.496-0.75,2.24-1.501c0.75-0.744,0.75-1.487,0.75-2.23v-3.732   c0-2.245,0.742-4.482,1.494-5.233c0.742-1.487,2.982-2.23,4.475-2.981c4.478-0.75,8.207,2.238,8.959,8.215   c0.744,3.732,0,6.714-1.493,8.951l-3.73-2.988c1.492-2.23,1.492-3.732,0.742-5.963c-0.742-2.988-2.238-3.732-3.732-3.732   c-0.744,0-1.485,0.744-1.485,0.744c-0.75,0.743-0.75,1.487-0.75,2.988v2.981c0,2.238-0.744,4.483-1.496,5.227   c-0.744,1.486-2.98,2.237-5.22,2.988C439.994,243.784,436.262,240.051,435.518,234.089"/>
	<path fill="#FFFFFF" d="M435.518,234.089L435.518,234.089L435.518,234.089c0.744,5.218,3.734,8.951,8.207,8.951l0,0   c0,0,0.752,0,1.496,0l0,0c2.236,0,3.73-1.486,5.228-2.988l0,0c0.744-1.486,1.494-2.98,1.494-5.219l0,0l0,0l0,0v-2.989l0,0l0,0   c0-0.743,0-2.238,0.741-2.988l0,0c0.744-0.744,0.744-0.744,1.494-0.744l0,0c0,0,0,0,0.744,0l0,0c1.496,0,2.988,1.495,3.732,3.732   l0,0c0,0.744,0,1.494,0,2.245l0,0c0,1.487,0,2.982-0.744,3.732l0,0l3.731,2.981c1.494-2.237,2.238-3.731,2.238-6.713l0,0   c0-0.751,0-1.501,0-2.988l0,0c-0.744-5.227-3.731-8.208-8.207-8.208l0,0c-0.752,0-0.752,0-1.496,0l0,0   c-2.235,0-3.729,1.487-4.481,2.981l0,0c-0.744,1.494-1.486,2.981-1.486,5.227l0,0v3.732c0,1.487,0,2.238-0.752,2.238l0,0   c-0.742,0.75-1.492,0.75-2.236,1.494l0,0c0,0,0,0-0.744,0l0,0c-1.493,0-2.987-1.494-3.731-4.476l0,0c0-0.751,0-1.501,0-2.245l0,0   c0-1.487,0.744-3.732,1.486-4.476l0,0l-4.476-3.732c-1.494,2.238-2.238,4.475-2.238,7.464l0,0   C435.518,231.844,435.518,233.338,435.518,234.089L435.518,234.089L435.518,234.089L435.518,234.089c0-1.501,0-2.245,0-2.988l0,0   c0-2.989,0.744-5.227,2.238-7.464l0,0l0,0l3.732,2.988l0,0c-0.744,1.487-1.494,2.981-1.494,4.476l0,0c0,0.743,0,1.487,0,2.237l0,0   c0.75,2.981,1.494,4.483,2.988,4.483l0,0c0,0,0,0,0.741,0l0,0c0.752,0,1.496-0.75,2.24-1.501l0,0c0.75-0.744,0.75-1.487,0.75-2.23   l0,0v-3.732c0-2.245,0.742-4.482,1.494-5.977l0,0c0.742-1.487,2.982-2.238,4.475-2.988l0,0c0.744,0,0.744,0,1.494,0l0,0   c3.732,0,7.465,2.988,8.209,8.215l0,0c0,0.75,0,1.495,0,2.981l0,0c0,2.245-0.744,4.483-2.237,6.72l0,0l0,0l-3.73-2.988l0,0   c0.742-1.487,1.492-2.981,1.492-3.732l0,0c0-0.744,0-1.487,0-2.231l0,0c-0.75-2.245-1.492-3.732-2.988-3.732l0,0c0,0,0,0-0.744,0   l0,0c-0.75,0-1.494,0.744-1.494,0.744l0,0c-0.741,0.743-0.741,1.487-0.741,2.238l0,0l0,0l0,0v2.981l0,0l0,0   c0,2.245-0.75,4.483-1.494,5.233l0,0c-0.752,1.486-2.99,2.23-5.228,2.981l0,0c-0.744,0-0.744,0-1.496,0l0,0   C439.252,243.04,436.262,239.307,435.518,234.089L435.518,234.089z"/>
	<path fill="#FFFFFF" d="M437.756,259.457v-11.189l26.125-0.75v11.195c0,5.233-2.99,8.207-7.463,8.967   c-2.99,0-4.477-2.245-5.227-2.99c-0.744,1.488-2.24,3.732-5.972,3.732C440.744,268.421,437.756,264.688,437.756,259.457    M448.951,258.71v-5.962h-6.721v5.962c0,2.246,1.493,3.732,2.989,3.732C447.457,262.444,448.951,261.701,448.951,258.71    M459.404,258.71v-5.219h-5.978v5.219c0,2.246,1.494,3.732,2.99,3.732C457.91,261.701,459.404,260.957,459.404,258.71"/>
	<path fill="#FFFFFF" d="M437.756,259.457v-11.939l26.125-0.744v11.195l0,0l0,0c0,5.221-2.99,8.209-7.463,8.209l0,0l0,0l0,0   c-2.99,0-4.477-1.488-5.227-2.988l0,0c-0.744,1.5-2.24,3.73-5.972,3.73l0,0l0,0l0,0   C440.744,268.421,437.756,264.688,437.756,259.457L437.756,259.457z M445.221,267.678L445.221,267.678L445.221,267.678   c3.73,0,5.228-2.245,5.972-3.732l0,0l0,0l0,0c0.75,1.487,2.235,2.974,5.227,2.974l0,0l0,0l0,0c4.473,0,7.463-2.974,7.463-8.207l0,0   l0,0l0,0v-11.195l-26.125,0.75v11.189l0,0l0,0C437.756,264.688,440.744,267.678,445.221,267.678L445.221,267.678z M442.23,259.457   v-5.963h6.721v5.963l0,0l0,0l0,0l0,0c0,2.244-1.494,3.731-2.986,3.731l0,0l0,0l0,0l0,0l0,0   C443.725,262.444,442.23,261.701,442.23,259.457L442.23,259.457z M445.221,262.444c1.494,0,2.988-1.487,2.988-3.731l0,0l0,0l0,0   v-5.219h-5.979v5.219C442.23,261.701,443.725,262.444,445.221,262.444L445.221,262.444L445.221,262.444L445.221,262.444   L445.221,262.444L445.221,262.444z M453.428,258.71v-5.219h5.978v5.219l0,0l0,0l0,0l0,0c0,2.246-1.494,3.732-2.986,3.732l0,0l0,0   l0,0l0,0l0,0C454.178,262.444,453.428,260.957,453.428,258.71L453.428,258.71z M456.418,261.701c1.492,0,2.986-1.486,2.986-3.731   l0,0l0,0l0,0v-5.22h-5.978v5.22C453.428,260.957,454.178,261.701,456.418,261.701L456.418,261.701L456.418,261.701L456.418,261.701   L456.418,261.701L456.418,261.701z"/>
	<path fill="#FFFFFF" d="M438.5,289.312c-1.488-2.23-2.238-4.477-2.238-7.465c0-2.973,1.494-5.219,3.732-7.463   c2.988-2.231,5.971-2.231,10.453-1.488c4.475,0.744,7.463,0.744,10.442,3.732c1.496,2.246,2.246,4.476,2.246,7.463   c0,2.99-1.494,5.221-3.731,6.723c-2.986,2.229-5.978,2.229-10.453,1.486C443.725,293.042,440.744,292.3,438.5,289.312    M456.418,287.082c0.742-0.744,1.492-1.5,1.492-2.988c0-1.486,0-2.988-0.75-3.731c-0.742-1.485-2.238-1.485-7.465-2.245   c-5.22-0.742-5.972-0.742-7.465,0.76c-0.742,0.742-1.486,1.485-1.486,2.973c0,1.502,0,2.988,0.744,3.732   c0.742,1.502,2.235,1.502,7.463,2.246C454.178,288.569,455.674,288.569,456.418,287.082"/>
	<path fill="#FFFFFF" d="M448.209,293.042c-4.484-0.742-7.465-0.742-10.453-3.73l0,0l0,0l0,0   C440.744,292.3,443.725,292.3,448.209,293.042L448.209,293.042c1.486,0,2.982,0,4.475,0l0,0c2.238,0,4.478-0.742,5.972-2.229l0,0   c2.235-1.502,2.987-3.732,3.731-6.723l0,0c0-0.742,0-0.742,0-1.485l0,0c0-2.245-0.744-4.489-2.237-5.978l0,0   c-2.238-2.988-5.228-2.988-9.701-3.732l0,0c-1.496,0-2.99,0-4.482,0l0,0c-2.24,0-3.733,0.744-5.971,2.245l0,0   c-2.238,1.487-2.982,3.733-3.732,7.465l0,0c0,0.743,0,0.743,0,1.485l0,0c0,2.246,0.75,4.478,2.238,5.979l0,0l0,0l0,0   c-1.488-1.502-2.238-3.733-2.238-6.722l0,0c0-0.743,0-0.743,0-1.502l0,0c0-2.973,1.494-5.219,3.732-7.463l0,0   c1.494-1.488,3.729-2.231,5.971-2.231l0,0c1.492,0,2.986,0,4.482,0l0,0c4.475,0.743,7.463,0.743,10.442,3.731l0,0   c1.496,1.488,2.246,3.732,2.246,6.722l0,0c0,0.743,0,0.743,0,1.485l0,0c0,2.99-1.494,5.221-3.731,7.466l0,0   c-1.494,1.485-3.73,2.245-5.978,2.245l0,0C451.941,293.802,450.447,293.802,448.209,293.042L448.209,293.042z M453.428,288.569   c-0.744,0-2.235,0-4.477,0l0,0c-5.228-0.743-5.969-0.743-7.463-2.231l0,0c-0.744-0.756-0.744-1.5-0.744-2.987l0,0v-0.743l0,0   c0-1.502,0.744-2.988,1.486-3.73l0,0c0.752-0.76,1.493-0.76,2.989-0.76l0,0c0.744,0,2.236,0,4.476,0l0,0   c5.227,0.76,5.979,0.76,7.465,2.245l0,0c0.75,0.743,0.75,1.486,0.75,2.988l0,0v0.743l0,0c0,1.488-0.75,2.988-1.492,2.988l0,0   C455.674,287.826,454.922,288.569,453.428,288.569L453.428,288.569L453.428,288.569L453.428,288.569z M442.982,278.875   c-0.752,0.744-1.494,1.486-1.494,2.974l0,0v0.759l0,0c0,1.486,0.742,2.23,0.742,2.975l0,0c0.752,1.502,2.245,1.502,7.465,2.246l0,0   c1.496,0,2.987,0,4.481,0l0,0c1.496,0,2.24,0,2.982-0.744l0,0c0.75-0.744,1.494-1.502,1.494-2.99l0,0v-0.742l0,0   c0-1.502-0.744-2.245-0.744-2.988l0,0c-0.75-1.486-2.236-1.486-7.463-2.244l0,0c-2.238,0-2.99,0-4.482,0l0,0   C444.477,278.117,443.725,278.117,442.982,278.875L442.982,278.875z"/>
	<path fill="#FFFFFF" d="M432.529,305.742c1.496-5.232,5.971-8.965,11.194-7.464l16.425,3.731l-1.494,5.22l-16.424-3.731   c-2.979-0.744-5.22,0.742-5.97,3.731c-0.744,2.987,0.75,5.233,3.732,5.978l16.424,3.731l-1.496,5.22l-16.422-3.732   C433.281,316.195,431.035,310.96,432.529,305.742"/>
	<path fill="#FFFFFF" d="M438.5,317.681c-4.475-0.743-6.715-4.475-6.715-8.951l0,0c0-0.758,0-2.245,0-2.988l0,0   c1.496-4.476,4.477-8.207,8.959-8.207l0,0c0.744,0,1.486,0,2.238,0l0,0l16.422,3.731l-1.494,5.219l-16.422-3.731   c-0.744,0-0.744,0-1.494,0l0,0c-2.238,0-3.732,1.486-4.478,3.731l0,0c0,0.744,0,0.744,0,1.487l0,0c0,2.244,1.494,3.732,3.734,4.49   l0,0l16.422,3.731l-1.496,5.22L438.5,317.681L438.5,317.681z M431.785,307.972c0,4.49,2.24,8.223,6.715,8.966l0,0l16.422,3.731   l1.496-5.233l-16.424-3.731c-2.238-0.742-3.732-2.229-3.732-4.476l0,0c0-0.744,0-0.744,0-1.487l0,0   c0.75-2.244,2.238-3.73,4.482-3.73l0,0c0.744,0,0.744,0,1.486,0l0,0l16.424,3.73l1.494-5.232l-16.425-3.731   c-0.741,0-1.493,0-2.235,0l0,0c-4.478,0-8.207,2.988-8.959,8.222l0,0C431.785,306.485,431.785,307.229,431.785,307.972   L431.785,307.972z"/>
	<path fill="#FFFFFF" d="M423.572,333.353l11.944-1.486l1.494-3.732l-9.709-3.73l2.246-5.234l24.629,8.967l-3.729,10.453   c-2.238,5.219-6.724,6.705-10.453,5.219c-3.732-1.487-4.478-4.477-4.478-7.464l-12.688,1.485L423.572,333.353z M445.221,337.085   l1.494-4.477l-6.721-2.245l-1.494,4.49c-0.744,2.229,0,4.476,1.494,5.219C442.23,340.818,444.477,339.332,445.221,337.085"/>
	<path fill="#FFFFFF" d="M441.488,345.292c-0.744,0-2.236,0-2.988-0.744l0,0c-3.732-1.485-4.475-4.475-4.475-6.721l0,0l0,0l0,0   l-12.693,1.502l2.24-5.978l0,0l0,0l11.944-1.485l1.494-3.732l-9.709-3.731l2.246-5.233l24.629,8.966l-3.729,10.452   C448.209,343.063,444.477,345.292,441.488,345.292L441.488,345.292L441.488,345.292L441.488,345.292z M434.025,337.83   L434.025,337.83L434.025,337.83c0,2.988,1.491,5.978,4.475,6.721l0,0c0.752,0,2.244,0.744,2.988,0.744l0,0   c2.987,0,5.969-2.23,7.463-5.963l0,0l3.731-9.709l-24.629-8.951l-2.237,5.219l9.7,3.732l-1.491,3.73h-10.453l-2.24,5.979   L434.025,337.83L434.025,337.83L434.025,337.83z M440.744,340.074c-1.492-0.742-2.244-1.486-2.244-2.988l0,0   c0-0.742,0-1.486,0-1.486l0,0l1.494-4.477l6.721,2.23l-1.494,3.732c-0.744,1.502-2.237,2.988-3.731,2.988l0,0H440.744   L440.744,340.074z M438.5,334.855c0,0.743,0,1.486,0,1.486l0,0c0,1.486,0.752,2.246,2.244,2.988l0,0c0.744,0,0.744,0,1.486,0l0,0   c1.493,0,2.989-0.742,2.989-2.988l0,0l1.494-4.475l-6.721-2.246L438.5,334.855L438.5,334.855z"/>
	<path fill="#FFFFFF" d="M414.619,358.735c-0.75-2.989,0-5.978,0.744-8.208c1.496-2.988,3.731-4.477,5.969-5.232   c3.732-1.487,6.723,0.758,10.453,2.244c3.731,2.246,6.715,3.731,8.209,7.465c0.75,2.244,0.75,5.219-0.742,8.207   c-2.99,5.978-8.217,6.721-11.949,5.233l2.246-4.489c2.236,0.758,4.478,0,5.969-2.23c0.744-1.502,0.744-2.988,0.744-3.732   c-0.744-1.5-1.494-2.244-5.971-4.476c-4.475-2.245-5.969-2.988-7.463-2.245c-0.742,0-2.238,0.744-2.988,2.245   c-0.744,1.487-0.744,2.976-0.744,3.731c0.744,1.487,1.494,2.23,2.236,2.975l0.754,0.759l2.236-4.489l3.731,2.244l-5.227,8.951   l-3.732-1.486C416.859,363.21,415.363,360.98,414.619,358.735"/>
	<path fill="#FFFFFF" d="M430.291,368.444c-1.492,0-2.236,0-3.732-0.758l0,0l0,0l2.24-5.22l0,0c0.75,0,0.75,0,1.492,0l0,0   c1.494,0,2.99-0.743,4.477-2.988l0,0c0.75-0.743,0.75-1.486,0.75-2.23l0,0c0-0.758,0-0.758,0-1.502l0,0   c-0.75-1.486-1.491-2.229-5.969-4.476l0,0c-3.731-1.485-5.227-2.245-5.977-2.245l0,0h-0.744l0,0c-0.742,0-2.238,0.76-2.988,2.245   l0,0c-0.744,0.744-0.744,1.487-0.744,2.987l0,0c0,0.744,0,0.744,0,1.488l0,0c0.744,1.502,1.494,2.244,2.236,2.988l0,0l0.754,0.743   l2.236-4.476l3.731,2.244l-5.227,8.951l-3.732-1.486c-2.987-1.502-5.227-3.731-5.971-5.978l0,0l0,0l0,0   c0.744,2.245,2.238,4.476,5.971,5.978l0,0l2.99,1.486l4.473-8.951l-2.235-1.502l-2.236,4.477l-0.754-0.743   c-1.492-0.743-2.236-1.487-2.236-2.988l0,0c0-0.743,0-0.743,0-1.487l0,0c0-0.744,0-1.486,0.744-2.987l0,0   c0.75-1.487,1.492-2.229,2.988-2.229l0,0h0.744l0,0c1.492,0,2.985,0.742,5.977,2.229l0,0c4.478,2.243,5.219,2.987,5.969,4.476l0,0   c0,0.758,0,0.758,0,1.502l0,0c0,0.743,0,1.486-0.75,2.229l0,0c-0.741,2.245-2.237,2.989-4.477,2.989l0,0c-0.742,0-0.742,0-1.492,0   l0,0l-2.24,4.476C428.055,368.444,428.799,368.444,430.291,368.444L430.291,368.444c2.99,0,6.721-1.502,8.961-5.978l0,0   c0.742-1.486,1.492-3.731,1.492-5.219l0,0c0-0.758,0-1.502-0.75-2.99l0,0c-0.742-3.73-3.732-5.232-8.209-7.463l0,0   c-2.986-1.502-5.228-2.988-8.213-2.988l0,0c-0.744,0-1.486,0-2.24,0.742l0,0c-2.236,0.744-4.473,2.246-5.969,5.234l0,0   c-0.744,1.486-1.494,3.731-1.494,5.219l0,0c0,0.744,0,2.246,0.75,2.988l0,0l0,0l0,0c0-0.742-0.75-2.244-0.75-2.988l0,0   c0-2.244,0.75-3.731,1.494-5.219l0,0c1.496-2.988,3.731-4.49,5.969-5.234l0,0c0.754,0,1.496-0.742,2.24-0.742l0,0   c2.244,0,5.227,1.486,8.213,2.988l0,0c3.731,2.229,6.715,3.731,8.209,7.463l0,0c0,0.744,0.75,2.231,0.75,2.99l0,0   c0,1.486-0.75,3.731-1.492,5.219l0,0C437.012,366.942,433.281,368.444,430.291,368.444L430.291,368.444L430.291,368.444   L430.291,368.444z"/>
	<path fill="#0055A1" d="M265.338,341.561c-0.752-3.731-1.496-8.208,0-10.438c2.236-2.244,10.443-2.244,10.443-2.244   c-7.463-2.988-9.701-8.951-9.701-8.951c-2.988-9.709,0-12.697,0-12.697c-9.701,0-4.475,0-14.928,0c0-10.452,0-5.963,0-16.415   c-0.748-1.502-1.494-2.987-2.239-3.731c0-5.979,0-11.94,0-17.918c-1.495-1.485-3.731-2.987-5.226-5.219   c0-4.49-3.732-29.857-3.732-29.857s-3.732,26.125-3.732,30.599c-2.237,1.488-2.984,2.99-4.479,5.221c0,5.978,0,11.938,0,17.918   c-0.747,1.485-2.237,2.987-2.985,4.475c-0.747,17.174-0.747,5.979,0,21.648c0,0,11.196,34.332,38.064,41.053l6.721-1.486   C269.812,352.014,266.08,345.292,265.338,341.561z"/>
	<path fill="#0055A1" d="M342.215,305c4.478-0.76,8.209-2.246,11.197-4.49c4.477-3.731,7.465-8.209,8.959-14.928l-0.75-1.488   l-7.465-2.245l-1.494,0.759c-0.744,4.477-2.98,8.208-5.971,10.438c-2.98,2.246-5.97,3.733-9.703,3.733   c-2.986,0-6.72-0.743-8.957-2.231c-2.982-1.502-4.476-4.475-5.97-7.463c-1.495-3.732-2.239-7.465-2.239-12.697   c0-3.733,0.744-7.465,1.496-10.438c1.485-2.99,2.979-5.979,5.971-8.216c2.979-2.237,5.969-2.982,10.443-2.982   c3.731,0,6.723,0.745,8.959,2.982c2.237,1.494,4.483,4.481,5.227,8.216l1.494,0.741l7.465-1.5l0.744-1.487   c-1.496-5.22-4.478-9.702-8.209-12.684c-4.482-2.988-8.957-4.483-14.928-4.483c-5.228,0-9.701,1.495-14.187,3.732   c-2.979,1.494-5.227,3.732-7.463,5.972c0-0.744-0.744-1.489-1.494-2.239c-1.488-2.981-3.731-4.482-6.715-5.97   c-2.988-1.495-7.463-2.245-12.688-2.245h-25.382l-0.743,0.75v57.477l0.743,0.742h3.73c-1.486,2.988-2.236,5.22-2.236,8.951   c0,2.988,0.75,5.233,2.236,7.465c1.493,2.244,3.733,4.49,6.721,5.978c2.238,1.485,5.972,2.245,11.197,3.731   c5.227,1.486,8.959,2.244,9.7,2.988c2.238,0.743,3.732,2.23,4.484,2.988c0.742,1.486,1.486,2.23,1.486,3.732   c0,1.486-0.744,2.974-1.486,4.476c-0.752,1.485-2.246,2.229-4.484,2.988c-2.235,0.743-4.475,1.487-7.463,1.487   c-2.981,0-5.969-0.744-8.209-1.487c-2.237-0.759-4.481-2.245-5.227-3.732c-1.492-1.501-2.236-3.731-2.236-6.721l-1.494-0.743   l-7.465,0.743l-0.744,0.743c0,3.732,1.488,7.465,2.982,11.197c2.236,2.987,5.227,5.977,8.957,7.463   c3.732,1.488,8.209,2.246,13.436,2.246l0,0c4.482,0,8.213-0.758,11.195-2.246c0,0,0.752,0,0.752-0.744l-0.752,1.488l0.752,1.502   h8.207l0.744-0.758l5.978-16.416h22.393l6.713,16.416l0.752,0.758h8.949l0.752-1.502L342.215,305z M306.391,264.688   c-0.752,1.487-2.246,2.231-3.733,2.989c-1.492,0.744-4.482,0.744-7.464,0.744h-14.928v-16.423h17.166   c3.732,0,6.713,0.75,8.207,2.238c1.494,1.494,2.238,3.73,2.238,5.977C307.877,261.701,307.133,263.188,306.391,264.688z    M310.123,274.384c0,3.73,0.742,6.72,1.486,10.451c-1.486-2.229-3.732-4.476-5.22-5.961c-0.752-0.76-1.493-0.76-2.245-1.502   C306.391,275.884,307.877,275.141,310.123,274.384z M283.996,305.742c1.488-1.502,5.221-2.244,9.703-2.244   c4.475,0,7.465,0.742,8.957,2.244c2.24,1.487,2.981,3.732,3.733,7.465l1.486,0.744l7.465-0.744l0.75-0.744   c0-3.731-1.494-6.721-2.988-9.709l0,0h8.96l0.741-1.486v-0.758l0,0c1.494,0.758,2.988,1.502,4.484,2.244l-10.453,28.369   c0-0.758-0.744-1.5-1.494-2.244c-1.487-2.246-4.477-4.476-7.465-5.978c-2.238-0.743-6.713-2.229-12.685-3.731   c-5.977-1.487-9.709-2.975-11.196-3.732c-2.244-1.486-2.988-2.229-2.988-4.475C281.008,309.474,282.504,307.229,283.996,305.742z    M279.516,277.373h7.463c2.238,0,2.988,0,3.732,0c0.75,0,2.238,0.744,2.988,1.502c0.744,0.744,2.238,1.486,3.732,3.731   c1.493,1.485,2.979,4.476,5.225,7.465l5.221,8.207c-1.486-0.743-2.238-1.501-3.732-2.245c-3.731-1.486-7.465-2.23-11.938-2.23   c-3.729,0-7.465,0.744-11.197,2.23c-0.741,0.744-1.491,0.744-2.985,1.502v-20.162H279.516z M331.764,315.436   c0.752-2.229,1.494-4.476,2.238-7.464c0.75,2.244,1.494,5.234,2.986,8.223l5.227,14.17h-16.422L331.764,315.436z"/>
	<path fill="#FFFFFF" d="M107.096,346.05l2.984,4.477l-17.913,23.137l-2.988-4.477l3.731-4.477l-5.97-9.709l-5.97,0.744   l-2.988-4.477L107.096,346.05z M102.616,352.757l-10.449,1.5l3.732,6.723L102.616,352.757z"/>
	<polygon fill="#FFFFFF" points="117.544,362.466 121.276,366.199 103.364,380.382 107.839,386.346 104.107,389.333 95.899,378.88     "/>
	<path fill="#FFFFFF" d="M134.71,387.847l-5.222-0.743c0.743-2.245,0-3.731-0.748-5.233c-0.747-0.744-0.747-0.744-1.495-0.744   c-0.747,0-0.747,0-1.49,0.744c0,0-0.748,0.743-0.748,1.502c0,0.744,0,2.229,0,5.219c0,2.988,0,4.477,0,5.22   c0,1.501,0,2.987-0.747,3.731c-0.748,0.758-0.748,2.246-2.238,2.988c-1.494,1.502-3.731,2.246-5.973,2.246   c-2.238,0-4.48-0.744-5.971-2.988c-1.494-1.488-2.241-2.99-2.241-4.477c0-1.502,0-3.732,0.748-5.979l5.226,1.502   c-0.747,2.975-0.747,4.477,0.748,5.963c0.743,0.744,1.491,0.744,2.237,0.744c0.747,0,1.495,0,2.238-0.744   c0.748-0.744,0.748-0.744,0.748-1.486c0-0.744,0-2.245,0-4.477c0-3.731,0-6.721,0-8.223c0-1.486,0.747-2.974,2.241-3.732   c1.491-1.485,2.985-2.229,5.223-1.485c2.242,0,3.733,0.743,5.227,2.245c0.747,0.742,1.491,2.23,2.238,3.73   C135.458,383.373,135.458,385.602,134.71,387.847"/>
	<path fill="#FFFFFF" d="M147.401,393.067l4.479,2.987l-8.958,28.369l-4.48-3.73l2.242-5.979l-8.958-7.463l-5.227,2.988   l-5.223-2.246L147.401,393.067z M144.416,400.531l-8.958,5.232l5.97,4.477L144.416,400.531z"/>
	<path fill="#FFFFFF" d="M181.737,421.437l-5.227,1.484c-0.747-3.73-2.984-5.961-5.227-7.463c-2.237-1.486-4.475-1.486-7.463-0.744   c-2.238,0.744-4.476,2.246-5.97,4.477c-0.748,1.502-1.495,2.986-1.495,5.232c0,1.488,0.747,2.977,1.495,4.479   c0.747,1.484,2.238,2.229,3.732,3.729c1.494,0.744,2.985,1.488,3.731,1.488c1.495,0,2.985,0,5.227-0.744l1.491,5.219   c-2.984,0.762-5.223,0.762-7.464,0.762c-2.238,0-3.732-0.762-5.97-2.246c-3.732-2.244-5.974-5.219-7.464-8.951   c-0.747-3.734-0.747-7.465,1.491-11.197c1.494-2.244,2.988-4.49,5.227-5.232c2.238-1.486,4.479-1.486,7.463-1.486   c2.985,0,5.227,0.744,7.464,2.229c2.238,1.502,3.732,2.988,5.227,4.49C180.243,416.96,180.99,419.191,181.737,421.437"/>
	<polygon fill="#FFFFFF" points="186.96,418.449 201.141,424.423 198.903,428.902 189.945,425.167 187.707,429.644 197.409,433.375    195.171,438.593 186.213,434.865 183.228,441.583 192.186,445.318 190.692,449.791 176.51,443.83  "/>
</g>
</svg>