<svg id="Layer_1" data-name="Layer 1" xmlns="http://www.w3.org/2000/svg" xmlns:xlink="http://www.w3.org/1999/xlink" viewBox="0 0 24 24"><defs><style>.cls-1{clip-rule:evenodd;}.cls-2{fill-rule:evenodd;}.cls-3{clip-path:url(#clip-path);}.cls-4{fill:#fff;}</style><clipPath id="clip-path"><polygon class="cls-1" points="201.85 87.1 196 82.18 196 86.15 179.85 86.15 179.85 88.08 196 88.08 196 92 201.85 87.1"/></clipPath></defs><title>24-google</title><polygon class="cls-2" points="201.85 87.1 196 82.18 196 86.15 179.85 86.15 179.85 88.08 196 88.08 196 92 201.85 87.1"/><g class="cls-3"><rect x="-997.15" y="-5993.82" width="1440" height="8007"/></g><path class="cls-4" d="M22,11V9H20v2H18v2h2v2h2V13h2V11Z"/><path class="cls-4" d="M9,11.11l.16,2.27h4a3.84,3.84,0,0,1-4,3,4.4,4.4,0,1,1,0-8.8A4,4,0,0,1,12,8.66L13.9,6.85A6.79,6.79,0,0,0,9.14,5a7,7,0,1,0,0,14A6.48,6.48,0,0,0,16,12.16a5.21,5.21,0,0,0,0-1Z"/></svg>