<?xml version="1.0" encoding="utf-8"?>
<!-- Generator: Adobe Illustrator 22.0.1, SVG Export Plug-In . SVG Version: 6.00 Build 0)  -->
<svg version="1.1" id="Calque_1" xmlns="http://www.w3.org/2000/svg" xmlns:xlink="http://www.w3.org/1999/xlink" x="0px" y="0px"
	 viewBox="0 0 32 32" style="enable-background:new 0 0 32 32;" xml:space="preserve">
<style type="text/css">
	.st0{fill:#4353FF;}
</style>
<g transform="translate(0, 0)">
	<path class="st0" d="M13.6,4.6C10,4.1,6.4,5.3,3.7,7.9C3,8.6,2.4,9.4,1.9,10.3c-0.2,0.4-0.2,0.9,0.2,1.2l2.6,2.6
		C6.4,11.4,9.3,7.7,13.6,4.6z"/>
	<path class="st0" d="M17.9,27.3l2.6,2.6c0.2,0.2,0.4,0.3,0.7,0.3c0.2,0,0.4,0,0.5-0.1c0.9-0.5,1.7-1.1,2.3-1.8
		c2.7-2.7,3.8-6.4,3.3-10C24.3,22.7,20.6,25.6,17.9,27.3z"/>
	<path class="st0" d="M4,32H0v-4c0-2.2,1.8-4,4-4s4,1.8,4,4S6.2,32,4,32z"/>
	<path class="st0" d="M30.7,1.3C30.5,1.1,30.2,1,29.9,1C11.4,2,4.5,18.5,4.4,18.7c-0.1,0.4-0.1,0.8,0.2,1.1l7.6,7.6
		c0.2,0.2,0.4,0.3,0.7,0.3c0.1,0,0.3,0,0.4-0.1c0.2-0.1,16.6-7,17.7-25.5C31,1.8,30.9,1.5,30.7,1.3z M17.5,17
		c-1.4,0-2.5-1.1-2.5-2.5s1.1-2.5,2.5-2.5s2.5,1.1,2.5,2.5S18.9,17,17.5,17z"/>
</g>
</svg>
